<?xml version="1.0" encoding="utf-8" ?><svg xmlns="http://www.w3.org/2000/svg" xmlns:xlink="http://www.w3.org/1999/xlink" width="1024" height="1024" viewBox="0 0 1024 1024"><path fill="#EDF5F4" d="M369.973 194.321C393.316 192.443 408.87 195.88 427.195 211.388C437.082 219.755 446.001 231.542 452.519 242.668C491.417 227.249 538.01 226.718 576.593 243.401C580 244.865 583.356 246.444 586.656 248.136C602.82 219.339 639.319 193.699 673.416 204.691C638.508 206.733 613.074 223.555 598.332 255.593C627.468 273.598 643.536 304.121 651.265 336.689C659.847 374.14 659.775 413.054 651.053 450.472C653.408 448.754 655.796 446.894 658.325 445.474C655.784 431.826 657.676 416.516 667.799 406.262C665.141 393.126 668.584 378.682 676.018 367.758C683.467 356.811 698.276 343.51 712.565 345.9C729.103 348.666 723.911 371.144 723.012 382.364C726.761 375.963 729.851 370.306 732.877 363.764C736.314 356.334 739.641 336.095 749.267 334.566C779.174 329.815 798.177 371.978 802.922 394.273L803.02 394.751C821.408 397.543 842.598 412.063 855.974 424.795C888.2 455.469 904.301 499.652 894.053 543.368C891.829 542.532 884.036 539.354 882.186 539.374L881.727 539.957L880.798 543.904C902.409 552.692 916.967 567.275 926.21 588.898C934.845 608.871 934.995 631.495 926.625 651.581C918.087 672.657 904.525 684.76 884.791 694.857C875.702 713.112 858.035 725.351 839.782 733.112C846.523 745.945 834.73 752.998 824.389 757.745C803.943 767.13 780.682 772.547 758.684 776.914C745.057 779.735 731.353 782.167 717.588 784.206C680.019 789.415 640.389 791.633 601.641 792.812C493.831 796.093 380.236 793.895 275.866 763.822C264.995 760.689 243.239 751.986 243.164 738.818C206.266 739.995 170.638 730.42 147.08 700.575C145.527 698.608 142.892 695.124 141.044 693.632L140.828 692.651L140.326 692.351C139.026 688.333 136.773 684.157 135.124 680.187C122.973 650.942 131.186 612.869 153.329 590.511C170.664 573.008 191.228 566.293 215.291 565.947C223.347 541.123 237.993 528.379 260.437 515.874L268.628 512.356C284.336 505.118 316.495 503.83 333.359 508.304C339.731 502.133 348.058 495.636 356.079 491.926C356.452 488.303 356.492 484.224 356.608 480.543C341.781 480.862 331.686 478.582 317.312 474.265C315.831 473.356 312.922 472.076 311.081 471.007C303.861 466.814 299.792 462.147 294.42 456.012C266.09 452.02 250.87 440.373 235.225 416.625C231.086 405.889 228.726 404.471 225.821 391.34C220.309 364.301 225.74 336.181 240.926 313.14C250.711 298.549 276.085 273.648 297.085 284.699C301.52 287.033 304.278 292.562 304.958 297.273C306.715 311.124 306.373 320.357 311.081 333.976C313.204 323.146 312.022 306.04 321.676 299.333C332.853 291.57 346.648 304.1 352.307 313.296C361.779 327.258 366.3 351.819 357.178 366.999C362.117 377.247 362.63 381.338 364.669 392.487C371.476 340.586 379.886 292.244 424.706 258.023C429.329 254.516 434.214 251.368 439.319 248.608C430.536 226.768 419.038 211.524 396.776 201.505C386.488 196.874 380.47 196.406 369.973 194.321Z"/><defs><linearGradient id="gradient_0" gradientUnits="userSpaceOnUse" x1="584.41156" y1="594.93695" x2="429.58057" y2="269.52182"><stop offset="0" stop-color="#F6523C"/><stop offset="1" stop-color="#FF864C"/></linearGradient></defs><path fill="url(#gradient_0)" d="M369.973 194.321C393.316 192.443 408.87 195.88 427.195 211.388C437.082 219.755 446.001 231.542 452.519 242.668C491.417 227.249 538.01 226.718 576.593 243.401C580 244.865 583.356 246.444 586.656 248.136C602.82 219.339 639.319 193.699 673.416 204.691C638.508 206.733 613.074 223.555 598.332 255.593C627.468 273.598 643.536 304.121 651.265 336.689C659.847 374.14 659.775 413.054 651.053 450.472C653.408 448.754 655.796 446.894 658.325 445.474C655.784 431.826 657.676 416.516 667.799 406.262C665.141 393.126 668.584 378.682 676.018 367.758C683.467 356.811 698.276 343.51 712.565 345.9C729.103 348.666 723.911 371.144 723.012 382.364C726.761 375.963 729.851 370.306 732.877 363.764C736.314 356.334 739.641 336.095 749.267 334.566C779.174 329.815 798.177 371.978 802.922 394.273L803.02 394.751C821.408 397.543 842.598 412.063 855.974 424.795C888.2 455.469 904.301 499.652 894.053 543.368C891.829 542.532 884.036 539.354 882.186 539.374L881.727 539.957L880.798 543.904C878.405 543.298 874.581 541.824 872.15 540.955C871.291 525.027 861.182 526.982 848.761 523.597C843.72 517.887 841.669 512.465 834.76 507.944C820.833 498.831 811.877 510.498 804.976 521.079C795.626 520.239 782.752 518.472 774.715 524.365C770.919 527.148 769.259 530.076 764.612 532.241C766.201 535.834 767.167 537.645 767.816 541.517C781.629 543.374 804.622 543.679 804.108 562.472C803.247 564.818 802.564 566.994 802.436 569.518C801.578 572.847 801.006 573.838 799.457 576.885C787.488 593.68 773.69 598.617 754.882 605.278C748.212 605.788 739.315 602.026 732.405 600.609C728.57 600.356 723.514 600.437 719.583 600.383C714.38 602.934 711.424 603.737 705.746 605C704.547 603.838 702.796 602.659 701.404 601.654C698.528 601.022 691.528 597.924 688.554 596.649C687.847 599.224 687.221 601.684 685.818 603.989C679.422 614.501 663.085 611.959 653.321 608.865C651.706 608.354 650.107 607.791 648.526 607.18C648.502 610.379 648.577 612.946 647.151 615.94C644.962 613.776 644.483 613.268 642.857 610.674C633.322 601.026 635.323 600.795 622.811 592.403C620.509 590.483 618.054 588.993 615.539 587.362L610.212 584.557C602.09 581.232 593.652 578.739 585.027 577.118C562.212 572.953 533.16 577.102 513.829 590.449C504.593 571.965 500.227 565.988 485.915 550.944C456.685 528.364 438.982 520.289 401.326 519.38C389.379 519.796 375.417 521.205 363.985 524.811C361.577 525.364 360.024 525.666 357.701 526.579C348.024 530.301 341.88 533.302 332.674 538.064L326.324 542.478C316.318 531.144 321.026 524.723 328.889 514.006L333.359 508.304C339.731 502.133 348.058 495.636 356.079 491.926C356.452 488.303 356.492 484.224 356.608 480.543C341.781 480.862 331.686 478.582 317.312 474.265C315.831 473.356 312.922 472.076 311.081 471.007C303.861 466.814 299.792 462.147 294.42 456.012C266.09 452.02 250.87 440.373 235.225 416.625C231.086 405.889 228.726 404.471 225.821 391.34C220.309 364.301 225.74 336.181 240.926 313.14C250.711 298.549 276.085 273.648 297.085 284.699C301.52 287.033 304.278 292.562 304.958 297.273C306.715 311.124 306.373 320.357 311.081 333.976C313.204 323.146 312.022 306.04 321.676 299.333C332.853 291.57 346.648 304.1 352.307 313.296C361.779 327.258 366.3 351.819 357.178 366.999C362.117 377.247 362.63 381.338 364.669 392.487C371.476 340.586 379.886 292.244 424.706 258.023C429.329 254.516 434.214 251.368 439.319 248.608C430.536 226.768 419.038 211.524 396.776 201.505C386.488 196.874 380.47 196.406 369.973 194.321Z"/><path fill="#662122" d="M369.973 194.321C393.316 192.443 408.87 195.88 427.195 211.388C437.082 219.755 446.001 231.542 452.519 242.668C491.417 227.249 538.01 226.718 576.593 243.401C580 244.865 583.356 246.444 586.656 248.136C602.82 219.339 639.319 193.699 673.416 204.691C638.508 206.733 613.074 223.555 598.332 255.593C627.468 273.598 643.536 304.121 651.265 336.689C659.847 374.14 659.775 413.054 651.053 450.472C653.408 448.754 655.796 446.894 658.325 445.474C655.784 431.826 657.676 416.516 667.799 406.262C665.141 393.126 668.584 378.682 676.018 367.758C683.467 356.811 698.276 343.51 712.565 345.9C729.103 348.666 723.911 371.144 723.012 382.364C726.761 375.963 729.851 370.306 732.877 363.764C736.314 356.334 739.641 336.095 749.267 334.566C779.174 329.815 798.177 371.978 802.922 394.273L803.02 394.751C821.408 397.543 842.598 412.063 855.974 424.795C888.2 455.469 904.301 499.652 894.053 543.368C891.829 542.532 884.036 539.354 882.186 539.374L881.727 539.957L880.798 543.904C878.405 543.298 874.581 541.824 872.15 540.955C871.291 525.027 861.182 526.982 848.761 523.597C843.72 517.887 841.669 512.465 834.76 507.944C820.833 498.831 811.877 510.498 804.976 521.079C795.626 520.239 782.752 518.472 774.715 524.365C770.919 527.148 769.259 530.076 764.612 532.241C766.201 535.834 767.167 537.645 767.816 541.517C781.629 543.374 804.622 543.679 804.108 562.472C803.247 564.818 802.564 566.994 802.436 569.518C801.578 572.847 801.006 573.838 799.457 576.885C787.488 593.68 773.69 598.617 754.882 605.278C748.212 605.788 739.315 602.026 732.405 600.609C728.57 600.356 723.514 600.437 719.583 600.383C714.38 602.934 711.424 603.737 705.746 605C704.547 603.838 702.796 602.659 701.404 601.654C698.528 601.022 691.528 597.924 688.554 596.649C687.847 599.224 687.221 601.684 685.818 603.989C679.422 614.501 663.085 611.959 653.321 608.865C651.706 608.354 650.107 607.791 648.526 607.18C648.502 610.379 648.577 612.946 647.151 615.94C644.962 613.776 644.483 613.268 642.857 610.674C633.322 601.026 635.323 600.795 622.811 592.403C620.509 590.483 618.054 588.993 615.539 587.362C632.199 569.595 638.347 550.463 642.19 527.012C642.906 521.64 643.282 514.186 643.564 508.733C624.722 505.631 604.057 495.569 606.964 471.787C609.8 448.585 634.495 458.194 642.416 452.492C645.35 447.686 647.541 429.45 648.39 422.982C659.645 337.277 631.963 250.221 532.662 239.057C497.728 234.356 458.378 240.916 429.725 262.459C395.056 288.526 379.779 329.969 374.067 371.5C372.727 381.245 371.16 394.76 370.898 404.632C369.744 408.452 369.539 423.114 368.407 429.12L368.367 429.348C376.756 434.362 383.053 438.574 385.473 448.988C387.023 455.538 385.75 462.437 381.966 468.004C377.538 474.601 371.076 478.209 363.547 480.038C362.5 495.353 361.433 509.512 363.985 524.811C361.577 525.364 360.024 525.666 357.701 526.579C348.024 530.301 341.88 533.302 332.674 538.064L326.324 542.478C316.318 531.144 321.026 524.723 328.889 514.006L333.359 508.304C339.731 502.133 348.058 495.636 356.079 491.926C356.452 488.303 356.492 484.224 356.608 480.543C341.781 480.862 331.686 478.582 317.312 474.265C315.831 473.356 312.922 472.076 311.081 471.007C303.861 466.814 299.792 462.147 294.42 456.012C266.09 452.02 250.87 440.373 235.225 416.625C231.086 405.889 228.726 404.471 225.821 391.34C220.309 364.301 225.74 336.181 240.926 313.14C250.711 298.549 276.085 273.648 297.085 284.699C301.52 287.033 304.278 292.562 304.958 297.273C306.715 311.124 306.373 320.357 311.081 333.976C313.204 323.146 312.022 306.04 321.676 299.333C332.853 291.57 346.648 304.1 352.307 313.296C361.779 327.258 366.3 351.819 357.178 366.999C362.117 377.247 362.63 381.338 364.669 392.487C371.476 340.586 379.886 292.244 424.706 258.023C429.329 254.516 434.214 251.368 439.319 248.608C430.536 226.768 419.038 211.524 396.776 201.505C386.488 196.874 380.47 196.406 369.973 194.321Z"/><path fill="#EDF5F4" d="M700.206 497.257C708.372 498.486 716.2 500.252 724.534 499.673C745.78 498.197 765.778 487.842 779.874 472.128C793.608 456.764 801.868 437.285 803.364 416.732C803.853 409.493 803.4 402.007 803.02 394.751C821.408 397.543 842.598 412.063 855.974 424.795C888.2 455.469 904.301 499.652 894.053 543.368C891.829 542.532 884.036 539.354 882.186 539.374L881.727 539.957L880.798 543.904C878.405 543.298 874.581 541.824 872.15 540.955C871.291 525.027 861.182 526.982 848.761 523.597C843.72 517.887 841.669 512.465 834.76 507.944C820.833 498.831 811.877 510.498 804.976 521.079C795.626 520.239 782.752 518.472 774.715 524.365C770.919 527.148 769.259 530.076 764.612 532.241C766.201 535.834 767.167 537.645 767.816 541.517C765.767 541.148 763.062 540.418 760.981 539.924C731.188 531.758 698.448 506.209 667.242 520.235C662.683 516.418 657.908 512.867 652.941 509.598C674.576 505.768 680.56 508.237 700.206 497.257Z"/><path fill="#FEFEFD" d="M802.014 515.007C808.199 500.588 819.517 494.476 834.171 499.932C843.027 503.23 845.58 509.345 851.539 515.614C861.77 519.28 872.359 515.652 878.888 530.29C879.443 531.534 881.707 538.665 881.727 539.957L880.798 543.904C878.405 543.298 874.581 541.824 872.15 540.955C871.291 525.027 861.182 526.982 848.761 523.597C843.72 517.887 841.669 512.465 834.76 507.944C820.833 498.831 811.877 510.498 804.976 521.079C795.626 520.239 782.752 518.472 774.715 524.365C770.919 527.148 769.259 530.076 764.612 532.241C763.101 530.921 762.105 529.719 760.777 528.209C771.874 512.58 784.435 511.885 802.014 515.007Z"/><path fill="#C0E6F3" d="M750.225 519.542L760.777 528.209C762.105 529.719 763.101 530.921 764.612 532.241C766.201 535.834 767.167 537.645 767.816 541.517C765.767 541.148 763.062 540.418 760.981 539.924C759.315 532.867 753.479 526.866 750.225 519.542Z"/><path fill="#FEFEFD" d="M816.802 477.117C821.439 478.195 823.78 479.714 822.296 484.773C820.394 485.1 819.478 485.303 817.829 484.305C815.96 481.883 816.497 480.188 816.802 477.117Z"/><defs><linearGradient id="gradient_1" gradientUnits="userSpaceOnUse" x1="721.62512" y1="601.5896" x2="737.39752" y2="536.12396"><stop offset="0" stop-color="#F04433"/><stop offset="1" stop-color="#FF794C"/></linearGradient></defs><path fill="url(#gradient_1)" d="M672.04 524.788C678.041 523.057 683.886 522.448 690.098 522.474C708.169 522.752 738.884 539.854 756.895 545.361C767.662 548.653 787.669 549.252 795.569 554.382C797.467 556.703 799.129 559.289 798.573 562.418C793.853 588.991 754.429 600.535 732.405 600.609C728.57 600.356 723.514 600.437 719.583 600.383C714.38 602.934 711.424 603.737 705.746 605C704.547 603.838 702.796 602.659 701.404 601.654C698.528 601.022 691.528 597.924 688.554 596.649C688.477 595.297 688.637 594.361 688.772 593.018C686.865 582.673 682.202 574.986 675.53 567.087C677.509 566.082 679.854 564.932 681.609 563.613C695.651 553.062 679.756 534.031 672.04 524.788Z"/><path fill="#FEB272" d="M690.098 522.474C708.169 522.752 738.884 539.854 756.895 545.361C767.662 548.653 787.669 549.252 795.569 554.382C790.843 555.879 786.065 555.568 781.208 555.472C754.107 554.937 731.649 538.824 706.384 532.015C702.531 530.949 698.601 530.184 694.629 529.726C691.704 529.417 684.139 529.685 682.267 528.903L682.005 528.033C683.068 525.325 687.38 523.792 690.098 522.474Z"/><path fill="#662122" d="M708.17 598.412C711.938 598.689 715.862 599.611 719.583 600.383C714.38 602.934 711.424 603.737 705.746 605C704.547 603.838 702.796 602.659 701.404 601.654C703.87 598.32 703.999 598.598 708.17 598.412Z"/><path fill="#911F25" d="M688.772 593.018C691.595 596.24 703.828 598.08 708.17 598.412C703.999 598.598 703.87 598.32 701.404 601.654C698.528 601.022 691.528 597.924 688.554 596.649C688.477 595.297 688.637 594.361 688.772 593.018Z"/><path fill="#FEB272" d="M718.842 539.547C721.43 539.407 724.161 538.861 724.822 541.829C724.099 543.821 723.259 544.212 721.535 545.617C719.575 544.731 715.337 543.428 715.114 541.254C716.157 540.072 717.286 539.974 718.842 539.547Z"/><path fill="#EB4B37" d="M350.848 501.543C351.972 500.523 353.933 499.082 355.496 499.131L355.746 499.842C356.01 509.4 356.16 517.114 357.701 526.579C348.024 530.301 341.88 533.302 332.674 538.064C329.593 536.03 328.96 535.239 327.18 531.987L330.954 529.573C336.568 524.378 340.382 516.451 346.502 510.298L349.52 507.965L350.273 507.413C350.908 504.661 351.101 504.28 350.848 501.543Z"/><path fill="#FA5E40" d="M349.52 507.965C350.91 521.509 347.166 533.069 330.954 529.573C336.568 524.378 340.382 516.451 346.502 510.298L349.52 507.965Z"/><path fill="#FA5E40" d="M350.848 501.543C351.972 500.523 353.933 499.082 355.496 499.131L355.746 499.842C355.384 502.275 355.576 503.879 354.224 505.737C352.358 506.793 352.313 506.852 350.273 507.413C350.908 504.661 351.101 504.28 350.848 501.543Z"/><path fill="#FE9C5C" d="M327.18 531.987C328.9 520.93 334.809 515.433 342.593 508.01C343.793 508.709 345.363 509.567 346.502 510.298C340.382 516.451 336.568 524.378 330.954 529.573L327.18 531.987Z"/><path fill="#EB4B37" d="M625.603 587.741C634.537 594.108 642.162 598.539 642.857 610.674C633.322 601.026 635.323 600.795 622.811 592.403L625.603 587.741Z"/><path fill="#FD6F45" d="M342.593 508.01C345.687 505.299 347.468 503.851 350.848 501.543C351.101 504.28 350.908 504.661 350.273 507.413L349.52 507.965L346.502 510.298C345.363 509.567 343.793 508.709 342.593 508.01Z"/><defs><linearGradient id="gradient_2" gradientUnits="userSpaceOnUse" x1="305.5748" y1="447.98914" x2="283.74872" y2="297.54422"><stop offset="0" stop-color="#FA563D"/><stop offset="1" stop-color="#FF874D"/></linearGradient></defs><path fill="url(#gradient_2)" d="M241.323 413.979C217.503 375.783 232.766 310.728 274.359 291.182C280.386 288.349 285.56 287.833 291.938 289.068C295.507 291.148 296.28 291.995 298.259 295.626C299.767 302.186 299.351 307.65 299.8 314.259C301.043 332.542 305.234 346.113 321.718 355.564C333.953 358.836 346.234 361.049 353.194 372.897C358.114 381.27 357.981 394.691 355.188 403.724C350.035 419.72 339.444 434.891 324.424 442.928C310.816 450.209 296.158 451.207 281.499 446.841C267.291 442.608 247.443 427.659 241.323 413.979Z"/><path fill="#FEB272" d="M241.323 413.979C217.503 375.783 232.766 310.728 274.359 291.182C280.386 288.349 285.56 287.833 291.938 289.068C295.507 291.148 296.28 291.995 298.259 295.626C295.353 296.175 294.724 296.23 291.774 296.097C278.805 296.723 268.87 304.248 260.337 313.557C244.023 331.356 235.47 356.961 236.587 380.98C237.067 391.311 239.48 399.057 242.487 408.841L241.548 408.786C241.203 408.772 240.859 408.76 240.514 408.75C239.895 411.074 241.163 411.066 241.323 413.979Z"/><path fill="#FD6F45" d="M291.938 289.068C295.507 291.148 296.28 291.995 298.259 295.626C295.353 296.175 294.724 296.23 291.774 296.097C292.663 293.404 292.317 291.826 291.938 289.068Z"/><path fill="#FA5E40" d="M291.774 296.097C294.724 296.23 295.353 296.175 298.259 295.626C299.767 302.186 299.351 307.65 299.8 314.259C301.043 332.542 305.234 346.113 321.718 355.564C319.941 355.971 317.434 356.34 315.711 355.64C292.212 346.088 286.054 318.23 291.774 296.097Z"/><path fill="#FEB272" d="M262.105 322.883C272.894 326.177 267.711 352.856 263.674 360.427C261.716 364.099 260.01 365.621 256.105 366.694C242.082 355.529 249.261 331.861 262.105 322.883Z"/><path fill="#FE9C5C" d="M328.09 366.006C335.144 367.099 341.601 369.375 338.461 377.531C336.992 377.061 335.562 376.476 334.185 375.783C330.504 373.923 325.347 370.514 328.09 366.006Z"/><path fill="#FE9C5C" d="M259.955 373.195C265.23 375.186 264.085 378.545 262.323 382.779C257.378 380.465 257.99 377.337 259.955 373.195Z"/><path fill="#FD6F45" d="M725.887 390.329C733.57 380.275 737.943 373.338 741.589 361.054C743.45 354.783 745.447 341.631 752.948 340.428C758.252 339.7 765.169 342.831 769.149 346.139C784.787 359.132 793.89 378.258 796.321 398.005C796.485 399.382 796.606 400.762 796.685 402.146C797.042 406.419 797.384 417.29 796.178 421.084C795.318 436.681 784.796 457.371 774.249 468.629C751.549 492.861 708.897 504.169 682.806 478.685C668.565 466.705 657.132 431.031 668.997 414.665C683.732 394.34 704.721 412.124 725.887 390.329Z"/><path fill="#FEB272" d="M725.887 390.329C733.57 380.275 737.943 373.338 741.589 361.054C743.45 354.783 745.447 341.631 752.948 340.428C758.252 339.7 765.169 342.831 769.149 346.139C784.787 359.132 793.89 378.258 796.321 398.005C796.485 399.382 796.606 400.762 796.685 402.146C795.137 402.203 795.142 402.296 793.611 402.672C793.726 392.161 788.99 378.959 782.507 370.737C776.392 362.982 768.405 352.674 758.555 349.627C754.158 348.268 751.83 357.527 750.504 360.151C746.489 369.513 742.362 380.104 734.811 387.236C732.379 389.533 729.186 390.665 725.887 390.329Z"/><path fill="#FA5E40" d="M793.611 402.672C795.142 402.296 795.137 402.203 796.685 402.146C797.042 406.419 797.384 417.29 796.178 421.084C795.332 421.948 795.281 422.613 794.842 423.838C794.383 422.959 794.583 423.281 793.704 422.642C793.345 424.316 793.394 425.591 792.408 426.626L792.018 426.169L792.358 424.277C793.668 417.262 793.536 409.828 793.611 402.672Z"/><path fill="#FEB272" d="M771.449 383.814C779.481 384.667 781.09 396.345 780.597 402.706C779.923 411.403 777.217 418.27 770.619 424.115C764.03 426.574 762.236 417.984 762.103 413.35C761.798 402.687 764.245 391.92 771.449 383.814Z"/><path fill="#FE9C5C" d="M691.814 410.991C693.955 410.801 695.457 410.615 697.165 411.891C698.468 416.012 691.906 418.549 688.867 419.643C686.754 420.113 685.245 420.697 683.514 419.199C683.034 414.702 688.343 412.25 691.814 410.991Z"/><path fill="#FE9C5C" d="M760.878 430.2C762.653 430.809 763.434 431.504 764.054 433.303C763.787 436.577 762.677 437.344 760.273 439.719C758.607 439.317 757.972 438.915 757.262 437.348C757.13 434.281 758.987 432.494 760.878 430.2Z"/><path fill="#FA5E40" d="M319.855 313.489C322.37 303.474 327.371 300.63 336.593 305.353C346.257 311.872 353.009 323.676 354.826 335.106C357.437 344.387 354.963 354.219 352.424 363.12C336.755 347.971 327.896 356.384 314.042 342.123C320 330.629 318.455 325.748 319.855 313.489Z"/><path fill="#FD6F45" d="M336.593 305.353C346.257 311.872 353.009 323.676 354.826 335.106L354.184 335.729C352.855 335.721 351.941 335.042 351.402 333.818C346.883 323.556 342.531 314.716 334.13 306.726L336.593 305.353Z"/><path fill="#FEB272" d="M319.855 313.489C322.37 303.474 327.371 300.63 336.593 305.353L334.13 306.726C329.902 306.224 328.085 306.785 324.63 309.482C323.001 310.772 321.409 312.108 319.855 313.489Z"/><path fill="#EB4B37" d="M642.02 557.818C650.645 562.124 656.912 563.916 665.504 567.529C666.407 568.118 667.836 568.983 668.648 569.605C673.813 573.673 675.656 575.687 678.347 581.963C681.862 587.573 683.595 594.236 680.507 600.431C675.162 605.043 667.218 604.757 660.629 603.597C647.818 601.341 638.024 592.023 628.531 583.832C634.127 575.107 637.93 567.268 642.02 557.818Z"/><path fill="#FA5E40" d="M663.464 571.968C661.387 570.553 660.128 569.896 658.485 567.977C661.66 568.952 663.842 570.632 665.504 567.529C666.407 568.118 667.836 568.983 668.648 569.605C673.813 573.673 675.656 575.687 678.347 581.963C681.862 587.573 683.595 594.236 680.507 600.431C678.995 598.402 678.668 598.082 677.764 595.781L677.075 594.65C674.719 595.608 673.046 596.039 670.617 596.708C666.073 595.618 663.096 594.56 659.24 591.477C655.078 588.15 647.357 579.691 652.049 574.307C654.659 571.312 659.78 571.889 663.464 571.968Z"/><path fill="#FE9C5C" d="M668.648 569.605C673.813 573.673 675.656 575.687 678.347 581.963C681.862 587.573 683.595 594.236 680.507 600.431C678.995 598.402 678.668 598.082 677.764 595.781L677.075 594.65C674.754 585.489 672.66 582.418 666.595 575.113C665.129 573.348 663.949 572.396 664.178 570.304C665.677 569.938 667.12 569.798 668.648 569.605Z"/><path fill="#FD6F45" d="M678.347 581.963C681.862 587.573 683.595 594.236 680.507 600.431C678.995 598.402 678.668 598.082 677.764 595.781C680.344 592.221 678.189 586.256 678.347 581.963Z"/><defs><linearGradient id="gradient_3" gradientUnits="userSpaceOnUse" x1="710.91705" y1="394.95105" x2="683.35364" y2="369.95587"><stop offset="0" stop-color="#FC4937"/><stop offset="1" stop-color="#FF764D"/></linearGradient></defs><path fill="url(#gradient_3)" d="M692.059 359.304C702.481 350.81 721.001 344.7 717.815 365.637C714.862 376.51 713.496 380.952 715.829 392.204C706.324 398.183 696.241 396.487 685.662 398.349C680.959 399.177 677.647 400.599 673.406 402.735C673.453 388.295 674.434 380.462 683.168 368.51C685.513 364.773 688.751 362.152 692.059 359.304Z"/><path fill="#FE9C5C" d="M692.059 359.304C702.481 350.81 721.001 344.7 717.815 365.637C711.339 361.128 716.185 344.12 694.226 361.827L692.059 359.304Z"/><path fill="#FE9C5C" d="M692.059 359.304L694.226 361.827C692.827 363.375 684.593 373.229 683.597 373.717C683.323 371.869 683.442 370.255 683.168 368.51C685.513 364.773 688.751 362.152 692.059 359.304Z"/><defs><linearGradient id="gradient_4" gradientUnits="userSpaceOnUse" x1="634.5766" y1="499.74084" x2="639.47772" y2="464.72702"><stop offset="0" stop-color="#F04A35"/><stop offset="1" stop-color="#FF6C42"/></linearGradient></defs><path fill="url(#gradient_4)" d="M647.869 458.546L646.423 464.335C646.886 480.454 653.014 489.704 664.305 500.737C652.453 502.598 642.129 502.987 630.186 499.241C617.894 495.385 605.36 481.227 612.047 467.818C613.422 465.061 616.676 462.874 619.505 461.59C628.649 460.795 639.143 460.569 647.869 458.546Z"/><path fill="#FE9C5C" d="M647.869 458.546L646.423 464.335C640.57 465.264 627.27 467.981 621.967 465.618C620.512 464.969 620.042 463.103 619.505 461.59C628.649 460.795 639.143 460.569 647.869 458.546Z"/><defs><linearGradient id="gradient_5" gradientUnits="userSpaceOnUse" x1="356.07425" y1="475.66235" x2="363.30301" y2="440.16351"><stop offset="0" stop-color="#EA4131"/><stop offset="1" stop-color="#FF653F"/></linearGradient></defs><path fill="url(#gradient_5)" d="M362.024 438.167C362.836 435.792 362.275 436.286 364.007 435.13C368.876 434.364 374.404 438.842 377.681 442.14C386.784 454.576 382.94 466.767 368.805 472.356C357.564 476.801 344.533 475.572 333.641 470.884C344.68 465.239 359.932 450.763 362.024 438.167Z"/><path fill="#FD6F45" d="M362.024 438.167C362.836 435.792 362.275 436.286 364.007 435.13C368.876 434.364 374.404 438.842 377.681 442.14C376.439 443.228 376.091 443.912 374.282 443.839C369.876 443.662 365.131 441.161 362.024 438.167Z"/><defs><linearGradient id="gradient_6" gradientUnits="userSpaceOnUse" x1="642.9057" y1="547.47491" x2="668.87933" y2="535.72791"><stop offset="0" stop-color="#E43F33"/><stop offset="1" stop-color="#FE5B3B"/></linearGradient></defs><path fill="url(#gradient_6)" d="M650.297 515.896C656.33 518.761 659.935 521.942 664.632 526.547C672.645 534.224 682.322 545.093 680.809 557.025C668.884 566.592 654.845 558.318 643.642 551.803C647.586 541.337 649.148 527.064 650.297 515.896Z"/><path fill="#FD6F45" d="M680.809 557.025C676.602 555.221 674.133 546.168 671.362 542.225C668.937 538.774 662.014 533.108 661.619 529.289C662.155 527.875 663.305 527.404 664.632 526.547C672.645 534.224 682.322 545.093 680.809 557.025Z"/><path fill="#EB4B37" d="M350.828 424.505C352.221 422.647 351.643 422.835 353.476 422.257C355.193 422.938 355.638 423.826 356.344 425.514C357.386 427.966 358.025 430.57 358.235 433.225C356.281 443.124 353.995 449.332 346.254 456.413C342.27 460.123 337.455 462.565 332.914 465.473C330.062 467.299 328.883 470.04 325.009 469.656C315.959 468.759 308.841 462.256 303.123 455.744C325.147 452.008 337.525 442.251 350.828 424.505Z"/><path fill="#FD6F45" d="M350.828 424.505C352.221 422.647 351.643 422.835 353.476 422.257C355.193 422.938 355.638 423.826 356.344 425.514C357.386 427.966 358.025 430.57 358.235 433.225C356.35 434.45 355.269 435.609 353.064 435.037C351.943 433.369 352.815 428.676 350.828 424.505Z"/><path fill="#EB4B37" d="M652.078 464.042C653.274 459.947 656.015 452.903 660.528 451.737C662.158 452.209 661.462 451.774 662.571 453.254C664.445 459.982 666.99 464.219 670.266 470.342C677.972 480.895 682.038 486.644 693.551 493.282C674.312 503.651 664.671 501.305 655.037 481.06C654.824 480.61 654.614 480.159 654.408 479.706C651.998 473.491 650.981 470.721 652.078 464.042Z"/><path fill="#FD6F45" d="M652.078 464.042C653.274 459.947 656.015 452.903 660.528 451.737C662.158 452.209 661.462 451.774 662.571 453.254C664.445 459.982 666.99 464.219 670.266 470.342C665.281 475.624 661.113 477.16 654.408 479.706C651.998 473.491 650.981 470.721 652.078 464.042Z"/><path fill="#FE9C5C" d="M652.078 464.042C653.274 459.947 656.015 452.903 660.528 451.737C662.158 452.209 661.462 451.774 662.571 453.254C660.209 456.997 657.741 461.806 653.977 463.927L652.078 464.042Z"/><path fill="#EB4B37" d="M637.456 209.098L637.824 209.518C636.18 211.31 630.323 213.661 627.889 215.241C617.071 222.265 607.933 231.68 600.905 242.479C598.895 245.567 597.75 248.924 595.442 251.895C593.963 252.131 593.865 251.743 592.221 251.01L590.776 249.938C590.361 248.501 590.735 247.097 591.511 245.854C600.683 231.155 621.226 214.027 637.456 209.098Z"/><path fill="#EB4B37" d="M404.732 202.101C413.018 204.127 425.351 213.606 431.232 219.67C435.879 224.46 447.161 237.182 448.36 243.703L447.7 244.509L442.736 246.929C436.685 232.14 428.628 219.45 415.822 209.614C412.291 206.902 407.885 205.06 404.732 202.101Z"/><path fill="#FEFEFD" d="M363.81 395.924C364.524 397.42 363.426 421.504 363.277 424.682L362.688 424.936L360.955 421.948C359.818 420.164 358.539 418.333 357.351 416.57C360.786 408.438 361.781 404.401 363.81 395.924Z"/><path fill="#FE9C5C" d="M408.358 496.991C450.931 520.611 500.394 520.733 546.673 509.499C548.599 513.319 551.49 520.21 552.038 524.427C550.502 526.907 548.767 530.474 547.951 533.283C541.197 546.547 509.201 558.589 495.659 552.17C493.946 551.359 485.015 547.142 484.221 548.294C484.771 549.187 485.336 550.07 485.915 550.944C456.685 528.364 438.982 520.289 401.326 519.38C402.498 511.05 404.385 504.5 408.358 496.991Z"/><path fill="#FEB272" d="M370.898 404.632C371.16 394.76 372.727 381.245 374.067 371.5C379.779 329.969 395.056 288.526 429.725 262.459C458.378 240.916 497.728 234.356 532.662 239.057C534.674 240.122 536.912 240.969 538.051 242.803C537.937 243.549 538.051 244.009 537.42 244.206C528.352 246.406 516.096 244.9 506.498 244.988C446.521 245.533 402.45 286.603 386.876 342.539C381.5 361.848 376.731 381.868 373.424 401.726C373.112 403.598 372.561 404 370.898 404.632Z"/><path fill="#FD6F45" d="M610.212 584.557C622.586 568.766 629.243 559.353 634.384 539.149C635.751 533.777 636.529 528.44 637.965 523.178C638.329 521.844 638.725 521.936 639.735 521.518L640.81 522.137C642.016 524.216 642.014 524.594 642.19 527.012C638.347 550.463 632.199 569.595 615.539 587.362L610.212 584.557Z"/><path fill="#FD6F45" d="M547.951 533.283C548.767 530.474 550.502 526.907 552.038 524.427C552.53 526.567 553.659 530.138 553.1 532.058C551.535 533.615 550.708 533.141 547.951 533.283Z"/><path fill="#FE9C5C" d="M471.861 456.214C479.669 455.653 490.324 457.316 497.649 459.936C520.964 468.272 534.717 483.297 545.387 504.801C527.825 511.932 502.247 512.958 483.375 512.541C457.015 512.507 432.96 505.766 409.9 493.151C426.755 468.834 441.86 458.161 471.861 456.214Z"/><path fill="#3F2729" d="M567.304 314.539C587.9 314.081 587.942 345.374 575.193 354.942C573.539 356.183 571.489 356.829 569.557 357.5C549.75 357.232 549.674 330.677 559.847 319.641C562.402 316.868 564.035 316.075 567.304 314.539Z"/><path fill="#FEFEFD" d="M567.961 317.89C575.235 319.176 576.337 322.924 570.46 327.756C567.174 327.564 564.992 327.363 563.792 324.018C564.136 320.697 565.351 320.078 567.961 317.89Z"/><path fill="#3F2729" d="M438.645 308.511C456.036 307.875 459.206 322.958 454.75 337.017C452.875 342.935 449.275 347.065 443.675 349.771C422.516 352.141 419.943 320.263 438.645 308.511Z"/><path fill="#FEFEFD" d="M440.327 311.933C447.746 311.784 449.536 315.482 443.912 320.808C441.536 320.907 440.06 320.759 438.168 319.413C436.13 315.914 437.796 314.487 440.327 311.933Z"/><path fill="#662122" d="M479.491 341.223C485.565 342.123 488.803 348.987 494.778 349.805C499.184 350.407 509.067 351.209 513.012 348.821C516.582 346.659 520.411 341.422 525.394 342.434C529.358 346.286 523.923 356.254 521.507 360.225C503.465 387.79 469.189 360.582 479.491 341.223Z"/><path fill="#EB4B37" d="M490.46 363.133C480.686 357.254 489.645 348.869 503.034 358.569C506.424 358.736 512.475 358.973 512.322 363.35C508.337 369.686 497.185 367.745 491.775 364.056C491.333 363.753 490.895 363.445 490.46 363.133Z"/><path fill="#911F25" d="M490.46 363.133C480.686 357.254 489.645 348.869 503.034 358.569C497.475 359.167 494.753 359.177 490.46 363.133Z"/><path fill="#FEB272" d="M467.346 258.628C475.417 258.141 477.367 262.473 473.597 269.262C466.756 281.579 455.346 287.886 442.278 291.936C428.899 294.21 431.777 284.113 437.118 276.703C444.601 266.323 454.89 260.739 467.346 258.628Z"/><path fill="#FDA68F" d="M589.799 355.656C611.867 354.8 624.317 374.459 595.904 378.963C571.397 379.274 561.518 359.844 589.799 355.656Z"/><path fill="#FDA68F" d="M406.2 345.092C411.424 344.886 417.692 344.802 422.198 347.552C437.219 356.72 430.004 364.39 417.137 367.479C411.042 367.779 405.072 368.024 399.483 364.937C395.364 362.784 389.06 357.166 392.456 352.006C395.19 347.854 401.587 346.073 406.2 345.092Z"/><path fill="#EB4B37" d="M635.107 394.746C636.328 394.294 637.688 394.882 638.195 396.08C638.703 397.278 638.18 398.664 637.006 399.227C636.197 399.615 635.24 399.527 634.515 398.998C633.791 398.468 633.416 397.584 633.54 396.695C633.663 395.806 634.266 395.057 635.107 394.746Z"/><path fill="#386B8B" d="M804.976 521.079C811.877 510.498 820.833 498.831 834.76 507.944C841.669 512.465 843.72 517.887 848.761 523.597C861.182 526.982 871.291 525.027 872.15 540.955C874.581 541.824 878.405 543.298 880.798 543.904C902.409 552.692 916.967 567.275 926.21 588.898C934.845 608.871 934.995 631.495 926.625 651.581C918.087 672.657 904.525 684.76 884.791 694.857C875.702 713.112 858.035 725.351 839.782 733.112C846.523 745.945 834.73 752.998 824.389 757.745C803.943 767.13 780.682 772.547 758.684 776.914C745.057 779.735 731.353 782.167 717.588 784.206C680.019 789.415 640.389 791.633 601.641 792.812C493.831 796.093 380.236 793.895 275.866 763.822C264.995 760.689 243.239 751.986 243.164 738.818C206.266 739.995 170.638 730.42 147.08 700.575C145.527 698.608 142.892 695.124 141.044 693.632L140.828 692.651L140.326 692.351C139.026 688.333 136.773 684.157 135.124 680.187C122.973 650.942 131.186 612.869 153.329 590.511C170.664 573.008 191.228 566.293 215.291 565.947C223.347 541.123 237.993 528.379 260.437 515.874L268.628 512.356C284.336 505.118 316.495 503.83 333.359 508.304L328.889 514.006C325.492 512.563 315.02 511.731 311.061 511.476C283.078 512.895 255.954 519.787 236.422 541.386C230.201 548.238 225.497 556.326 222.619 565.122L220.988 569.897C227.016 572.055 233.458 574.672 236.27 580.921C209.85 560.386 170.302 578.988 152.289 602.64C139.75 619.036 134.306 639.775 137.175 660.216C140.123 681.079 149.421 696.585 166.277 709.167C172.68 713.969 179.589 718.056 186.881 721.355C215.996 732.747 238.101 735.106 268.331 726.045C269.937 727.204 271.645 728.541 273.396 729.424L275.044 730.793C279.424 730.261 294.7 737.855 299.705 739.455C316.11 744.698 333.748 749.657 351.074 746.573C354.593 745.947 360.753 745.025 362.398 741.467C361.809 740.154 361.209 739.97 359.649 739.287C360.192 736.691 364.158 733.903 366.316 731.187C366.273 726.28 367.404 719.423 368.146 714.496C368.139 712.898 367.825 712.52 368.613 711.613C369.914 713.384 370.371 715.153 371.109 717.235C373.877 730.878 390.918 749.422 402.355 756.955C417.869 767.174 433.823 772.252 451.533 776.946C496.112 785.287 526.739 784.594 570.019 769.782C567.109 767.368 562.852 764.034 562.025 760.285C562.584 760.065 566.443 764.169 567.421 764.813C599.598 785.982 631.51 781.522 660.925 759.766C668.222 762.929 672.505 764.701 680.339 766.627C721.269 775 766.356 765.975 791.15 729.648C799.084 718.023 801.216 706.626 804.224 693.208C805.72 708.247 802.988 718.218 796.836 731.424C909.443 734.349 916.472 600.147 816.795 571.994C813.482 571.059 809.314 570.66 805.864 570.224L802.436 569.518C802.564 566.994 803.247 564.818 804.108 562.472C804.622 543.679 781.629 543.374 767.816 541.517C767.167 537.645 766.201 535.834 764.612 532.241C769.259 530.076 770.919 527.148 774.715 524.365C782.752 518.472 795.626 520.239 804.976 521.079Z"/><defs><linearGradient id="gradient_7" gradientUnits="userSpaceOnUse" x1="918.21613" y1="672.66125" x2="807.61621" y2="503.34753"><stop offset="0" stop-color="#ABDDF1"/><stop offset="1" stop-color="#D9F5FB"/></linearGradient></defs><path fill="url(#gradient_7)" d="M804.976 521.079C811.877 510.498 820.833 498.831 834.76 507.944C841.669 512.465 843.72 517.887 848.761 523.597C861.182 526.982 871.291 525.027 872.15 540.955C874.581 541.824 878.405 543.298 880.798 543.904C902.409 552.692 916.967 567.275 926.21 588.898C934.845 608.871 934.995 631.495 926.625 651.581C918.087 672.657 904.525 684.76 884.791 694.857C885.608 692.577 886.768 690.024 887.721 687.739C898.876 661.002 894.845 631.535 878.402 607.615C864.809 588.01 844.84 573.725 821.896 567.192C816.993 565.78 811.965 565.291 806.98 564.33C805.117 563.97 804.941 563.686 804.108 562.472C804.622 543.679 781.629 543.374 767.816 541.517C767.167 537.645 766.201 535.834 764.612 532.241C769.259 530.076 770.919 527.148 774.715 524.365C782.752 518.472 795.626 520.239 804.976 521.079Z"/><path fill="#C8DBE7" d="M839.782 733.112C846.523 745.945 834.73 752.998 824.389 757.745C803.943 767.13 780.682 772.547 758.684 776.914C745.057 779.735 731.353 782.167 717.588 784.206C680.019 789.415 640.389 791.633 601.641 792.812C493.831 796.093 380.236 793.895 275.866 763.822C264.995 760.689 243.239 751.986 243.164 738.818C250.41 738.204 261.164 736.391 267.934 734.341C273.908 738.72 279.824 742.764 286.314 746.35C315.339 762.389 360.777 768.229 392.659 758.996C400.631 764.312 409.231 770.014 417.951 773.889C466.885 795.636 524.071 794.596 573.628 776.937C585.208 782.898 598.002 786.118 611.023 786.35C628.273 786.596 648.784 780.846 661.374 768.48C677.961 776.225 699.206 778.541 717.378 777.134C739.43 775.427 761.828 768.8 779.041 754.411C784.42 749.915 789.16 744.28 793.72 738.949C807.687 740.708 826.534 738.101 839.782 733.112Z"/><path fill="#C0E6F3" d="M368.146 714.496C371.248 729.591 378.02 740.809 387.593 752.575C355.526 756.645 328.514 756.68 297.71 743.36C289.011 739.599 282.78 736.597 275.044 730.793C279.424 730.261 294.7 737.855 299.705 739.455C316.11 744.698 333.748 749.657 351.074 746.573C354.593 745.947 360.753 745.025 362.398 741.467C361.809 740.154 361.209 739.97 359.649 739.287C360.192 736.691 364.158 733.903 366.316 731.187C366.273 726.28 367.404 719.423 368.146 714.496Z"/><path fill="#C8DBE7" d="M148.336 636.513C150.777 646.482 153.569 653.751 160.808 661.237C174.162 675.047 194.401 681.257 213.247 681.33C226.77 681.382 239.096 678.505 248.918 668.858C246.944 667.188 243.066 664.684 244.725 661.98C247.485 660.835 250.255 662.199 253.084 663.143L258.585 657.698C262.512 679.05 280.535 686.519 300.724 686.166C309.792 686.007 315.645 682.983 321.79 676.319C319.804 672.144 313.418 657.9 316.319 653.712C318.088 654.69 321.308 659.315 322.991 661.033C342.132 680.579 366.044 681.05 389.69 670.042C376.824 718.207 433.654 734.326 470.386 737.124C494.796 738.984 522.102 735.073 541.107 718.436C538.251 715.212 536.592 713.029 534.284 709.453C539.289 709.663 546.102 710.977 550.967 710.807C557.936 710.563 565.727 709.525 572.782 708.886C569.249 710.956 566.97 712.361 563.985 715.147C585.247 732.755 627.387 729.299 647.253 710.891C653.466 705.134 655.88 698.952 657.912 690.997C658.836 693.008 659.786 695.007 660.761 696.993C666.122 707.8 671.73 712.828 683.425 716.608C705.585 723.143 728.646 720.061 749.33 710.199C772.02 699.38 785.941 676.063 774.223 651.853C773.596 650.558 773.464 650.691 773.151 649.249L773.881 649.516C784.556 662.361 789.797 678.865 788.49 695.516C784.949 737.091 739.088 760.173 701.413 756.271C692.214 755.318 676.709 750.757 669.496 744.634C667.935 743.309 669.794 730.875 670.079 728.316C665.072 734.506 660.191 743.229 654.741 748.601C632.082 770.935 588.242 770.232 565.244 748.782C561.088 744.906 557.592 739.826 553.47 735.747L552.96 735.247C554.27 742.024 556.341 747.826 558.131 754.445C549.693 759.662 528.778 765.112 519.207 766.432C471.841 772.965 407.559 763.374 381.8 718.339C379.7 714.698 377.911 710.887 376.451 706.947C374.96 702.831 373.784 692.837 371.212 690.959L370.497 691.181C367.583 696.102 372.287 711.298 371.109 717.235C370.371 715.153 369.914 713.384 368.613 711.613C367.825 712.52 368.139 712.898 368.146 714.496C367.404 719.423 366.273 726.28 366.316 731.187C364.158 733.903 360.192 736.691 359.649 739.287C359.238 739.477 358.706 739.755 358.252 739.785C322.268 742.176 278.899 729.879 259.107 697.531C258.009 695.737 255.414 690.549 253.763 689.619L252.919 690.149C251.247 694.873 255.94 706.729 257.96 711.216C227.836 725.359 182.473 716.148 160.622 690.903C158.673 688.652 150.533 675.121 149.154 672.134C144.89 662.893 147.123 646.071 148.336 636.513Z"/><path fill="#C0E6F3" d="M339.116 678.164C345.281 678.417 351.295 680.294 357.888 680.72C357.674 682.065 357.445 683.331 357.321 684.689C349.772 683.879 345.287 682.605 339.116 678.164Z"/><path fill="#8DACC6" d="M357.888 680.72C359.772 680.835 360.719 680.679 362.179 681.845L362.522 682.968C360.978 685.08 359.78 684.946 357.321 684.689C357.445 683.331 357.674 682.065 357.888 680.72Z"/><path fill="#386B8B" d="M401.326 519.38C438.982 520.289 456.685 528.364 485.915 550.944C500.227 565.988 504.593 571.965 513.829 590.449C533.16 577.102 562.212 572.953 585.027 577.118C593.652 578.739 602.09 581.232 610.212 584.557L615.539 587.362C618.054 588.993 620.509 590.483 622.811 592.403C635.323 600.795 633.322 601.026 642.857 610.674C644.483 613.268 644.962 613.776 647.151 615.94C648.577 612.946 648.502 610.379 648.526 607.18C650.107 607.791 651.706 608.354 653.321 608.865C663.085 611.959 679.422 614.501 685.818 603.989C687.221 601.684 687.847 599.224 688.554 596.649C691.528 597.924 698.528 601.022 701.404 601.654C702.796 602.659 704.547 603.838 705.746 605C711.424 603.737 714.38 602.934 719.583 600.383C723.514 600.437 728.57 600.356 732.405 600.609C739.315 602.026 748.212 605.788 754.882 605.278C769.887 611.954 784.205 620.87 793.326 635.145L792.503 635.495C780.495 620.189 762.752 612.21 744.008 608.739C728.026 605.779 713.607 607.856 698.643 613.799C690.482 617.603 685.046 621.158 678.943 627.886C686.396 632.006 689.149 633.632 694.763 639.957L691.585 640.157C674.826 631.455 668.223 630.621 649.366 633.242L645.877 627.583C631.198 602.384 614.372 589.126 585.116 584.435C552.656 580.451 530.683 584.869 503.266 604.874C497.825 608.844 488.168 618.27 484.512 623.916C485.207 614.889 501.752 599.918 508.696 594.483C503.918 585.7 498.781 576.913 492.758 568.931C480.485 552.665 457.648 536.715 437.748 532.015C430.497 530.074 423.196 528.031 415.695 527.169C387.776 523.959 357.955 530.967 333.715 544.904C315.704 555.26 298.727 571.31 289.206 589.863L288.767 588.254L289.945 585.542C291.691 583.117 295.404 575.521 297.507 572.279C305.886 559.364 314.188 551.607 326.324 542.478L332.674 538.064C341.88 533.302 348.024 530.301 357.701 526.579C360.024 525.666 361.577 525.364 363.985 524.811C375.417 521.205 389.379 519.796 401.326 519.38Z"/><path fill="#EB4B37" d="M688.554 596.649C691.528 597.924 698.528 601.022 701.404 601.654C702.796 602.659 704.547 603.838 705.746 605C689.409 609.661 684.418 613.822 672.545 625.917C666.927 625.191 657.518 625.151 651.884 625.91C650.63 622.196 649.314 619.252 647.151 615.94C648.577 612.946 648.502 610.379 648.526 607.18C650.107 607.791 651.706 608.354 653.321 608.865C663.085 611.959 679.422 614.501 685.818 603.989C687.221 601.684 687.847 599.224 688.554 596.649Z"/><path fill="#C8DBE7" d="M437.748 532.015C457.648 536.715 480.485 552.665 492.758 568.931C498.781 576.913 503.918 585.7 508.696 594.483C501.752 599.918 485.207 614.889 484.512 623.916C483.424 626.212 482.33 628.925 480.746 630.842C477.535 620.559 450.107 625.169 442.467 626.489C451.027 621.659 458.365 619.444 467.251 615.82C472.225 613.791 477.85 605.313 479.037 599.743C483.175 579.689 470.81 558.029 455.443 545.861C451.51 542.747 439.609 535.831 437.748 532.015Z"/><path fill="#C8DBE7" d="M664.868 749.984C671.461 754.743 676.921 757.019 684.315 759.915L683.99 760.514C682.219 760.421 681.273 760.147 679.861 761.162C679.029 762.867 679.813 764.759 680.339 766.627C672.505 764.701 668.222 762.929 660.925 759.766C631.51 781.522 599.598 785.982 567.421 764.813C566.443 764.169 562.584 760.065 562.025 760.285C562.852 764.034 567.109 767.368 570.019 769.782C526.739 784.594 496.112 785.287 451.533 776.946C452.248 775.58 452.404 775.154 452.904 773.75L452.118 772.382C455.135 770.144 468.845 774.823 473.02 775.227C497.619 777.602 521.789 775.135 544.948 766.168C550.343 764.08 555.361 760.798 560.89 759.011C561.884 758.69 572.376 764.92 574.011 765.301C595.258 774.95 617.676 773.725 639.831 768.531C649.524 766.258 659.787 758.675 664.868 749.984Z"/><path fill="#C8DBE7" d="M311.061 511.476C315.02 511.731 325.492 512.563 328.889 514.006C321.026 524.723 316.318 531.144 326.324 542.478C314.188 551.607 305.886 559.364 297.507 572.279C295.404 575.521 291.691 583.117 289.945 585.542C283.104 579.529 272.327 583.074 264.55 585.227C275.657 576.682 284.069 571.369 292.083 559.229C300.511 546.46 310.982 541.386 299.397 526.366C300.593 525.526 312.319 513.78 313.311 512.421L311.061 511.476Z"/><path fill="#C8DBE7" d="M585.116 584.435C614.372 589.126 631.198 602.384 645.877 627.583C640.075 631.415 634.181 631.353 629.831 638.277C628.007 640.329 627.172 641.295 624.98 643.06C622.798 642.077 618.36 643.051 615.881 643.427C633.129 625.238 619.712 605.957 602.395 594.764C598.326 592.133 587.631 587.91 585.116 584.435Z"/><path fill="#C0E6F3" d="M186.881 721.355C193.887 719.189 201.408 722.658 208.145 723.311C225.255 724.967 245.254 724.762 259.577 714.404C262.842 718.066 272.242 725.898 273.396 729.424C271.645 728.541 269.937 727.204 268.331 726.045C238.101 735.106 215.996 732.747 186.881 721.355Z"/><path fill="#C8DBE7" d="M698.643 613.799C699.368 615.003 700.195 615.815 699.565 617.245C697.95 620.909 693.8 623.992 691.441 627.244C696.642 632.78 701.944 638.218 707.346 643.557C704.379 643.47 701.088 643.462 698.163 643.137C696.95 642.168 695.872 641.047 694.763 639.957C689.149 633.632 686.396 632.006 678.943 627.886C685.046 621.158 690.482 617.603 698.643 613.799Z"/><path fill="#C8DBE7" d="M222.619 565.122L223.249 565.475C236.346 572.705 238.169 573.051 240.605 588.914C239.243 586.247 237.885 583.43 236.27 580.921C233.458 574.672 227.016 572.055 220.988 569.897L222.619 565.122Z"/><path fill="#5F8AA9" d="M645.877 627.583L649.366 633.242C642.93 634.786 639.678 635.962 633.682 638.787L629.831 638.277C634.181 631.353 640.075 631.415 645.877 627.583Z"/><path fill="#C8DBE7" d="M802.436 569.518L805.864 570.224C804.801 572.824 804.726 574.295 805.55 576.975C804.317 577.713 801.3 576.947 799.457 576.885C801.006 573.838 801.578 572.847 802.436 569.518Z"/><path fill="#C0E6F3" d="M629.831 638.277L633.682 638.787C630.377 641.084 628.166 642.659 625.199 645.364C623.805 646.634 620.911 649.674 619.699 650.543C621.526 647.759 622.94 645.692 624.98 643.06C627.172 641.295 628.007 640.329 629.831 638.277Z"/><path fill="#8DACC6" d="M694.763 639.957C695.872 641.047 696.95 642.168 698.163 643.137C699.57 645.466 700.891 648.212 702.143 650.655C698.72 647.061 695.199 643.56 691.585 640.157L694.763 639.957Z"/><path fill="#C0E6F3" d="M289.206 589.863L284.952 601.46C284.58 598.654 287.739 591.153 288.767 588.254L289.206 589.863Z"/><path fill="#C8DBE7" d="M684.315 759.915C688.262 761.05 692.601 762.042 696.039 764.217C694.078 764.202 686.259 761.301 683.99 760.514L684.315 759.915Z"/><path fill="#8DACC6" d="M793.326 635.145C794.999 637.429 795.706 638.095 796.899 640.614C795.395 640.089 793.481 636.917 792.503 635.495L793.326 635.145Z"/><path fill="#C8DBE7" d="M850.676 596.903C854.229 598.415 867.981 617.041 867.697 620.567C866.786 620.165 865.899 620.064 864.912 620.063C859.278 620.058 864.029 615.759 862.058 612.048C859.104 606.486 853.946 602.227 850.676 596.903Z"/><path fill="#FEFEFD" d="M802.847 634.606C806.155 634.13 811.011 634.117 813.194 637.058C809.51 637.675 805.175 637.828 802.847 634.606Z"/><path fill="#EDF5F4" fill-opacity="0.75686276" d="M157.677 438.162L159.041 438.659L159.908 437.778L161.554 438.108C162.757 437.294 164.506 432.88 165.636 431.007C170.392 430.442 172.171 426.542 176.215 422.715C177.135 423.444 176.907 423.288 178.017 423.872C190.487 414.651 205.974 413.508 219.564 407.051C222.94 405.446 224.274 400.764 225.971 400.186L226.773 400.722C226.5 401.956 225.53 402 225.691 403.386C227.162 402.804 226.513 402.726 227.721 403.209C228.758 405.973 232.751 414.87 234.481 416.934L235.225 416.625C250.87 440.373 266.09 452.02 294.42 456.012C299.792 462.147 303.861 466.814 311.081 471.007C312.922 472.076 315.831 473.356 317.312 474.265C320.152 477.073 324.751 476.422 328.368 478.817C326.999 482.515 312.404 484.686 308.464 486.241C304.483 487.814 300.219 489.774 296.129 491.165C288.619 494.756 280.845 504.063 271.21 504.05C272.461 499.182 281.861 489.492 286.892 486.534C289.778 484.871 292.862 483.577 296.072 482.684C300.056 481.54 316.181 478.71 317.819 476.866C315.575 475.971 294.291 481.791 290.639 483.335C281.476 487.211 274.904 495.199 269.541 503.297C269.365 503.563 266.736 503.703 266.346 503.718L266.064 504.118L268.967 504.783L268.766 505.383C264.19 507.134 263.757 502.652 260.433 503.976L260.151 503.918C256.268 496.85 235.107 494.276 230.998 499.5C228.657 497.547 226.961 494.286 224.758 492.677C210.684 482.397 185.823 483.239 176.446 499.565C173.06 505.46 172.037 503.529 166.26 503.452C166.369 504.313 166.36 503.956 167.283 504.823C143.942 510.092 151.53 526.109 138.384 533.181L137.578 532.081L137.071 532.187L136.72 534.182L136.176 534.402C133.717 531.05 135.255 505.262 133.035 504.604C132.7 500.507 133.54 494.618 134.163 490.527C137.182 470.728 145.323 453.89 157.677 438.162ZM267.359 480.012C268.481 477.784 269.021 477.231 268.769 474.885C267.373 472.596 266.876 472.769 264.288 472.91C262.275 474.639 262.382 474.05 261.599 476.23C262.297 479.429 264.383 479.747 267.359 480.012ZM230.594 464.48C233.031 461.568 235.959 457.354 229.985 456.203C228.337 457.926 227.671 458.308 227.162 460.519C227.603 463.047 228.369 463.372 230.594 464.48ZM209.26 471.894C210.342 470.348 210.865 469.883 211.052 467.994C210.449 466.513 210.3 466.29 208.644 465.616C207.78 467.184 206.934 468.257 206.993 470.002C207.987 471.658 207.32 470.978 209.26 471.894Z"/><path fill="#FEFEFD" fill-opacity="0.81176472" d="M264.288 472.91C266.876 472.769 267.373 472.596 268.769 474.885C269.021 477.231 268.481 477.784 267.359 480.012C264.383 479.747 262.297 479.429 261.599 476.23C262.382 474.05 262.275 474.639 264.288 472.91Z"/><path fill="#FEB272" fill-opacity="0.73333335" d="M229.985 456.203C235.959 457.354 233.031 461.568 230.594 464.48C228.369 463.372 227.603 463.047 227.162 460.519C227.671 458.308 228.337 457.926 229.985 456.203Z"/><path fill="#FEFEFD" fill-opacity="0.7764706" d="M208.644 465.616C210.3 466.29 210.449 466.513 211.052 467.994C210.865 469.883 210.342 470.348 209.26 471.894C207.32 470.978 207.987 471.658 206.993 470.002C206.934 468.257 207.78 467.184 208.644 465.616Z"/><path fill="#C0E6F3" fill-opacity="0.98039216" d="M178.154 511.777C185.549 493.02 202.433 488.601 219.066 498.286C221.731 500.704 223.707 502.957 226.108 505.631C234.788 504.014 245.237 502.35 253.093 507.344C257.747 510.303 259.252 514.92 260.437 515.874C237.993 528.379 223.347 541.123 215.291 565.947C191.228 566.293 170.664 573.008 153.329 590.511C131.186 612.869 122.973 650.942 135.124 680.187C136.773 684.157 139.026 688.333 140.326 692.351L140.828 692.651L141.044 693.632C126.398 690.016 108.578 670.719 101.587 657.909C91.0662 638.631 89.4758 614.681 95.4135 593.738C101.616 571.141 116.683 552.008 137.195 540.68C142.399 538.534 147.357 535.995 152.687 534.21C153.676 516.579 162.181 512.918 178.154 511.777Z"/><defs><linearGradient id="gradient_8" gradientUnits="userSpaceOnUse" x1="312.13107" y1="476.38571" x2="307.33469" y2="515.78815"><stop offset="0" stop-color="#EDF3F3" stop-opacity="0.83529413"/><stop offset="1" stop-color="#F0F5F6" stop-opacity="0.97254902"/></linearGradient></defs><path fill="url(#gradient_8)" d="M317.312 474.265C331.686 478.582 341.781 480.862 356.608 480.543C356.492 484.224 356.452 488.303 356.079 491.926C348.058 495.636 339.731 502.133 333.359 508.304C316.495 503.83 284.336 505.118 268.628 512.356C265.53 509.527 263.885 506.926 260.433 503.976C263.757 502.652 264.19 507.134 268.766 505.383L268.967 504.783L266.064 504.118L266.346 503.718C266.736 503.703 269.365 503.563 269.541 503.297C274.904 495.199 281.476 487.211 290.639 483.335C294.291 481.791 315.575 475.971 317.819 476.866C316.181 478.71 300.056 481.54 296.072 482.684C292.862 483.577 289.778 484.871 286.892 486.534C281.861 489.492 272.461 499.182 271.21 504.05C280.845 504.063 288.619 494.756 296.129 491.165C300.219 489.774 304.483 487.814 308.464 486.241C312.404 484.686 326.999 482.515 328.368 478.817C324.751 476.422 320.152 477.073 317.312 474.265Z"/><defs><linearGradient id="gradient_9" gradientUnits="userSpaceOnUse" x1="171.60645" y1="498.73563" x2="184.94557" y2="522.69336"><stop offset="0" stop-color="white" stop-opacity="0.82745099"/><stop offset="1" stop-color="white" stop-opacity="0.89019608"/></linearGradient></defs><path fill="url(#gradient_9)" d="M133.035 504.604C135.255 505.262 133.717 531.05 136.176 534.402L136.72 534.182L137.071 532.187L137.578 532.081L138.384 533.181C151.53 526.109 143.942 510.092 167.283 504.823C166.36 503.956 166.369 504.313 166.26 503.452C172.037 503.529 173.06 505.46 176.446 499.565C185.823 483.239 210.684 482.397 224.758 492.677C226.961 494.286 228.657 497.547 230.998 499.5L230.145 500.074C225.035 499.987 223.703 498.867 219.066 498.286C202.433 488.601 185.549 493.02 178.154 511.777C162.181 512.918 153.676 516.579 152.687 534.21C147.357 535.995 142.399 538.534 137.195 540.68C136.809 537.651 135.111 533.766 134.503 530.056C133.098 521.491 132.763 513.252 133.035 504.604Z"/><defs><linearGradient id="gradient_10" gradientUnits="userSpaceOnUse" x1="198.30258" y1="403.08826" x2="202.81476" y2="413.68738"><stop offset="0" stop-color="#F0F1F1" stop-opacity="0.43529412"/><stop offset="1" stop-color="#EEF4F3" stop-opacity="0.57254905"/></linearGradient></defs><path fill="url(#gradient_10)" d="M225.821 391.34C228.726 404.471 231.086 405.889 235.225 416.625L234.481 416.934C232.751 414.87 228.758 405.973 227.721 403.209C226.513 402.726 227.162 402.804 225.691 403.386C225.53 402 226.5 401.956 226.773 400.722L225.971 400.186C224.274 400.764 222.94 405.446 219.564 407.051C205.974 413.508 190.487 414.651 178.017 423.872C176.907 423.288 177.135 423.444 176.215 422.715C172.171 426.542 170.392 430.442 165.636 431.007C164.506 432.88 162.757 437.294 161.554 438.108L159.908 437.778L159.041 438.659L157.677 438.162C173.142 419.173 192.811 404.245 215.473 394.945C218.952 393.518 221.95 391.098 225.821 391.34Z"/><path fill="#FEB272" d="M711.264 263.384C712.323 264.623 715.121 271.938 716.15 273.811C718.208 277.56 725.656 280.097 729.554 281.336C718.618 285.508 715.101 285.977 712.103 298.15L711.665 298.365C709.758 297.125 707.674 289.371 704.432 286.63C701.158 283.863 698.768 283.768 695.747 281.73C696.304 279.987 702.301 277.141 704.367 275.299C707.885 272.162 709.37 267.67 711.264 263.384Z"/><path fill="#FEB272" fill-opacity="0.64705884" d="M305.717 215.281C309.981 227.054 312.446 229.065 324.598 232.267C314.316 234.019 308.655 236.809 306.554 247.986C306.634 245.787 306.474 242.986 304.291 241.865L303.629 242.865C300.234 235.936 295.201 234.218 288.432 231.552C299.211 229.234 302.936 225.989 305.717 215.281Z"/><path fill="#FEFEFD" d="M219.066 498.286C223.703 498.867 225.035 499.987 230.145 500.074C237.487 502.39 253.221 501.588 260.151 503.918L260.433 503.976C263.885 506.926 265.53 509.527 268.628 512.356L260.437 515.874C259.252 514.92 257.747 510.303 253.093 507.344C245.237 502.35 234.788 504.014 226.108 505.631C223.707 502.957 221.731 500.704 219.066 498.286Z"/><path fill="#FEB272" d="M810.098 296.322C812.608 300.04 813.96 302.619 817.433 305.486C816.034 306.631 810.382 312.646 810.063 312.787C807.146 308.223 806.325 307.608 801.797 304.692C806.103 301.708 806.928 300.415 810.098 296.322Z"/><path fill="#FEFEFD" fill-opacity="0.90196079" d="M230.998 499.5C235.107 494.276 256.268 496.85 260.151 503.918C253.221 501.588 237.487 502.39 230.145 500.074L230.998 499.5Z"/><path fill="#FEB272" fill-opacity="0.58039218" d="M260.555 250.679C264.626 248.862 265.005 246.955 267.54 243.183C270.311 247.793 270.828 248.771 275.151 252.212L270.391 257.268C269.353 256.837 262.385 251.721 260.555 250.679Z"/><path fill="#FDA68F" d="M746.968 290.391C748.538 291.494 749.595 293.594 750.641 295.278L745.439 302.248C743.557 300.577 742.229 297.452 741.058 295.144L746.968 290.391Z"/><path fill="#FE9C5C" fill-opacity="0.61960787" d="M267.756 260.595C265.275 256.976 260.212 252.614 259.761 251.792L260.555 250.679C262.385 251.721 269.353 256.837 270.391 257.268L267.756 260.595Z"/><path fill="#FD6F45" d="M737.814 314.151L738.709 314.574C740.823 317.54 739.5 320.281 737.675 322.962C734.555 318.943 735.019 318.205 737.814 314.151Z"/><path fill="#FDA68F" d="M674.89 315.222C677.44 315.571 679.453 316.592 679.343 319.473L678.163 320.457C676.258 320.149 674.626 320.216 673.402 318.838C673.385 316.897 673.64 317.197 674.89 315.222Z"/><path fill="#FEB272" fill-opacity="0.88235295" d="M303.629 242.865L304.291 241.865C306.474 242.986 306.634 245.787 306.554 247.986C305.119 247.63 304.201 244.25 303.629 242.865Z"/></svg>