<?xml version="1.0" encoding="utf-8" ?><svg xmlns="http://www.w3.org/2000/svg" xmlns:xlink="http://www.w3.org/1999/xlink" width="4563" height="3676" viewBox="0 0 4563 3676"><defs><linearGradient id="gradient_0" gradientUnits="userSpaceOnUse" x1="2382.5239" y1="1753.7426" x2="2604.7014" y2="593.77972"><stop offset="0" stop-color="#645455"/><stop offset="1" stop-color="#676867"/></linearGradient></defs><path fill="url(#gradient_0)" d="M1548.73 1344.03C1542.67 1339.3 1529.41 1328.29 1532.35 1320.45C1615.65 1098.61 1766.82 876.331 1977.7 716.816C2093.63 629.125 2233.6 561.955 2394.05 563.744C2532.37 567.113 2621.09 621.388 2712.63 699.196C2897.75 856.554 2984.19 1072.31 3043.91 1279.15C3055.68 1319.95 3057.94 1359.44 3067.64 1398.03C3075.06 1373.8 3096.14 1278.16 3121.5 1267.88C3187.45 1241.13 3262.35 1321.17 3289.64 1360.2C3390.63 1504.79 3372.27 1742.12 3177.05 1830.6C3159.01 1838.78 3123.12 1851.01 3102.88 1852.85C3095.79 1854.07 3088.85 1855.44 3081.66 1856.08C3024.37 1859.8 3002.86 1851.97 2949.93 1838.71C2941.44 1840.2 2943.38 1840.68 2936.26 1847.51C2923.95 1860.76 2907.22 1869.55 2888.07 1875.16C2870.79 1880.6 2866.06 1880.81 2847.59 1880.76C2789.3 1920.22 2791.4 1913.19 2721.38 1931.23C2723.17 1945.13 2724.39 1966.88 2733.36 1978.62L2739.45 1979.88C2730.37 1987.45 2735.64 1994.62 2737.08 2004.8C2738.27 2013.38 2740.07 2023.62 2740.51 2032.09C2735.76 2026.03 2733.62 2011.53 2729.9 2010.15C2722.75 2022.66 2722.83 2035.59 2716.14 2045.22L2715.25 2045.14C2696.04 2031.75 2682.5 2020.99 2659.07 2012.19C2601.32 2036.5 2578.3 2073.22 2533.79 2101.01L2481.14 2142.96L2477.74 2134.65C2469.56 2101.67 2462.58 2082.67 2448.91 2051.02C2444.59 2052.65 2438.42 2054.68 2434.67 2056.78L2433.22 2056.13C2422.98 2056.37 2393.76 2069.44 2379.71 2072.45C2282.33 2093.32 2183.35 2095.81 2085.01 2077.31C2061.31 2072.85 2015.58 2054.96 1994.13 2055.59C1986.37 2050.41 1973.88 2039.73 1966.31 2033.58C1919.11 1995.27 1906.86 1996.9 1858.75 2033.76C1853.09 2038.08 1842.53 2047.31 1835.86 2048.79L1834.27 2048.14C1823.54 2054.56 1821.98 2061.66 1809.24 2063.18C1805.44 2044.79 1806.6 2019.37 1807.52 2000.69L1805.05 1991.21C1805.95 1982.05 1809.97 1966.97 1802.15 1960.53C1811 1952.06 1808.6 1927.95 1808.8 1915.31C1792.82 1912.53 1785.61 1910.87 1770.26 1906.36C1742.36 1897.27 1716.37 1884.75 1693.23 1869.24C1697.88 1864.39 1712.44 1858.57 1719.97 1855.13L1705.42 1843.61C1733.9 1827.19 1739.65 1821.4 1755.66 1796.71C1752.82 1793.28 1741.37 1783.69 1736.24 1778.25C1739.38 1769.05 1741.5 1751.6 1741.94 1741.98L1740.58 1741.1C1727.96 1735.81 1724.61 1728.09 1716.29 1717.8C1717.92 1714.9 1723.32 1708.07 1725.62 1705.01C1728.01 1690.69 1727.12 1676.18 1729.92 1662.02C1733.98 1641.5 1744.34 1618.47 1745.21 1597.85C1746.18 1574.9 1743.06 1551.3 1743.14 1527.96C1743.82 1525.6 1744.8 1514.81 1745.14 1511.8C1753.45 1493.94 1743.72 1478.1 1765.18 1462.8C1764.44 1454.92 1762.52 1445.28 1761.21 1437.29L1763.9 1434.03C1770.71 1435.79 1773.58 1440.42 1778.81 1445.53C1779.84 1440.64 1787.38 1433.53 1791.25 1424.24C1787.01 1417.58 1779.86 1410.08 1773 1405.08C1764.05 1393.89 1756.35 1389.42 1743.9 1380.88C1736.43 1363.78 1728.43 1350.72 1716.67 1335.44C1713.45 1331.39 1709.82 1328.24 1705.97 1324.55C1683.44 1318.5 1695.39 1309.47 1657.97 1311.08C1642.4 1313.79 1609.51 1318.1 1599.07 1326.02L1598.12 1329.65C1589.87 1343.7 1585.16 1364.84 1581.25 1380.28C1574.3 1369.09 1583.9 1367.8 1573.06 1360.26C1572.23 1355.38 1571.71 1355.57 1567.85 1351.59C1561.54 1349.74 1554.75 1346.58 1548.73 1344.03Z"/><defs><linearGradient id="gradient_1" gradientUnits="userSpaceOnUse" x1="2487.9856" y1="2010.8397" x2="1898.6351" y2="1446.2672"><stop offset="0" stop-color="#F46A52"/><stop offset="1" stop-color="#FA8B54"/></linearGradient></defs><path fill="url(#gradient_1)" d="M1985.58 1367.38L2005.27 1367.77C2064.58 1366.47 2073.89 1403.83 2131.25 1413.68C2182.7 1401.52 2213.32 1378.84 2263.6 1368.21C2292.51 1380.14 2325.93 1407.08 2352.93 1414.42C2366.72 1418.16 2443.32 1389.31 2461.95 1384.5C2486.47 1399.13 2525.85 1427.16 2541.19 1449.11C2543.06 1451.78 2548.87 1467.98 2550.24 1471.82C2574.39 1554.07 2581.58 1661.57 2584.51 1746.31C2581.95 1809.3 2573.15 1860.82 2544.26 1920.05C2539.61 1929.58 2533.4 1946.01 2527.59 1954.38C2522.14 1959.85 2521.17 1961.4 2517.08 1967.68C2509.92 1977.31 2505.1 1983.54 2496.11 1992.27C2484.01 2004.02 2462.32 2018.18 2453.97 2031.09L2453.36 2032.01C2451.63 2038.97 2453.2 2037.81 2448.09 2042.4L2445.32 2042.85L2448.91 2051.02C2444.59 2052.65 2438.42 2054.68 2434.67 2056.78L2433.22 2056.13C2422.98 2056.37 2393.76 2069.44 2379.71 2072.45C2282.33 2093.32 2183.35 2095.81 2085.01 2077.31C2061.31 2072.85 2015.58 2054.96 1994.13 2055.59C1986.37 2050.41 1973.88 2039.73 1966.31 2033.58C1919.11 1995.27 1906.86 1996.9 1858.75 2033.76C1853.09 2038.08 1842.53 2047.31 1835.86 2048.79L1834.27 2048.14C1823.54 2054.56 1821.98 2061.66 1809.24 2063.18C1805.44 2044.79 1806.6 2019.37 1807.52 2000.69L1805.05 1991.21C1805.95 1982.05 1809.97 1966.97 1802.15 1960.53C1811 1952.06 1808.6 1927.95 1808.8 1915.31C1792.82 1912.53 1785.61 1910.87 1770.26 1906.36C1742.36 1897.27 1716.37 1884.75 1693.23 1869.24C1697.88 1864.39 1712.44 1858.57 1719.97 1855.13L1705.42 1843.61C1733.9 1827.19 1739.65 1821.4 1755.66 1796.71C1752.82 1793.28 1741.37 1783.69 1736.24 1778.25C1739.38 1769.05 1741.5 1751.6 1741.94 1741.98L1740.58 1741.1C1727.96 1735.81 1724.61 1728.09 1716.29 1717.8C1717.92 1714.9 1723.32 1708.07 1725.62 1705.01C1728.01 1690.69 1727.12 1676.18 1729.92 1662.02C1733.98 1641.5 1744.34 1618.47 1745.21 1597.85C1746.18 1574.9 1743.06 1551.3 1743.14 1527.96C1743.82 1525.6 1744.8 1514.81 1745.14 1511.8C1753.45 1493.94 1743.72 1478.1 1765.18 1462.8C1764.44 1454.92 1762.52 1445.28 1761.21 1437.29L1763.9 1434.03C1770.71 1435.79 1773.58 1440.42 1778.81 1445.53C1816.45 1496.85 1860.64 1444.41 1913.13 1442.65L1928.68 1410.22L1930.12 1408.97C1933.56 1416.65 1940.01 1429.04 1947.94 1434.11C1960.03 1411.7 1972.58 1389.45 1985.58 1367.38Z"/><path fill="#D17559" d="M1966.31 2033.58C1979.32 2017.85 1988.45 1994.29 1999.83 1976.72C2064.64 1876.63 2205.4 1851.22 2322.57 1909.94C2384.05 1940.76 2412.33 1983.72 2441.3 2035.11L2445.32 2042.85L2448.91 2051.02C2444.59 2052.65 2438.42 2054.68 2434.67 2056.78L2433.22 2056.13C2422.98 2056.37 2393.76 2069.44 2379.71 2072.45C2282.33 2093.32 2183.35 2095.81 2085.01 2077.31C2061.31 2072.85 2015.58 2054.96 1994.13 2055.59C1986.37 2050.41 1973.88 2039.73 1966.31 2033.58Z"/><path fill="#DB5F4F" d="M2441.3 2035.11L2445.32 2042.85L2448.91 2051.02C2444.59 2052.65 2438.42 2054.68 2434.67 2056.78L2433.22 2056.13C2429.29 2044.52 2430.6 2043.29 2441.3 2035.11Z"/><path fill="#F3986A" d="M2180.62 1892.62C2206.1 1890.82 2243.34 1896.93 2267.13 1904.39C2355.4 1932.09 2390.77 1977.89 2427.9 2042.91C2377.35 2064.65 2295.39 2071.83 2238.42 2074.82C2126.85 2076.55 2082.79 2061.01 1983.45 2035.68C2018.29 1960.39 2074.93 1899.69 2180.62 1892.62Z"/><path fill="#F7E3C7" d="M1761.21 1437.29L1763.9 1434.03C1770.71 1435.79 1773.58 1440.42 1778.81 1445.53C1816.45 1496.85 1860.64 1444.41 1913.13 1442.65C1906.56 1456.86 1899.55 1471.36 1893.96 1485.8C1882.64 1511.65 1873.24 1538.02 1865.8 1564.76L1867.75 1567.59C1870.55 1571.75 1870.88 1573.09 1872.43 1577.61C1877.15 1578.77 1874.98 1578.96 1878.96 1577.51C1880.69 1582.99 1881.82 1587.21 1884.28 1592.54C1883.55 1595.55 1880.45 1609.36 1879.38 1611.33C1870.99 1648.78 1863.55 1686.36 1857.07 1724.05C1853.52 1746.24 1850.59 1779.06 1845.74 1799.85C1841.05 1794.84 1841.22 1795.2 1834.47 1791.93C1818.31 1794.24 1817.75 1808.8 1816.84 1819.59C1813.67 1812.66 1772.68 1784.36 1762.88 1777.47L1755.66 1796.71C1752.82 1793.28 1741.37 1783.69 1736.24 1778.25C1739.38 1769.05 1741.5 1751.6 1741.94 1741.98L1740.58 1741.1C1727.96 1735.81 1724.61 1728.09 1716.29 1717.8C1717.92 1714.9 1723.32 1708.07 1725.62 1705.01C1728.01 1690.69 1727.12 1676.18 1729.92 1662.02C1733.98 1641.5 1744.34 1618.47 1745.21 1597.85C1746.18 1574.9 1743.06 1551.3 1743.14 1527.96C1743.82 1525.6 1744.8 1514.81 1745.14 1511.8C1753.45 1493.94 1743.72 1478.1 1765.18 1462.8C1764.44 1454.92 1762.52 1445.28 1761.21 1437.29Z"/><path fill="#D17559" d="M1765.18 1462.8C1769.72 1502.04 1762.42 1525.03 1755.47 1563.37C1754.67 1567.79 1759.85 1587.96 1760.34 1594.62C1762.72 1627.09 1752.36 1653.74 1738.19 1683.57C1753.81 1702.05 1762.31 1712.67 1766.43 1735.63C1771.47 1752.38 1777.16 1756.66 1790.59 1769.55C1769.86 1765.33 1763.98 1752.28 1745.95 1740.27L1741.94 1741.98L1740.58 1741.1C1727.96 1735.81 1724.61 1728.09 1716.29 1717.8C1717.92 1714.9 1723.32 1708.07 1725.62 1705.01C1728.01 1690.69 1727.12 1676.18 1729.92 1662.02C1733.98 1641.5 1744.34 1618.47 1745.21 1597.85C1746.18 1574.9 1743.06 1551.3 1743.14 1527.96C1743.82 1525.6 1744.8 1514.81 1745.14 1511.8C1753.45 1493.94 1743.72 1478.1 1765.18 1462.8Z"/><path fill="#F3986A" d="M1766.43 1735.63C1736.16 1727.14 1736.93 1705.26 1738.19 1683.57C1753.81 1702.05 1762.31 1712.67 1766.43 1735.63Z"/><path fill="#F3986A" d="M1725.62 1705.01C1734.06 1718.59 1738.85 1725.53 1740.58 1741.1C1727.96 1735.81 1724.61 1728.09 1716.29 1717.8C1717.92 1714.9 1723.32 1708.07 1725.62 1705.01Z"/><path fill="#A9755E" d="M1826.83 1744.53L1833.92 1743.64C1855.97 1724.84 1856.53 1665.55 1864.85 1639.86C1869.44 1625.68 1873.88 1622.91 1876.79 1608.07L1879.38 1611.33C1870.99 1648.78 1863.55 1686.36 1857.07 1724.05C1853.52 1746.24 1850.59 1779.06 1845.74 1799.85C1841.05 1794.84 1841.22 1795.2 1834.47 1791.93C1818.31 1794.24 1817.75 1808.8 1816.84 1819.59C1813.67 1812.66 1772.68 1784.36 1762.88 1777.47L1755.66 1796.71C1752.82 1793.28 1741.37 1783.69 1736.24 1778.25C1739.38 1769.05 1741.5 1751.6 1741.94 1741.98L1745.95 1740.27C1763.98 1752.28 1769.86 1765.33 1790.59 1769.55C1801.12 1777.27 1807.86 1781.88 1819.31 1788.73C1822.18 1774.04 1824.69 1759.3 1826.83 1744.53Z"/><path fill="#D17559" d="M1865.8 1564.76L1867.75 1567.59C1870.55 1571.75 1870.88 1573.09 1872.43 1577.61C1877.15 1578.77 1874.98 1578.96 1878.96 1577.51C1880.69 1582.99 1881.82 1587.21 1884.28 1592.54C1883.55 1595.55 1880.45 1609.36 1879.38 1611.33L1876.79 1608.07C1873.88 1622.91 1869.44 1625.68 1864.85 1639.86C1856.53 1665.55 1855.97 1724.84 1833.92 1743.64L1826.83 1744.53C1838.34 1683.09 1846.15 1626.07 1865.8 1564.76Z"/><defs><linearGradient id="gradient_2" gradientUnits="userSpaceOnUse" x1="1857.6412" y1="1885.0669" x2="1781.8772" y2="1894.8895"><stop offset="0" stop-color="#754E4F"/><stop offset="1" stop-color="#88655C"/></linearGradient></defs><path fill="url(#gradient_2)" d="M1762.88 1777.47C1772.68 1784.36 1813.67 1812.66 1816.84 1819.59C1817.75 1808.8 1818.31 1794.24 1834.47 1791.93C1841.22 1795.2 1841.05 1794.84 1845.74 1799.85C1843.07 1824.17 1840.07 1847.49 1840.11 1871.94C1840.42 1886.39 1839.36 1899.02 1844.92 1912.71L1848.23 1913.54C1858.9 1902.18 1862.46 1888.98 1867.15 1875.38C1866.92 1884.82 1867.08 1892.63 1865.04 1901.99C1861.89 1937.64 1859.5 1972.73 1859.72 2008.47C1859.77 2016.75 1859.76 2025.53 1858.75 2033.76C1853.09 2038.08 1842.53 2047.31 1835.86 2048.79L1834.27 2048.14C1823.54 2054.56 1821.98 2061.66 1809.24 2063.18C1805.44 2044.79 1806.6 2019.37 1807.52 2000.69L1805.05 1991.21C1805.95 1982.05 1809.97 1966.97 1802.15 1960.53C1811 1952.06 1808.6 1927.95 1808.8 1915.31C1792.82 1912.53 1785.61 1910.87 1770.26 1906.36C1742.36 1897.27 1716.37 1884.75 1693.23 1869.24C1697.88 1864.39 1712.44 1858.57 1719.97 1855.13L1705.42 1843.61C1733.9 1827.19 1739.65 1821.4 1755.66 1796.71L1762.88 1777.47Z"/><path fill="#DB5F4F" d="M1762.88 1777.47C1772.68 1784.36 1813.67 1812.66 1816.84 1819.59L1810.57 1886.39C1800.78 1884.25 1789.55 1881.53 1779.81 1879.71C1773.3 1888.8 1782.32 1894.29 1790.38 1900.66L1790.04 1903.6C1782.84 1907.5 1778.58 1905.58 1770.26 1906.36C1742.36 1897.27 1716.37 1884.75 1693.23 1869.24C1697.88 1864.39 1712.44 1858.57 1719.97 1855.13L1705.42 1843.61C1733.9 1827.19 1739.65 1821.4 1755.66 1796.71L1762.88 1777.47Z"/><path fill="#A06959" d="M1719.97 1855.13C1740.01 1864.01 1758.51 1873.1 1779.81 1879.71C1773.3 1888.8 1782.32 1894.29 1790.38 1900.66L1790.04 1903.6C1782.84 1907.5 1778.58 1905.58 1770.26 1906.36C1742.36 1897.27 1716.37 1884.75 1693.23 1869.24C1697.88 1864.39 1712.44 1858.57 1719.97 1855.13Z"/><path fill="#F3986A" d="M1840.11 1871.94C1840.42 1886.39 1839.36 1899.02 1844.92 1912.71L1848.23 1913.54C1858.9 1902.18 1862.46 1888.98 1867.15 1875.38C1866.92 1884.82 1867.08 1892.63 1865.04 1901.99C1861.89 1937.64 1859.5 1972.73 1859.72 2008.47C1859.77 2016.75 1859.76 2025.53 1858.75 2033.76C1853.09 2038.08 1842.53 2047.31 1835.86 2048.79L1834.27 2048.14L1833.74 2021.25L1833.09 2014.01C1834.65 2003.51 1833.45 1984.35 1833.86 1973.12C1835.04 1941.07 1833.83 1903.58 1840.11 1871.94Z"/><path fill="#F4A779" d="M1840.11 1871.94C1840.42 1886.39 1839.36 1899.02 1844.92 1912.71L1848.23 1913.54C1858.9 1902.18 1862.46 1888.98 1867.15 1875.38C1866.92 1884.82 1867.08 1892.63 1865.04 1901.99C1822.52 1951.26 1851.87 2002.87 1836.95 2031.33L1833.74 2021.25L1833.09 2014.01C1834.65 2003.51 1833.45 1984.35 1833.86 1973.12C1835.04 1941.07 1833.83 1903.58 1840.11 1871.94Z"/><path fill="#6A4649" d="M1807.52 2000.69C1815.47 1983.38 1823.48 1962.97 1831.74 1946.21C1831.03 1964.31 1829.28 1996.87 1833.09 2014.01L1833.74 2021.25L1834.27 2048.14C1823.54 2054.56 1821.98 2061.66 1809.24 2063.18C1805.44 2044.79 1806.6 2019.37 1807.52 2000.69Z"/><path fill="#EFBF93" d="M1985.58 1367.38L2005.27 1367.77C2007.13 1372.83 2008.21 1373.42 2005.51 1378.85C1987.01 1416.13 1965.92 1449.37 1950.91 1487.9C1919.72 1568.73 1897.74 1651.68 1885.26 1735.72C1879.49 1776.13 1876.24 1837.75 1867.15 1875.38C1862.46 1888.98 1858.9 1902.18 1848.23 1913.54L1844.92 1912.71C1839.36 1899.02 1840.42 1886.39 1840.11 1871.94C1840.07 1847.49 1843.07 1824.17 1845.74 1799.85C1850.59 1779.06 1853.52 1746.24 1857.07 1724.05C1863.55 1686.36 1870.99 1648.78 1879.38 1611.33C1880.45 1609.36 1883.55 1595.55 1884.28 1592.54C1881.82 1587.21 1880.69 1582.99 1878.96 1577.51C1874.98 1578.96 1877.15 1578.77 1872.43 1577.61C1870.88 1573.09 1870.55 1571.75 1867.75 1567.59L1865.8 1564.76C1873.24 1538.02 1882.64 1511.65 1893.96 1485.8C1899.55 1471.36 1906.56 1456.86 1913.13 1442.65L1928.68 1410.22L1930.12 1408.97C1933.56 1416.65 1940.01 1429.04 1947.94 1434.11C1960.03 1411.7 1972.58 1389.45 1985.58 1367.38Z"/><path fill="#A9755E" d="M1930.12 1408.97C1933.56 1416.65 1940.01 1429.04 1947.94 1434.11C1927.66 1478.01 1906.67 1520.91 1893 1566.49C1890.51 1574.8 1887.56 1584.57 1884.28 1592.54C1881.82 1587.21 1880.69 1582.99 1878.96 1577.51C1874.98 1578.96 1877.15 1578.77 1872.43 1577.61C1870.88 1573.09 1870.55 1571.75 1867.75 1567.59L1865.8 1564.76C1873.24 1538.02 1882.64 1511.65 1893.96 1485.8C1899.55 1471.36 1906.56 1456.86 1913.13 1442.65L1928.68 1410.22L1930.12 1408.97Z"/><path fill="#F3986A" d="M1893.96 1485.8C1894.97 1520.3 1892.06 1544.13 1878.96 1577.51C1874.98 1578.96 1877.15 1578.77 1872.43 1577.61C1870.88 1573.09 1870.55 1571.75 1867.75 1567.59L1865.8 1564.76C1873.24 1538.02 1882.64 1511.65 1893.96 1485.8Z"/><path fill="#6A4649" d="M2402.87 1471.49C2466.06 1479.06 2463.49 1540.94 2416.44 1569.15C2414.62 1569.03 2412.79 1568.91 2410.97 1568.79C2397.98 1567.37 2386.31 1561.66 2378.74 1553.03C2355.23 1526.71 2370.91 1489.14 2402.87 1471.49Z"/><path fill="#6A4649" d="M2055.45 1460.9C2117.98 1462.09 2116.4 1529.36 2070.12 1558.08C2066.87 1557.99 2066.88 1558.05 2063.16 1557.6C2051.02 1556.2 2040.09 1550.92 2032.82 1542.96C2009.15 1516.75 2024.48 1479.25 2055.45 1460.9Z"/><path fill="#F4A779" d="M2458.57 1576.3C2523.47 1572.96 2563.03 1615.79 2490.46 1636.92C2425.57 1639.55 2387.81 1601.64 2458.57 1576.3Z"/><path fill="#F4A779" d="M1974.87 1561.9C2037.79 1559.98 2079.58 1596.43 2009.65 1621.94C1986.09 1622.82 1953.98 1619.19 1942.31 1599.97C1939.12 1594.81 1938.79 1588.81 1941.39 1583.44C1947.14 1571.58 1961.56 1566.86 1974.87 1561.9Z"/><path fill="#6A4649" d="M2168.27 1542.09C2187.59 1545.81 2193.74 1564.57 2212.13 1575.44C2246.16 1595.55 2273.5 1535.2 2292.24 1549.93C2294.74 1558.07 2293.82 1559.82 2292.35 1568.39C2251.23 1626.55 2149.38 1601.62 2168.27 1542.09Z"/><path fill="#E6674C" d="M2514.77 1260.65C2592.46 1324.82 2621.27 1382.6 2653.26 1465.99C2655.95 1475.56 2658.08 1483.03 2661.83 1492.47C2664.5 1503.56 2668.07 1516.58 2670.16 1527.58L2679.06 1564.68C2681.26 1563.43 2683.06 1561.82 2685.77 1562.15C2725.38 1567.05 2758.38 1511.04 2793.86 1522.97L2793.54 1493.49L2795.07 1492.12C2800.22 1501.19 2805.83 1509.82 2820.12 1508.01C2819.26 1519.8 2815.38 1538.77 2824.19 1546.88C2828.64 1546.62 2827.83 1547.01 2831.81 1545.74C2832.98 1553.78 2833.49 1564.49 2841.05 1570.06C2809.15 1616.83 2812.89 1634.74 2824.27 1686.63C2819.11 1694.44 2818.07 1723.41 2817.24 1733.98C2822.12 1741.39 2827.14 1748.74 2832.28 1756.04L2837.03 1760.51C2841.22 1765.05 2847.3 1772.14 2851.96 1776.06C2856.44 1780.66 2861.38 1785.99 2866.13 1790.29C2879.23 1800.72 2893.02 1811.75 2909.07 1819.25C2923.72 1814.78 2936.48 1814.85 2951.76 1810.3C3024.24 1832.04 3041.02 1831.24 3115.58 1822.85C3104.71 1828.24 3095.65 1829.37 3083.38 1831.73C3089.18 1836.58 3100.16 1844.71 3103.34 1850.2L3102.88 1852.85C3095.79 1854.07 3088.85 1855.44 3081.66 1856.08C3024.37 1859.8 3002.86 1851.97 2949.93 1838.71C2941.44 1840.2 2943.38 1840.68 2936.26 1847.51C2923.95 1860.76 2907.22 1869.55 2888.07 1875.16C2870.79 1880.6 2866.06 1880.81 2847.59 1880.76C2789.3 1920.22 2791.4 1913.19 2721.38 1931.23C2723.17 1945.13 2724.39 1966.88 2733.36 1978.62L2739.45 1979.88C2730.37 1987.45 2735.64 1994.62 2737.08 2004.8C2738.27 2013.38 2740.07 2023.62 2740.51 2032.09C2735.76 2026.03 2733.62 2011.53 2729.9 2010.15C2722.75 2022.66 2722.83 2035.59 2716.14 2045.22L2715.25 2045.14C2696.04 2031.75 2682.5 2020.99 2659.07 2012.19C2601.32 2036.5 2578.3 2073.22 2533.79 2101.01L2481.14 2142.96L2477.74 2134.65C2469.56 2101.67 2462.58 2082.67 2448.91 2051.02L2445.32 2042.85L2448.09 2042.4C2453.2 2037.81 2451.63 2038.97 2453.36 2032.01L2453.97 2031.09C2462.32 2018.18 2484.01 2004.02 2496.11 1992.27C2505.1 1983.54 2509.92 1977.31 2517.08 1967.68C2521.17 1961.4 2522.14 1959.85 2527.59 1954.38C2533.4 1946.01 2539.61 1929.58 2544.26 1920.05C2573.15 1860.82 2581.95 1809.3 2584.51 1746.31C2581.58 1661.57 2574.39 1554.07 2550.24 1471.82C2548.87 1467.98 2543.06 1451.78 2541.19 1449.11C2525.85 1427.16 2486.47 1399.13 2461.95 1384.5C2443.32 1389.31 2366.72 1418.16 2352.93 1414.42C2325.93 1407.08 2292.51 1380.14 2263.6 1368.21C2213.32 1378.84 2182.7 1401.52 2131.25 1413.68C2073.89 1403.83 2064.58 1366.47 2005.27 1367.77L1985.58 1367.38C1994.21 1354.46 2005.87 1341.32 2017.65 1330.12C2023.28 1318.34 2044.72 1301.09 2056.29 1292.58C2078.74 1312.96 2088.48 1325.86 2117.35 1340.38C2161.27 1336.35 2224.61 1309.67 2268.22 1295.38C2286.19 1304.49 2331.75 1334.69 2349.33 1336.49C2381.76 1339.8 2460.4 1290.59 2488.58 1274.48L2514.77 1260.65Z"/><path fill="#F7E3C7" d="M2793.54 1493.49L2795.07 1492.12C2800.22 1501.19 2805.83 1509.82 2820.12 1508.01C2819.26 1519.8 2815.38 1538.77 2824.19 1546.88C2828.64 1546.62 2827.83 1547.01 2831.81 1545.74C2832.98 1553.78 2833.49 1564.49 2841.05 1570.06C2809.15 1616.83 2812.89 1634.74 2824.27 1686.63C2819.11 1694.44 2818.07 1723.41 2817.24 1733.98C2822.12 1741.39 2827.14 1748.74 2832.28 1756.04L2837.03 1760.51C2841.22 1765.05 2847.3 1772.14 2851.96 1776.06C2856.44 1780.66 2861.38 1785.99 2866.13 1790.29C2850.96 1822.2 2843.84 1814.43 2809.91 1829.69L2802.28 1821.95C2792.46 1825.04 2787.2 1825.99 2779.86 1831.86L2775.44 1829.08L2767.25 1811.07L2766.3 1804.85L2762.85 1802.74L2756.03 1804.66C2750.58 1802.92 2717.38 1803.72 2710.35 1804.72L2707.12 1775.75C2707.53 1727.95 2693.15 1635.88 2683.48 1588.37L2679.06 1564.68C2681.26 1563.43 2683.06 1561.82 2685.77 1562.15C2725.38 1567.05 2758.38 1511.04 2793.86 1522.97L2793.54 1493.49Z"/><path fill="#D17559" d="M2793.54 1493.49L2795.07 1492.12C2800.22 1501.19 2805.83 1509.82 2820.12 1508.01C2819.26 1519.8 2815.38 1538.77 2824.19 1546.88C2828.64 1546.62 2827.83 1547.01 2831.81 1545.74C2832.98 1553.78 2833.49 1564.49 2841.05 1570.06C2809.15 1616.83 2812.89 1634.74 2824.27 1686.63C2819.11 1694.44 2818.07 1723.41 2817.24 1733.98C2822.12 1741.39 2827.14 1748.74 2832.28 1756.04L2837.03 1760.51C2841.22 1765.05 2847.3 1772.14 2851.96 1776.06C2856.44 1780.66 2861.38 1785.99 2866.13 1790.29C2850.96 1822.2 2843.84 1814.43 2809.91 1829.69L2802.28 1821.95C2792.46 1825.04 2787.2 1825.99 2779.86 1831.86L2775.44 1829.08L2767.25 1811.07L2766.3 1804.85L2762.85 1802.74L2756.03 1804.66C2750.58 1802.92 2717.38 1803.72 2710.35 1804.72L2734.2 1790.64C2777.19 1760.1 2762.58 1740.13 2801.39 1701.64C2798.31 1692.44 2795.36 1683.21 2792.55 1673.95C2786.15 1634.01 2788.2 1617.71 2800.3 1579.1C2794.84 1564.94 2794.02 1537.39 2793.86 1522.97L2793.54 1493.49Z"/><path fill="#F37954" d="M2790.14 1756.99C2797.86 1747.55 2798.73 1735.47 2812.61 1731.36L2817.24 1733.98C2822.12 1741.39 2827.14 1748.74 2832.28 1756.04L2837.03 1760.51C2841.22 1765.05 2847.3 1772.14 2851.96 1776.06C2856.44 1780.66 2861.38 1785.99 2866.13 1790.29C2850.96 1822.2 2843.84 1814.43 2809.91 1829.69L2802.28 1821.95C2792.46 1825.04 2787.2 1825.99 2779.86 1831.86L2775.44 1829.08L2767.25 1811.07L2766.3 1804.85L2762.85 1802.74L2756.03 1804.66C2750.58 1802.92 2717.38 1803.72 2710.35 1804.72L2734.2 1790.64C2772.45 1787.4 2765.09 1773.47 2790.14 1756.99Z"/><defs><linearGradient id="gradient_3" gradientUnits="userSpaceOnUse" x1="2773.8079" y1="1799.5667" x2="2751.6992" y2="1779.517"><stop offset="0" stop-color="#9D6759"/><stop offset="1" stop-color="#AD7B60"/></linearGradient></defs><path fill="url(#gradient_3)" d="M2734.2 1790.64C2772.45 1787.4 2765.09 1773.47 2790.14 1756.99C2789.14 1771.97 2789.57 1779.41 2791.13 1794.45L2795.72 1805.28C2797.68 1812.84 2798.48 1814.86 2802.28 1821.95C2792.46 1825.04 2787.2 1825.99 2779.86 1831.86L2775.44 1829.08L2767.25 1811.07L2766.3 1804.85L2762.85 1802.74L2756.03 1804.66C2750.58 1802.92 2717.38 1803.72 2710.35 1804.72L2734.2 1790.64Z"/><path fill="#825D57" d="M2767.25 1811.07C2774.79 1802.69 2780.19 1799.43 2791.13 1794.45L2795.72 1805.28C2797.68 1812.84 2798.48 1814.86 2802.28 1821.95C2792.46 1825.04 2787.2 1825.99 2779.86 1831.86L2775.44 1829.08L2767.25 1811.07Z"/><path fill="#F4A779" d="M2790.14 1756.99C2797.86 1747.55 2798.73 1735.47 2812.61 1731.36L2817.24 1733.98C2822.12 1741.39 2827.14 1748.74 2832.28 1756.04C2817.12 1773.71 2813.67 1788.12 2795.72 1805.28L2791.13 1794.45C2789.57 1779.41 2789.14 1771.97 2790.14 1756.99Z"/><path fill="#F3986A" d="M2800.3 1579.1C2812.21 1608.78 2807.41 1645.39 2792.55 1673.95C2786.15 1634.01 2788.2 1617.71 2800.3 1579.1Z"/><path fill="#D17559" d="M2653.26 1465.99C2655.95 1475.56 2658.08 1483.03 2661.83 1492.47C2664.5 1503.56 2668.07 1516.58 2670.16 1527.58L2679.06 1564.68L2683.48 1588.37C2693.15 1635.88 2707.53 1727.95 2707.12 1775.75L2710.35 1804.72C2717.38 1803.72 2750.58 1802.92 2756.03 1804.66C2753.54 1806.59 2746.91 1812.02 2744.48 1813.35C2736.63 1812.42 2694.65 1814.26 2684.46 1814.58C2673.12 1818.37 2663.54 1821.77 2651.62 1824.43C2653.59 1821.82 2653.42 1821.23 2656.66 1819.7C2676.98 1810.12 2671.83 1795.42 2671.12 1779.95C2666.8 1790 2664.54 1800.98 2661.99 1811.45C2650.44 1784.19 2633.91 1701.22 2633.25 1672.98L2621.58 1658.35C2630.9 1621.11 2618.49 1641.47 2617.59 1626.32L2620.08 1625.11L2618.72 1625.07C2624.75 1627.28 2629.18 1632.14 2634.28 1635.99L2638.12 1633.61C2637.88 1627.56 2636.27 1628.94 2631.08 1622.81C2620.21 1609.99 2638.1 1599.03 2637.61 1586.86C2637.27 1578.53 2628.26 1560.86 2629.95 1553.43C2635.47 1553.98 2633.49 1554.09 2639.01 1552.97C2637.27 1519.69 2602.6 1526.38 2629.37 1485.41L2632.4 1488.82L2636.23 1486.79C2639.54 1474.51 2645.96 1478.58 2653.26 1465.99Z"/><path fill="#F3986A" d="M2683.48 1588.37C2693.15 1635.88 2707.53 1727.95 2707.12 1775.75C2701.3 1778.27 2701.75 1778.42 2695.28 1777.79C2689.12 1773.45 2688.25 1766.46 2686.25 1759.77C2680.23 1720.01 2678.63 1679.86 2672.27 1638.75C2672.29 1624.36 2670.81 1602.32 2677.65 1589.79L2683.48 1588.37Z"/><path fill="#A06959" d="M2661.83 1492.47C2664.5 1503.56 2668.07 1516.58 2670.16 1527.58L2679.06 1564.68L2683.48 1588.37L2677.65 1589.79C2670.81 1602.32 2672.29 1624.36 2672.27 1638.75L2667.53 1645.79C2661.78 1607.57 2654.06 1563.65 2643.39 1526.05L2647.24 1524.91C2653.84 1515.09 2659.75 1503.55 2661.83 1492.47Z"/><path fill="#A06959" d="M2686.25 1759.77C2688.25 1766.46 2689.12 1773.45 2695.28 1777.79C2701.75 1778.42 2701.3 1778.27 2707.12 1775.75L2710.35 1804.72C2717.38 1803.72 2750.58 1802.92 2756.03 1804.66C2753.54 1806.59 2746.91 1812.02 2744.48 1813.35C2736.63 1812.42 2694.65 1814.26 2684.46 1814.58C2683.25 1803.48 2682.8 1793.92 2682.4 1782.82C2683.45 1773.29 2680.84 1768.73 2686.25 1759.77Z"/><path fill="#825D57" d="M2653.26 1465.99C2655.95 1475.56 2658.08 1483.03 2661.83 1492.47C2659.75 1503.55 2653.84 1515.09 2647.24 1524.91L2643.39 1526.05C2639.65 1513.37 2637.43 1501.36 2632.4 1488.82L2636.23 1486.79C2639.54 1474.51 2645.96 1478.58 2653.26 1465.99Z"/><path fill="#A9755E" d="M2672.27 1638.75C2678.63 1679.86 2680.23 1720.01 2686.25 1759.77C2680.84 1768.73 2683.45 1773.29 2682.4 1782.82C2680.03 1774.16 2678.13 1744.75 2677.15 1734.76L2667.53 1645.79L2672.27 1638.75Z"/><path fill="#825D57" d="M2866.13 1790.29C2879.23 1800.72 2893.02 1811.75 2909.07 1819.25C2923.72 1814.78 2936.48 1814.85 2951.76 1810.3C3024.24 1832.04 3041.02 1831.24 3115.58 1822.85C3104.71 1828.24 3095.65 1829.37 3083.38 1831.73C3089.18 1836.58 3100.16 1844.71 3103.34 1850.2L3102.88 1852.85C3095.79 1854.07 3088.85 1855.44 3081.66 1856.08C3024.37 1859.8 3002.86 1851.97 2949.93 1838.71C2941.44 1840.2 2943.38 1840.68 2936.26 1847.51C2923.95 1860.76 2907.22 1869.55 2888.07 1875.16C2870.79 1880.6 2866.06 1880.81 2847.59 1880.76C2789.3 1920.22 2791.4 1913.19 2721.38 1931.23C2723.17 1945.13 2724.39 1966.88 2733.36 1978.62L2739.45 1979.88C2730.37 1987.45 2735.64 1994.62 2737.08 2004.8C2738.27 2013.38 2740.07 2023.62 2740.51 2032.09C2735.76 2026.03 2733.62 2011.53 2729.9 2010.15C2722.75 2022.66 2722.83 2035.59 2716.14 2045.22L2715.25 2045.14C2715.23 2032.24 2705.82 1989.17 2702.99 1973.74C2706.72 1960.17 2714.47 1920.68 2712.42 1907.25C2735.46 1903.03 2812.84 1889.18 2814.73 1866.59L2809.55 1861.86C2824.49 1858.21 2827.07 1858.82 2834.77 1848.99C2823.06 1841.35 2819.59 1839.18 2809.91 1829.69C2843.84 1814.43 2850.96 1822.2 2866.13 1790.29Z"/><path fill="#DB5F4F" d="M2866.13 1790.29C2879.23 1800.72 2893.02 1811.75 2909.07 1819.25C2916.83 1825.29 2914.55 1821.76 2916.47 1830.09C2907.51 1852.81 2858.76 1854.02 2834.77 1848.99C2823.06 1841.35 2819.59 1839.18 2809.91 1829.69C2843.84 1814.43 2850.96 1822.2 2866.13 1790.29Z"/><path fill="#A06959" d="M2847.7 1876.78C2865.33 1865.9 2912.12 1845.28 2933.36 1843.73L2936.26 1847.51C2923.95 1860.76 2907.22 1869.55 2888.07 1875.16C2876.97 1874.96 2859.32 1876.21 2847.7 1876.78Z"/><path fill="#645A5A" d="M3081.66 1856.08L3084.15 1852.74C3078.9 1844.17 3074.09 1851.1 3064.95 1841.67L3065.95 1838L3070.83 1835.49C3076.07 1836.76 3079.09 1837.36 3084.51 1838.16L3087.67 1838.6C3085.39 1845.87 3084.45 1842.99 3088 1848C3094.85 1850.27 3096.27 1850.22 3103.34 1850.2L3102.88 1852.85C3095.79 1854.07 3088.85 1855.44 3081.66 1856.08Z"/><path fill="#DB5F4F" d="M2756.03 1804.66L2762.85 1802.74L2766.3 1804.85L2767.25 1811.07L2775.44 1829.08L2779.86 1831.86C2787.2 1825.99 2792.46 1825.04 2802.28 1821.95L2809.91 1829.69C2819.59 1839.18 2823.06 1841.35 2834.77 1848.99C2827.07 1858.82 2824.49 1858.21 2809.55 1861.86L2814.73 1866.59C2812.84 1889.18 2735.46 1903.03 2712.42 1907.25C2703.92 1907.98 2695.35 1908.03 2686.84 1907.39C2646.24 1904.37 2618.5 1875.62 2660.25 1850.05C2694.3 1840.69 2701.39 1838.89 2731.47 1822.58L2744.48 1813.35C2746.91 1812.02 2753.54 1806.59 2756.03 1804.66Z"/><path fill="#F37954" d="M2756.03 1804.66L2762.85 1802.74L2766.3 1804.85L2767.25 1811.07L2775.44 1829.08L2779.86 1831.86L2781.2 1838.84C2739.78 1862.59 2731.03 1864.41 2680.77 1867.39C2673.8 1862 2665.74 1856.33 2660.25 1850.05C2694.3 1840.69 2701.39 1838.89 2731.47 1822.58L2744.48 1813.35C2746.91 1812.02 2753.54 1806.59 2756.03 1804.66Z"/><path fill="#F3986A" d="M2756.03 1804.66L2762.85 1802.74L2766.3 1804.85L2767.25 1811.07L2775.44 1829.08C2760.25 1831.88 2751.08 1824.14 2731.47 1822.58L2744.48 1813.35C2746.91 1812.02 2753.54 1806.59 2756.03 1804.66Z"/><path fill="#6A4649" d="M2779.86 1831.86C2787.2 1825.99 2792.46 1825.04 2802.28 1821.95L2809.91 1829.69C2819.59 1839.18 2823.06 1841.35 2834.77 1848.99C2827.07 1858.82 2824.49 1858.21 2809.55 1861.86C2797.19 1855.56 2790.51 1847.88 2781.2 1838.84L2779.86 1831.86Z"/><path fill="#6A4649" d="M2514.77 1260.65C2592.46 1324.82 2621.27 1382.6 2653.26 1465.99C2645.96 1478.58 2639.54 1474.51 2636.23 1486.79L2632.4 1488.82L2629.37 1485.41C2629.39 1483.49 2629.49 1481.77 2628.98 1479.89C2611.95 1418.25 2551.94 1311.23 2488.58 1274.48L2514.77 1260.65Z"/><defs><linearGradient id="gradient_4" gradientUnits="userSpaceOnUse" x1="2617.9326" y1="1884.6799" x2="2738.792" y2="1881.4199"><stop offset="0" stop-color="#673F47"/><stop offset="1" stop-color="#955E54"/></linearGradient></defs><path fill="url(#gradient_4)" d="M2684.46 1814.58C2694.65 1814.26 2736.63 1812.42 2744.48 1813.35L2731.47 1822.58C2701.39 1838.89 2694.3 1840.69 2660.25 1850.05C2618.5 1875.62 2646.24 1904.37 2686.84 1907.39C2695.35 1908.03 2703.92 1907.98 2712.42 1907.25C2714.47 1920.68 2706.72 1960.17 2702.99 1973.74C2701.72 1961.14 2699.09 1946.3 2697.25 1933.55C2673.52 1933.29 2655.03 1931.07 2636.29 1917.35C2622.16 1907.19 2614.05 1892.66 2614 1877.4C2613.9 1845.1 2630.99 1843.64 2651.62 1824.43C2663.54 1821.77 2673.12 1818.37 2684.46 1814.58Z"/><path fill="#D17559" d="M2017.65 1330.12C2015.93 1343.41 2001.35 1351.08 2001.62 1359.11C2012.66 1359.9 2011.99 1358.91 2017.91 1351.32C2033.23 1346.42 2037.38 1362.62 2046.61 1365.63C2086.75 1378.7 2105.31 1412.15 2154.65 1393.84C2244.43 1360.53 2266.63 1336.12 2344.63 1408.81C2349.36 1402.98 2352.85 1397.06 2360.56 1394.34C2369.97 1395.48 2368.36 1396.25 2377.01 1402.09C2410.77 1395.31 2430.24 1392.7 2453.41 1371.28C2474 1386.31 2494.98 1401.15 2515.38 1416.34C2535.26 1431.15 2548.99 1443.36 2550.11 1466.09C2550.2 1468 2550.25 1469.91 2550.24 1471.82C2548.87 1467.98 2543.06 1451.78 2541.19 1449.11C2525.85 1427.16 2486.47 1399.13 2461.95 1384.5C2443.32 1389.31 2366.72 1418.16 2352.93 1414.42C2325.93 1407.08 2292.51 1380.14 2263.6 1368.21C2213.32 1378.84 2182.7 1401.52 2131.25 1413.68C2073.89 1403.83 2064.58 1366.47 2005.27 1367.77L1985.58 1367.38C1994.21 1354.46 2005.87 1341.32 2017.65 1330.12Z"/><path fill="#DB5F4F" d="M2584.51 1746.31C2586.94 1750.19 2589.07 1754.15 2589.05 1759.39C2588.84 1803.32 2588.21 1846.9 2589.33 1890.87C2589.38 1893.01 2582.59 1898.43 2580.58 1900.08C2579.87 1906.14 2585.22 1912.59 2588.88 1918.34C2579.29 1922.57 2569.94 1925.74 2563.24 1932.47L2562.36 1939.34L2558.54 1941.7C2552.78 1939.5 2555.41 1940.69 2551.27 1935.14C2541.17 1939.04 2541.91 1945.39 2540.36 1953.89L2536.73 1956.22L2527.59 1954.38C2533.4 1946.01 2539.61 1929.58 2544.26 1920.05C2573.15 1860.82 2581.95 1809.3 2584.51 1746.31Z"/><path fill="#DB5F4F" d="M2517.08 1967.68C2518.83 1970.19 2523.74 1975.91 2522.79 1977.72C2513.88 1994.59 2476.49 2018.82 2465.29 2033.28C2459.05 2033.99 2459.39 2033.76 2453.36 2032.01L2453.97 2031.09C2462.32 2018.18 2484.01 2004.02 2496.11 1992.27C2505.1 1983.54 2509.92 1977.31 2517.08 1967.68Z"/><path fill="#DB5F4F" d="M2477.74 2134.65C2479.9 2127.17 2484.64 2115.82 2494.38 2113.28L2496.98 2116.88C2514.04 2113.14 2512.07 2104.45 2533.79 2101.01L2481.14 2142.96L2477.74 2134.65Z"/><path fill="#DB5F4F" d="M2541.65 2018.58C2543.72 2019.26 2547.53 2021.01 2549.64 2021.91C2551.99 2027.46 2550.19 2027.62 2547.32 2034.63C2544.05 2034.41 2544.47 2034.1 2541.25 2032.6C2538.61 2026.75 2539.95 2024.64 2541.65 2018.58Z"/><path fill="#E6674C" d="M3147.47 1321.75C3156.79 1324.08 3166.02 1327.35 3175.07 1330.34C3200.49 1340.99 3215.21 1367.49 3243.61 1347.14C3252.59 1357.37 3258.76 1364.7 3266.53 1375.51C3289.31 1406.99 3317.59 1470.2 3319.84 1506.79C3337.02 1574.95 3310.12 1677.33 3260.8 1734.6C3220.47 1781.45 3180.96 1804.01 3115.58 1822.85C3041.02 1831.24 3024.24 1832.04 2951.76 1810.3C2936.48 1814.85 2923.72 1814.78 2909.07 1819.25C2893.02 1811.75 2879.23 1800.72 2866.13 1790.29C2861.38 1785.99 2856.44 1780.66 2851.96 1776.06C2847.3 1772.14 2841.22 1765.05 2837.03 1760.51L2832.28 1756.04C2827.14 1748.74 2822.12 1741.39 2817.24 1733.98C2818.07 1723.41 2819.11 1694.44 2824.27 1686.63C2812.89 1634.74 2809.15 1616.83 2841.05 1570.06C2891.71 1521.6 2952.06 1553.4 3012.23 1519.36C3029.93 1509.34 3045.89 1493.63 3059.9 1480.5C3108.31 1458.99 3132.97 1363.68 3147.47 1321.75Z"/><path fill="#DB5F4F" d="M3319.84 1506.79C3337.02 1574.95 3310.12 1677.33 3260.8 1734.6C3220.47 1781.45 3180.96 1804.01 3115.58 1822.85C3041.02 1831.24 3024.24 1832.04 2951.76 1810.3C2936.48 1814.85 2923.72 1814.78 2909.07 1819.25C2893.02 1811.75 2879.23 1800.72 2866.13 1790.29C2861.38 1785.99 2856.44 1780.66 2851.96 1776.06C2859.75 1777.93 2866.59 1782 2874.34 1781.03C2879.54 1775.18 2877.95 1774.95 2879.09 1766.63C2882.25 1769.03 2891.04 1775.99 2894.14 1777.52C2922.15 1784.87 2950.31 1808.11 2979.77 1814.84C3008.12 1821.31 3033.9 1825.95 3061.29 1814.14C3069.94 1816.75 3075.04 1819.56 3082.99 1823.42C3096.9 1820.92 3111.65 1818.81 3120.28 1808.02C3116.47 1805.85 3114.47 1804.7 3111.01 1802.19C3120.05 1796.03 3133.62 1801.46 3144.2 1802.5C3164.27 1804.47 3170.6 1797.92 3184.32 1788.08C3193.26 1782.97 3204.14 1778.09 3212.39 1772.24C3281.75 1723.09 3311.53 1649.78 3319.3 1577.46C3321.67 1555.41 3316.25 1533.2 3319.36 1510.14L3319.84 1506.79Z"/><path fill="#6A4649" d="M2879.09 1766.63C2882.25 1769.03 2891.04 1775.99 2894.14 1777.52C2911.75 1792.31 2929.45 1800.31 2951.76 1810.3C2936.48 1814.85 2923.72 1814.78 2909.07 1819.25C2893.02 1811.75 2879.23 1800.72 2866.13 1790.29C2861.38 1785.99 2856.44 1780.66 2851.96 1776.06C2859.75 1777.93 2866.59 1782 2874.34 1781.03C2879.54 1775.18 2877.95 1774.95 2879.09 1766.63Z"/><path fill="#F4A779" d="M3175.07 1330.34C3200.49 1340.99 3215.21 1367.49 3243.61 1347.14C3252.59 1357.37 3258.76 1364.7 3266.53 1375.51C3266.17 1381.51 3266.08 1382.17 3264.27 1387.98L3260.68 1389.42C3244.8 1386.53 3187.58 1342.51 3175.07 1330.34Z"/><path fill="#825D57" d="M2817.24 1733.98C2818.07 1723.41 2819.11 1694.44 2824.27 1686.63C2827.98 1695.23 2842.13 1724.15 2847.88 1732.14C2847.04 1745.79 2850.97 1751.14 2837.03 1760.51L2832.28 1756.04C2827.14 1748.74 2822.12 1741.39 2817.24 1733.98Z"/><path fill="#825D57" d="M2847.88 1732.14C2856.83 1742.31 2869.36 1757.48 2879.09 1766.63C2877.95 1774.95 2879.54 1775.18 2874.34 1781.03C2866.59 1782 2859.75 1777.93 2851.96 1776.06C2847.3 1772.14 2841.22 1765.05 2837.03 1760.51C2850.97 1751.14 2847.04 1745.79 2847.88 1732.14Z"/><path fill="#F4A779" d="M3208.93 1433.26C3230.4 1435.52 3238.34 1448.84 3243.24 1464.59C3255.88 1505.88 3247.5 1549.54 3219.95 1585.82C3213.07 1590.35 3205.55 1591.7 3197.49 1589.05C3177.19 1568.92 3196.95 1530 3197.18 1507.87C3197.52 1474.83 3184.01 1463.95 3208.93 1433.26Z"/><path fill="#F4A779" d="M3173.73 1616.33C3206.25 1619.75 3193.61 1641.1 3178.47 1653.63C3166.09 1653.1 3163.1 1653.31 3157.31 1644.16C3157.21 1631.49 3164.19 1626.11 3173.73 1616.33Z"/><path fill="#F37954" d="M3270.02 1427.84C3285.1 1439.34 3268.53 1456.6 3283.16 1466.4C3295.31 1467.78 3300.93 1466.36 3303.63 1476.36C3298.62 1484.83 3297.52 1475.1 3286.13 1486.1C3289.19 1493.65 3289.96 1495.92 3282.69 1502.22L3278.79 1501.46C3267.36 1491.9 3270.19 1443.19 3270.02 1427.84Z"/><defs><linearGradient id="gradient_5" gradientUnits="userSpaceOnUse" x1="1853.4077" y1="1190.116" x2="1870.7596" y2="1437.0226"><stop offset="0" stop-color="#BD8F7B"/><stop offset="1" stop-color="#E4C29D"/></linearGradient></defs><path fill="url(#gradient_5)" d="M1936.97 1181.96C1964.32 1206.43 2007.06 1243.39 2030.42 1271.42C2032.4 1273.79 2030.79 1274.68 2028.98 1278.05C2044.13 1294.29 2043.37 1285.76 2056.29 1292.58C2044.72 1301.09 2023.28 1318.34 2017.65 1330.12C2005.87 1341.32 1994.21 1354.46 1985.58 1367.38C1972.58 1389.45 1960.03 1411.7 1947.94 1434.11C1940.01 1429.04 1933.56 1416.65 1930.12 1408.97L1928.68 1410.22L1913.13 1442.65C1860.64 1444.41 1816.45 1496.85 1778.81 1445.53C1779.84 1440.64 1787.38 1433.53 1791.25 1424.24C1787.01 1417.58 1779.86 1410.08 1773 1405.08C1764.05 1393.89 1756.35 1389.42 1743.9 1380.88C1736.43 1363.78 1728.43 1350.72 1716.67 1335.44C1713.45 1331.39 1709.82 1328.24 1705.97 1324.55C1701.1 1318.57 1692.63 1310.86 1686.75 1305.18C1714.35 1299.29 1747.47 1293.11 1773.22 1283.73C1808.37 1270.92 1835.74 1245.69 1865.39 1225.74C1889.76 1209.35 1910.87 1196.6 1936.97 1181.96Z"/><path fill="#6A4649" d="M2028.98 1278.05C2044.13 1294.29 2043.37 1285.76 2056.29 1292.58C2044.72 1301.09 2023.28 1318.34 2017.65 1330.12C2005.87 1341.32 1994.21 1354.46 1985.58 1367.38C1972.58 1389.45 1960.03 1411.7 1947.94 1434.11C1940.01 1429.04 1933.56 1416.65 1930.12 1408.97C1956.33 1362.37 1987.63 1317.05 2028.98 1278.05Z"/><path fill="#F4A779" d="M1811.86 1444.9C1849.68 1433.36 1890.5 1419.85 1928.68 1410.22L1913.13 1442.65C1860.64 1444.41 1816.45 1496.85 1778.81 1445.53C1779.84 1440.64 1787.38 1433.53 1791.25 1424.24C1797.52 1431.07 1805.14 1438.26 1811.86 1444.9Z"/><defs><linearGradient id="gradient_6" gradientUnits="userSpaceOnUse" x1="2716.9849" y1="1284.0518" x2="2580.3472" y2="1484.9805"><stop offset="0" stop-color="#C1927C"/><stop offset="1" stop-color="#E8C29A"/></linearGradient></defs><path fill="url(#gradient_6)" d="M2514.77 1260.65C2521.59 1257.67 2525.48 1255.02 2532.94 1255.98C2550.96 1264.1 2563.12 1277.28 2577.1 1288.99C2613.08 1319.14 2647.1 1357.87 2691.46 1379.87C2709.7 1378.66 2709.15 1378.12 2726.05 1374.54C2761.17 1367.1 2832.77 1325.99 2864.05 1347.29C2866.5 1348.96 2868.89 1350.68 2871.21 1352.45C2877.94 1357.05 2886.72 1362.68 2892.86 1367.55C2863.56 1394.11 2840.15 1430.55 2829.35 1464.99L2827.85 1470.24L2823.84 1485.9C2822.51 1493.06 2820.78 1500.86 2820.12 1508.01C2805.83 1509.82 2800.22 1501.19 2795.07 1492.12L2793.54 1493.49L2793.86 1522.97C2758.38 1511.04 2725.38 1567.05 2685.77 1562.15C2683.06 1561.82 2681.26 1563.43 2679.06 1564.68L2670.16 1527.58C2668.07 1516.58 2664.5 1503.56 2661.83 1492.47C2658.08 1483.03 2655.95 1475.56 2653.26 1465.99C2621.27 1382.6 2592.46 1324.82 2514.77 1260.65Z"/><defs><linearGradient id="gradient_7" gradientUnits="userSpaceOnUse" x1="2729.9551" y1="1497.4249" x2="2734.8152" y2="1555.7686"><stop offset="0" stop-color="#D39C79"/><stop offset="1" stop-color="#F3BE8D"/></linearGradient></defs><path fill="url(#gradient_7)" d="M2694.63 1538.69C2728.27 1524.12 2756.7 1489.2 2793.54 1493.49L2793.86 1522.97C2758.38 1511.04 2725.38 1567.05 2685.77 1562.15C2683.06 1561.82 2681.26 1563.43 2679.06 1564.68L2670.16 1527.58L2694.63 1538.69Z"/><path fill="#6A4649" d="M2871.21 1352.45C2877.94 1357.05 2886.72 1362.68 2892.86 1367.55C2863.56 1394.11 2840.15 1430.55 2829.35 1464.99C2815.8 1464.82 2813.4 1464.29 2803.14 1457.52C2819.75 1414.99 2835.49 1386.46 2871.21 1352.45Z"/><path fill="#825D57" d="M2803.14 1457.52C2813.4 1464.29 2815.8 1464.82 2829.35 1464.99L2827.85 1470.24L2823.84 1485.9C2822.51 1493.06 2820.78 1500.86 2820.12 1508.01C2805.83 1509.82 2800.22 1501.19 2795.07 1492.12L2803.14 1457.52Z"/><path fill="#DB5F4F" d="M2892.86 1367.55C2917.9 1384.24 2945.51 1403.1 2971.78 1418.5C2972.45 1433.96 2973.42 1446.97 2976.36 1462.32C2945.76 1458.39 2903.48 1457.45 2877.27 1472.86C2873.65 1474.98 2870.22 1477.32 2867 1479.84C2862.95 1484.11 2852.44 1494.36 2849.53 1498.35C2830.08 1503.26 2839.38 1490.9 2823.84 1485.9L2827.85 1470.24L2829.35 1464.99C2840.15 1430.55 2863.56 1394.11 2892.86 1367.55Z"/><path fill="#D17559" d="M2827.85 1470.24C2838 1473.65 2851.04 1479.03 2861.55 1476.39L2867 1479.84C2862.95 1484.11 2852.44 1494.36 2849.53 1498.35C2830.08 1503.26 2839.38 1490.9 2823.84 1485.9L2827.85 1470.24Z"/><path fill="#E6674C" d="M2867 1479.84C2870.22 1477.32 2873.65 1474.98 2877.27 1472.86C2903.48 1457.45 2945.76 1458.39 2976.36 1462.32C2980.48 1475.78 2984.46 1489.8 2989.74 1502.95C2930.66 1518.01 2875.13 1506.33 2832.51 1543.76L2831.81 1545.74C2827.83 1547.01 2828.64 1546.62 2824.19 1546.88C2815.38 1538.77 2819.26 1519.8 2820.12 1508.01C2820.78 1500.86 2822.51 1493.06 2823.84 1485.9C2839.38 1490.9 2830.08 1503.26 2849.53 1498.35C2852.44 1494.36 2862.95 1484.11 2867 1479.84Z"/><path fill="#F37954" d="M2823.84 1485.9C2839.38 1490.9 2830.08 1503.26 2849.53 1498.35C2842.56 1514.11 2825.91 1526.77 2832.51 1543.76L2831.81 1545.74C2827.83 1547.01 2828.64 1546.62 2824.19 1546.88C2815.38 1538.77 2819.26 1519.8 2820.12 1508.01C2820.78 1500.86 2822.51 1493.06 2823.84 1485.9Z"/><path fill="#EFBF93" d="M3059.9 1480.5C3075.76 1454.4 3086.59 1434.29 3098.39 1404.94C3111.66 1372.9 3107.78 1317.81 3135.24 1291.91C3161.85 1266.8 3229.68 1333.56 3243.61 1347.14C3215.21 1367.49 3200.49 1340.99 3175.07 1330.34C3166.02 1327.35 3156.79 1324.08 3147.47 1321.75C3132.97 1363.68 3108.31 1458.99 3059.9 1480.5Z"/><path fill="#825D57" d="M1548.73 1344.03C1552.1 1337.83 1552.46 1336.01 1559.07 1331.67C1567.09 1330.41 1563.35 1329.96 1570.65 1333.22C1576.17 1340.25 1577.21 1346.78 1567.85 1351.59C1561.54 1349.74 1554.75 1346.58 1548.73 1344.03Z"/><defs><linearGradient id="gradient_8" gradientUnits="userSpaceOnUse" x1="3120.1624" y1="1157.0585" x2="1771.2094" y2="883.01752"><stop offset="0" stop-color="#EED4B8"/><stop offset="1" stop-color="#FBFAEF"/></linearGradient></defs><path fill="url(#gradient_8)" d="M1566.62 1305C1675.44 1056.31 1841.58 811.497 2119.23 660.083C2202.37 614.741 2336.61 576.221 2437.7 594.186C2565.36 607.517 2673.09 689.178 2747.82 769.122C2936.08 970.493 3004.09 1188.26 3044.55 1433C2983.27 1396.75 2923.86 1356.17 2864.45 1318.18C2850.44 1309.21 2819.84 1315.41 2805.18 1320.45C2767.96 1332.81 2732.86 1346.54 2694.35 1356.49C2654.45 1324.23 2617.3 1289.64 2578.18 1256.76C2557.36 1239.27 2538.7 1220.94 2506.75 1236.43C2455.63 1261.2 2409.17 1291.28 2355.9 1313.79C2333.23 1301.82 2296.86 1280.68 2274.82 1271.28C2225.03 1277.93 2170.53 1300.32 2123.97 1317.46C2095.43 1293.91 1958.34 1161.17 1940.04 1158.15C1910.76 1153.31 1803.74 1242.17 1771.13 1257.04C1734.28 1273.85 1684.98 1279.31 1643.87 1286.83L1566.62 1305Z"/><path fill="#FCFBF9" d="M1566.62 1305C1675.44 1056.31 1841.58 811.497 2119.23 660.083C2202.37 614.741 2336.61 576.221 2437.7 594.186C2413.28 605.27 2367.55 605.879 2340.73 613.22C2013.62 702.748 1761.34 996.355 1656.76 1246.99C1651.18 1259.98 1646.86 1273.3 1643.87 1286.83L1566.62 1305Z"/><path fill="#FCFBF9" d="M2165.27 741.655C2232.18 737.184 2235.76 779.585 2214.5 819.006C2184.22 875.118 2124.79 923.405 2053.99 946.768C1965.64 956.933 1992.27 877.738 2019.04 841.438C2054.32 793.583 2097.84 757.338 2165.27 741.655Z"/><path fill="#F7E3C7" d="M2699.76 923.464L2702.17 924.403C2708.34 932.84 2695.41 945.289 2696.75 954.751C2703.52 952.037 2701.51 951.765 2707.93 952.049C2707.79 953.635 2707.66 955.221 2707.52 956.806C2704.27 965.91 2714.04 977.067 2713.95 984.401C2713.77 998.503 2706.82 1004.66 2712.74 1019.48C2719.41 1025.03 2717.86 1023.33 2728.98 1025.35C2732.85 1029.97 2731.21 1039.04 2732.6 1046.97C2736.6 1050.72 2740.33 1053.27 2741.44 1058C2734.78 1056.17 2737.99 1056.07 2731.61 1057C2728.14 1064.38 2732.58 1075.35 2735.69 1082.76L2737.13 1086.17C2745.78 1107.12 2766.86 1107.82 2770.92 1121.8C2765.79 1133.53 2754.43 1131.13 2754.73 1141.91C2758.24 1143.28 2761.73 1144.19 2765.51 1144.99C2767.62 1152.21 2760.94 1162.27 2760.85 1168.75C2760.78 1174.07 2766.59 1185.3 2767.57 1191.62C2768.65 1198.5 2762.46 1218.75 2763.17 1223.45C2766.78 1247.4 2772.04 1242.64 2765.42 1266.78C2763.42 1274.58 2763.85 1283.49 2752.83 1283.55L2749.93 1279.73C2750.49 1272.3 2749.32 1275.89 2755.07 1268.95C2750.92 1265.57 2748.66 1264.65 2743.82 1261.99L2744.34 1259.75C2749.2 1259.1 2754.05 1258.39 2758.89 1257.63C2762.5 1253.52 2762.28 1250.72 2763.02 1245.71C2758.79 1238.77 2761.76 1240.78 2755.23 1237.22C2749.84 1242.72 2756.39 1244.84 2748.73 1250.72C2740.66 1252.69 2741 1252.91 2732.33 1251.28C2729.59 1249.44 2725.61 1247.4 2725.47 1244.23C2724.6 1225.32 2729.73 1201.61 2726.73 1182.9C2718.37 1128.83 2717.02 1074.97 2706.49 1020.88C2699.4 984.486 2677.71 959.001 2699.76 923.464Z"/><path fill="#FCFBF9" d="M1931.12 962.797C2001.35 966.634 1956.73 1026.86 1916.88 1046.12C1858.1 1047.31 1882.35 979.446 1931.12 962.797Z"/><path fill="#F7E3C7" d="M2604.29 753.443C2616.93 759.61 2610.91 765.761 2619.05 775.095C2620.65 776.936 2633.72 784.583 2633.82 785.365C2635.95 802.108 2638.25 818.807 2647.3 834.322C2657.16 851.241 2672.8 850.182 2679.99 864.243L2656.77 867.749C2645.12 849.024 2604.14 770.81 2604.29 753.443Z"/><path fill="#F7E3C7" d="M2802.19 1066.76C2812.76 1067.57 2820.87 1066.87 2827.86 1071.9C2828.86 1078.52 2824.34 1084.67 2820.89 1091C2817.43 1094.17 2818.98 1093.21 2814.04 1094.78C2808.83 1091.64 2806.71 1087.23 2803.27 1082.89C2797.43 1075.51 2799.56 1074.68 2802.19 1066.76Z"/><path fill="#F7E3C7" d="M2672.17 1235.22C2679.39 1236.86 2679.93 1236.47 2684.74 1241.27C2686.51 1247.28 2683.87 1251.46 2681.52 1257.49C2674.81 1256.18 2675.07 1256.53 2670.5 1252.45C2668 1245.94 2670.18 1241.91 2672.17 1235.22Z"/><path fill="#D2A18F" d="M3000.24 1436.98C3012.06 1443.6 3030.27 1452.87 3037.37 1462.82C3028.98 1472.77 3021.42 1481.85 3012.13 1491.29L3004.15 1462.16C3002.86 1453.94 3001.27 1445.16 3000.24 1436.98Z"/><path fill="#A06959" d="M3004.15 1462.16C3016.29 1463.29 3025.23 1464.68 3037.37 1462.82C3028.98 1472.77 3021.42 1481.85 3012.13 1491.29L3004.15 1462.16Z"/><path fill="#645A5A" d="M2795.98 1957.11C2818.04 1948.31 2834.46 1934.94 2855.4 1930.54C2862.92 1928.96 2870.53 1935.45 2875.93 1939.67C2880.93 1943.47 2887.69 1948.31 2892 1952.37C2902.04 1959.07 2909.33 1966.13 2917.99 1973.93L2924.23 1979.64C2939.47 1993.7 2955.51 2011.94 2972.46 2023.11C2993.21 2018.69 3047.68 2011.52 3066.66 2019.72C3096.02 2047.39 3098.52 2199.91 3097.57 2240.46C3092 2479.02 2979.09 2758.15 2749.76 2916.05C2729.91 2929.57 2709.51 2942.56 2688.61 2955.02C2696.59 2955.88 2708.62 2956.87 2716.16 2958.18C2795.56 2965.67 3137.79 3030.05 2873.91 3084.32C2599.83 3140.69 2293.18 3139.36 2012.48 3124.42C1917.47 3118.94 1776.87 3102.83 1686.14 3079.11C1468.44 3022.19 1790.03 2966.26 1855.73 2961.93C1866.81 2959.13 1878.89 2958.43 1890.52 2957.31C1748.94 2868.76 1677.45 2797.11 1597.74 2667.51C1502.19 2512.15 1467.77 2346.66 1476.78 2173.84C1477.78 2154.68 1476.21 2135.61 1476.99 2116.47C1478.81 2098.51 1482.57 2076.13 1484.93 2057.47C1490.31 2000.68 1494.35 2003.28 1567.88 2010.82C1580.29 2012.09 1606.16 2015.36 1616.93 2019.13C1629.25 2018.64 1638.36 2017.74 1650.47 2020.16C1654.12 2016.98 1655.9 2016.08 1660.25 2013.47L1674.68 1998.64C1684.22 1989.99 1692.19 1980.04 1702.99 1970.58C1741.6 1925.31 1748.55 1933.38 1802.15 1960.53C1809.97 1966.97 1805.95 1982.05 1805.05 1991.21L1807.52 2000.69C1806.6 2019.37 1805.44 2044.79 1809.24 2063.18C1821.98 2061.66 1823.54 2054.56 1834.27 2048.14L1835.86 2048.79C1842.53 2047.31 1853.09 2038.08 1858.75 2033.76C1906.86 1996.9 1919.11 1995.27 1966.31 2033.58C1973.88 2039.73 1986.37 2050.41 1994.13 2055.59C2015.58 2054.96 2061.31 2072.85 2085.01 2077.31C2183.35 2095.81 2282.33 2093.32 2379.71 2072.45C2393.76 2069.44 2422.98 2056.37 2433.22 2056.13L2434.67 2056.78C2438.42 2054.68 2444.59 2052.65 2448.91 2051.02C2462.58 2082.67 2469.56 2101.67 2477.74 2134.65L2481.14 2142.96L2533.79 2101.01C2578.3 2073.22 2601.32 2036.5 2659.07 2012.19C2682.5 2020.99 2696.04 2031.75 2715.25 2045.14L2716.14 2045.22C2722.83 2035.59 2722.75 2022.66 2729.9 2010.15C2733.62 2011.53 2735.76 2026.03 2740.51 2032.09C2740.07 2023.62 2738.27 2013.38 2737.08 2004.8C2735.64 1994.62 2730.37 1987.45 2739.45 1979.88C2748.79 1973.77 2784.43 1959.82 2795.98 1957.11Z"/><path fill="#D2A18F" d="M2659.92 2966.26L2678.47 2955.91L2675.44 2957.09C2691.47 2958.38 2700.1 2959.37 2716.16 2958.18C2795.56 2965.67 3137.79 3030.05 2873.91 3084.32C2599.83 3140.69 2293.18 3139.36 2012.48 3124.42C1917.47 3118.94 1776.87 3102.83 1686.14 3079.11C1468.44 3022.19 1790.03 2966.26 1855.73 2961.93C1871.82 2962.26 1882.78 2960.65 1898.68 2958.78L1911.54 2966.19C1939.65 2978.36 1966.27 2993.38 1994.36 3004.46C2017.03 3011.79 2040.41 3020.74 2063.19 3027.59C2192.17 3066.4 2336.5 3070.14 2468.33 3038.11C2513.33 3027.18 2552.9 3012.52 2595.31 2997.52C2616.76 2986.98 2638.3 2976.56 2659.92 2966.26Z"/><path fill="#F7E3C7" d="M2659.92 2966.26L2678.47 2955.91L2675.44 2957.09C2691.47 2958.38 2700.1 2959.37 2716.16 2958.18C2795.56 2965.67 3137.79 3030.05 2873.91 3084.32C2599.83 3140.69 2293.18 3139.36 2012.48 3124.42C1917.47 3118.94 1776.87 3102.83 1686.14 3079.11C1468.44 3022.19 1790.03 2966.26 1855.73 2961.93C1871.82 2962.26 1882.78 2960.65 1898.68 2958.78L1911.54 2966.19C1884.35 2976.92 1846.06 2978.36 1816.43 2983.46C1759.2 2993.31 1662.01 2997.55 1625.13 3038.3C1688.98 3095.61 2029.09 3113.89 2124.08 3118.07C2306.24 3125.9 2488.91 3120.87 2669.98 3103.04C2716.4 3098.42 2934.9 3077.43 2949.92 3038.58C2948.07 3002.56 2762.06 2979.99 2722.57 2974.42C2707.07 2972.24 2671.41 2971.35 2659.92 2966.26Z"/><path fill="#D17559" d="M2595.31 2997.52L2600 3002.94C2594.7 3007.1 2566.74 3014.26 2557.3 3017.4C2473.86 3045.12 2387.97 3065.26 2296.95 3065.37C2278.36 3065.39 2257.83 3070.69 2240.5 3066.46C2231.57 3064.28 2224.31 3061.26 2215.47 3065.23L2216.48 3067.19C2217.94 3070.06 2217.41 3068.91 2218.51 3072C2190.71 3080.09 2135.52 3067.95 2108.35 3060.36L2112.62 3060.19C2139.27 3059.22 2164.43 3066.46 2184.35 3062.02L2186.25 3060.12C2175.07 3057.82 2161.05 3055.82 2149.23 3053.84C2098.32 3045.32 2052.02 3028.12 2002.88 3016.02C1995.41 3014.18 1980.54 3016.92 1972.99 3018.15C1978.84 3014.69 1990.01 3008.58 1994.36 3004.46C2017.03 3011.79 2040.41 3020.74 2063.19 3027.59C2192.17 3066.4 2336.5 3070.14 2468.33 3038.11C2513.33 3027.18 2552.9 3012.52 2595.31 2997.52Z"/><defs><linearGradient id="gradient_9" gradientUnits="userSpaceOnUse" x1="2872.0518" y1="2137.8179" x2="2873.6401" y2="1961.9641"><stop offset="0" stop-color="#CE9E82"/><stop offset="1" stop-color="#E2BB9B"/></linearGradient></defs><path fill="url(#gradient_9)" d="M2795.98 1957.11C2818.04 1948.31 2834.46 1934.94 2855.4 1930.54C2862.92 1928.96 2870.53 1935.45 2875.93 1939.67C2880.93 1943.47 2887.69 1948.31 2892 1952.37C2902.04 1959.07 2909.33 1966.13 2917.99 1973.93L2924.23 1979.64C2939.47 1993.7 2955.51 2011.94 2972.46 2023.11C2978.09 2025.55 2981.69 2025.14 2987.84 2025.13C2986.86 2026 2959.76 2034.59 2954.22 2036.75L2952.98 2039.54C2963.49 2052.47 3004.39 2040.66 3016.16 2046.65L3015.11 2049.45L3013.99 2049.93C2964.54 2088.32 2918.41 2113.36 2861.53 2143.63C2824.07 2122.48 2783.12 2092.66 2747.98 2068.18C2745.83 2055.85 2744.03 2044.23 2740.51 2032.09C2740.07 2023.62 2738.27 2013.38 2737.08 2004.8C2735.64 1994.62 2730.37 1987.45 2739.45 1979.88C2748.79 1973.77 2784.43 1959.82 2795.98 1957.11Z"/><path fill="#D2A18F" d="M2795.98 1957.11C2818.04 1948.31 2834.46 1934.94 2855.4 1930.54C2862.92 1928.96 2870.53 1935.45 2875.93 1939.67C2866.47 1944.45 2861.79 1944.77 2850.89 1946.82L2859.5 1960.36C2856.98 1959.93 2854.45 1959.5 2851.92 1959.07C2811.66 1971.31 2777.72 1992.11 2737.08 2004.8C2735.64 1994.62 2730.37 1987.45 2739.45 1979.88C2748.79 1973.77 2784.43 1959.82 2795.98 1957.11Z"/><path fill="#EFBF93" d="M2795.98 1957.11C2818.04 1948.31 2834.46 1934.94 2855.4 1930.54C2862.92 1928.96 2870.53 1935.45 2875.93 1939.67C2866.47 1944.45 2861.79 1944.77 2850.89 1946.82C2837.73 1950.59 2808.25 1962.45 2798.58 1959.92L2795.98 1957.11Z"/><path fill="#A06959" d="M2924.23 1979.64C2939.47 1993.7 2955.51 2011.94 2972.46 2023.11C2978.09 2025.55 2981.69 2025.14 2987.84 2025.13C2986.86 2026 2959.76 2034.59 2954.22 2036.75L2952.98 2039.54C2963.49 2052.47 3004.39 2040.66 3016.16 2046.65L3015.11 2049.45L3013.99 2049.93C3005.77 2047.33 2970.19 2049.96 2959.12 2050.46C2936.32 2030.94 2913.9 2009.53 2892.02 1989.19C2901.79 1984.34 2908.17 1987.22 2924.23 1979.64Z"/><path fill="#D2A18F" d="M2875.93 1939.67C2880.93 1943.47 2887.69 1948.31 2892 1952.37C2902.04 1959.07 2909.33 1966.13 2917.99 1973.93L2924.23 1979.64C2908.17 1987.22 2901.79 1984.34 2892.02 1989.19L2874.67 1973.62C2869.68 1970.33 2865.39 1965.8 2861.18 1961.78L2859.5 1960.36L2850.89 1946.82C2861.79 1944.77 2866.47 1944.45 2875.93 1939.67Z"/><path fill="#F4A779" d="M2875.93 1939.67C2880.93 1943.47 2887.69 1948.31 2892 1952.37C2884.14 1960.36 2876.48 1955.71 2861.18 1961.78L2859.5 1960.36L2850.89 1946.82C2861.79 1944.77 2866.47 1944.45 2875.93 1939.67Z"/><path fill="#F3986A" d="M2874.67 1973.62C2889.46 1970.86 2902.85 1972.77 2917.99 1973.93L2924.23 1979.64C2908.17 1987.22 2901.79 1984.34 2892.02 1989.19L2874.67 1973.62Z"/><defs><linearGradient id="gradient_10" gradientUnits="userSpaceOnUse" x1="1736.8612" y1="2136.3777" x2="1667.2635" y2="1992.1323"><stop offset="0" stop-color="#C89A7E"/><stop offset="1" stop-color="#E4BD99"/></linearGradient></defs><path fill="url(#gradient_10)" d="M1702.99 1970.58C1741.6 1925.31 1748.55 1933.38 1802.15 1960.53C1809.97 1966.97 1805.95 1982.05 1805.05 1991.21L1807.52 2000.69C1806.6 2019.37 1805.44 2044.79 1809.24 2063.18C1809.01 2066.61 1808.47 2069.93 1805.32 2072.49C1769.34 2101.75 1724.28 2132.1 1686.45 2159.77C1638.07 2123.27 1598.21 2076.41 1555.61 2044.95L1556.66 2041.86C1576.25 2037.01 1632.14 2058.01 1663.24 2049.72C1668.44 2046.35 1673.68 2040.04 1677.85 2035.52L1693.04 2019.07C1679.98 2017.81 1672.63 2017.55 1660.25 2013.47L1674.68 1998.64C1684.22 1989.99 1692.19 1980.04 1702.99 1970.58Z"/><path fill="#F4A779" d="M1702.99 1970.58C1741.6 1925.31 1748.55 1933.38 1802.15 1960.53C1809.97 1966.97 1805.95 1982.05 1805.05 1991.21C1784.32 1984.37 1758.26 1957.03 1740.71 1968C1729.88 1969.37 1718.27 1972.46 1706 1974.15L1702.99 1970.58Z"/><path fill="#D2A18F" d="M1702.99 1970.58L1706 1974.15C1718.27 1972.46 1729.88 1969.37 1740.71 1968C1736.15 1973.49 1723.37 1989.65 1717.14 1992.55C1708.79 2003.21 1702.89 2009.22 1693.04 2019.07C1679.98 2017.81 1672.63 2017.55 1660.25 2013.47L1674.68 1998.64C1684.22 1989.99 1692.19 1980.04 1702.99 1970.58Z"/><path fill="#F3986A" d="M1674.68 1998.64C1700.18 2003.49 1695.03 1999.32 1717.14 1992.55C1708.79 2003.21 1702.89 2009.22 1693.04 2019.07C1679.98 2017.81 1672.63 2017.55 1660.25 2013.47L1674.68 1998.64Z"/><defs><linearGradient id="gradient_11" gradientUnits="userSpaceOnUse" x1="2397.9583" y1="2203.1497" x2="2103.8604" y2="1971.8921"><stop offset="0" stop-color="#EB7D5D"/><stop offset="1" stop-color="#FFA070"/></linearGradient></defs><path fill="url(#gradient_11)" d="M2448.91 2051.02C2462.58 2082.67 2469.56 2101.67 2477.74 2134.65L2481.14 2142.96L2467.62 2153.74C2457.26 2162.23 2444.65 2170.51 2433.31 2178.32C2391.71 2156.09 2351.67 2126.33 2306.13 2109.99C2282.34 2101.45 2248.94 2114.34 2226.76 2122C2192.02 2133.99 2157.49 2147.14 2123.31 2160.42C2079.8 2125.84 2036.74 2090.89 1994.13 2055.59C2015.58 2054.96 2061.31 2072.85 2085.01 2077.31C2183.35 2095.81 2282.33 2093.32 2379.71 2072.45C2393.76 2069.44 2422.98 2056.37 2433.22 2056.13L2434.67 2056.78C2438.42 2054.68 2444.59 2052.65 2448.91 2051.02Z"/><path fill="#A06959" d="M2448.91 2051.02C2462.58 2082.67 2469.56 2101.67 2477.74 2134.65L2481.14 2142.96L2467.62 2153.74C2461.46 2120.65 2447.42 2088.57 2434.67 2056.78C2438.42 2054.68 2444.59 2052.65 2448.91 2051.02Z"/><path fill="#A06959" d="M1484.93 2057.47C1490.31 2000.68 1494.35 2003.28 1567.88 2010.82C1580.29 2012.09 1606.16 2015.36 1616.93 2019.13C1629.25 2018.64 1638.36 2017.74 1650.47 2020.16C1654.12 2016.98 1655.9 2016.08 1660.25 2013.47C1672.63 2017.55 1679.98 2017.81 1693.04 2019.07L1677.85 2035.52C1673.68 2040.04 1668.44 2046.35 1663.24 2049.72C1632.14 2058.01 1576.25 2037.01 1556.66 2041.86L1555.61 2044.95C1547.38 2042.57 1551.07 2044.39 1544.81 2038.47L1546.27 2035.85C1559.89 2033.95 1592.2 2042.01 1610.4 2043.45C1602.62 2040.41 1584.59 2034.4 1581.1 2029.31C1585.84 2028.78 1590.07 2028.22 1594.58 2026.93L1595.1 2024.66C1579.04 2018.67 1511.31 2008.08 1498.51 2019.66C1492.15 2036.09 1495.9 2045.36 1487.14 2063.36C1486.3 2061.32 1485.45 2059.56 1484.93 2057.47Z"/><path fill="#A9755E" d="M1660.25 2013.47C1672.63 2017.55 1679.98 2017.81 1693.04 2019.07L1677.85 2035.52C1673.68 2040.04 1668.44 2046.35 1663.24 2049.72C1650.05 2036.87 1631.95 2046.76 1616.93 2019.13C1629.25 2018.64 1638.36 2017.74 1650.47 2020.16C1654.12 2016.98 1655.9 2016.08 1660.25 2013.47Z"/><path fill="#D17559" d="M1660.25 2013.47C1672.63 2017.55 1679.98 2017.81 1693.04 2019.07L1677.85 2035.52C1664.82 2027.89 1659.44 2026.46 1643.28 2026.37L1642.12 2024.6L1648.66 2023.15L1650.47 2020.16C1654.12 2016.98 1655.9 2016.08 1660.25 2013.47Z"/><defs><linearGradient id="gradient_12" gradientUnits="userSpaceOnUse" x1="2456.9221" y1="2803.9688" x2="1940.6931" y2="1900.6288"><stop offset="0" stop-color="#FAD7AD"/><stop offset="1" stop-color="#FDF8E5"/></linearGradient></defs><path fill="url(#gradient_12)" d="M1916.69 2027C1964.85 2061.41 2080.87 2168.79 2121.97 2185.15C2177.53 2172.46 2227.78 2143.38 2290.89 2131.08C2328 2145.58 2395.23 2183.78 2428.09 2204.1C2488.02 2189.71 2591.51 2072.77 2660.01 2040.56C2670.09 2046.1 2679.16 2052.1 2688.27 2058.6C2734.39 2091.54 2782.96 2122.49 2829.37 2155.08C2842.73 2162.88 2845.02 2164.39 2860.6 2169.66C2910.8 2151.1 2946.28 2127.2 2989.59 2100.52C3011.15 2083.27 3030.91 2069.24 3053.88 2053.14C3061.21 2109.63 3069.11 2165.89 3068.03 2222.85C3064.09 2430.76 2988.68 2648 2824.58 2811.33C2705.14 2930.21 2533.41 3015.2 2343.19 3030.94C2173.51 3044.98 1994.53 2993.59 1864.62 2906.3C1851.82 2897.7 1818.71 2874.01 1807.85 2863.03C1773.37 2835.71 1730.5 2795.87 1704.9 2762.71C1675.35 2732.94 1651.7 2695.96 1630.52 2661.8C1506.35 2461.63 1489.87 2261.85 1518.35 2043.87C1559.27 2085.16 1603.79 2125.39 1649.93 2162.92C1674.24 2182.7 1684.65 2188.89 1714.49 2170.54C1783.74 2127.96 1845.77 2066.76 1916.69 2027Z"/><path fill="#EFBF93" d="M2989.59 2100.52C3011.15 2083.27 3030.91 2069.24 3053.88 2053.14C3061.21 2109.63 3069.11 2165.89 3068.03 2222.85C3064.09 2430.76 2988.68 2648 2824.58 2811.33C2705.14 2930.21 2533.41 3015.2 2343.19 3030.94C2173.51 3044.98 1994.53 2993.59 1864.62 2906.3C1851.82 2897.7 1818.71 2874.01 1807.85 2863.03C1773.37 2835.71 1730.5 2795.87 1704.9 2762.71L1717.78 2767.75C1719.81 2758.31 1711.46 2758.82 1714.66 2751.59L1717.32 2751.7L1721.14 2757.27C1729.03 2757.74 1732.01 2751.5 1734.47 2751.36C1745.87 2750.69 1784.61 2778.05 1789.33 2784.54C1801.4 2799.43 1866.9 2832.23 1890.8 2836.4L1893.6 2836.87C1902.6 2837.26 1921.31 2844.99 1930.96 2847.95C1985.91 2864.79 2044.65 2875.46 2103.01 2880.7C2119.01 2882.13 2136.62 2881.43 2151.71 2882.93C2165.24 2892.12 2158.93 2881.9 2171.95 2882.55C2175.55 2879.65 2252.79 2866.91 2259.2 2869.12L2273.27 2865.77L2275.49 2863.88C2319.09 2863.29 2406.08 2825.35 2445.19 2807.15C2446.35 2807.41 2447.5 2807.67 2448.65 2807.93C2478.6 2797.28 2504.77 2775.97 2528.56 2758.8C2593.5 2711.95 2644.29 2659.32 2691.88 2600.79C2701.65 2588.77 2711.7 2571.34 2721.55 2557.83C2727.16 2537.83 2755.04 2500.52 2766.48 2477.2C2806.83 2394.46 2829.68 2306.85 2834.08 2218.02C2834.82 2203.28 2836.8 2180.52 2832.77 2166.74C2827.79 2163.01 2827.11 2162.7 2820.46 2161.54C2823.45 2159.21 2826.22 2157.27 2829.37 2155.08C2842.73 2162.88 2845.02 2164.39 2860.6 2169.66C2910.8 2151.1 2946.28 2127.2 2989.59 2100.52Z"/><path fill="#F7E3C7" d="M2989.59 2100.52C2990.31 2104.47 2990.26 2102.38 2989.47 2106.8L2986.94 2106.21L2984.63 2107.88C2975.99 2114.04 2945.71 2129.1 2944.26 2136.46C2942.89 2143.38 2947.75 2143.01 2943.33 2152.26C2936.58 2155.56 2939.87 2155.34 2933.33 2154.15L2927.58 2149.56C2912.41 2150.5 2891.05 2161.4 2878.47 2168.14C2861.21 2177.4 2847.15 2164.51 2843.1 2180.48C2840.69 2190.01 2848.44 2208.16 2847.56 2216.89C2845.8 2234.25 2841.47 2251.96 2840.22 2269.48C2844.22 2272.44 2843.35 2271.9 2847.77 2274.12L2846.89 2278.16L2845.04 2277.39C2841.96 2276.13 2843.12 2276.6 2838.66 2275.02C2832.13 2284 2831.46 2330.86 2826.8 2343.02C2815.4 2372.75 2804.17 2414.62 2794.35 2442.7C2784.86 2469.84 2744.21 2538.88 2721.55 2557.83C2727.16 2537.83 2755.04 2500.52 2766.48 2477.2C2806.83 2394.46 2829.68 2306.85 2834.08 2218.02C2834.82 2203.28 2836.8 2180.52 2832.77 2166.74C2827.79 2163.01 2827.11 2162.7 2820.46 2161.54C2823.45 2159.21 2826.22 2157.27 2829.37 2155.08C2842.73 2162.88 2845.02 2164.39 2860.6 2169.66C2910.8 2151.1 2946.28 2127.2 2989.59 2100.52Z"/><path fill="#F7E3C7" d="M1704.9 2762.71L1717.78 2767.75C1719.81 2758.31 1711.46 2758.82 1714.66 2751.59L1717.32 2751.7L1721.14 2757.27C1729.03 2757.74 1732.01 2751.5 1734.47 2751.36C1745.87 2750.69 1784.61 2778.05 1789.33 2784.54C1779.65 2782.44 1774.13 2781.27 1764.28 2780.11C1757.88 2773.49 1750.89 2764.3 1739.89 2763.43C1740.96 2779.45 1779.61 2802.64 1791.18 2814.95C1799.67 2823.98 1782.03 2824.74 1805.87 2833.58C1814.97 2847.74 1810.29 2851.4 1832.26 2860.92C1838.59 2863.66 1821.68 2871.72 1842.05 2879.2C1856.85 2884.64 1876.13 2886.98 1874.19 2902.8L1871.5 2904.91C1862.26 2901.6 1825.45 2867.57 1807.85 2863.03C1773.37 2835.71 1730.5 2795.87 1704.9 2762.71Z"/><path fill="#F7E3C7" d="M2273.27 2865.77L2275.49 2863.88C2319.09 2863.29 2406.08 2825.35 2445.19 2807.15C2446.35 2807.41 2447.5 2807.67 2448.65 2807.93L2446.3 2809.35C2439.07 2813.8 2418.2 2830.72 2416.89 2831.35C2383.93 2847.36 2330.11 2871.2 2291.04 2871.14C2283.66 2871.13 2277.91 2866.82 2273.27 2865.77Z"/><path fill="#F7E3C7" d="M1893.6 2836.87C1902.6 2837.26 1921.31 2844.99 1930.96 2847.95C1985.91 2864.79 2044.65 2875.46 2103.01 2880.7C2119.01 2882.13 2136.62 2881.43 2151.71 2882.93C2151.07 2883.39 2145.84 2887.14 2145.09 2887.18C2106.27 2889.43 1986.43 2868.29 1956.58 2859.62L1950.87 2862.3C1932.38 2859.14 1949.08 2851.72 1916.29 2854.48C1908.93 2848.96 1900.26 2842.79 1893.6 2836.87Z"/><path fill="#F7E3C7" d="M2171.95 2882.55C2175.55 2879.65 2252.79 2866.91 2259.2 2869.12C2234.87 2876.66 2208.33 2896.04 2189.37 2883.3C2183.44 2883.5 2181.72 2885.33 2176.82 2888.27L2173.51 2887.02L2171.95 2882.55Z"/><path fill="#F7E3C7" d="M1881.47 2701C1894.66 2704.34 1906.72 2710.09 1916.7 2717.8C1936.92 2733.37 1938.85 2748.39 1919.19 2764.52C1881.64 2757.16 1845.85 2729.15 1881.47 2701Z"/><path fill="#645A5A" d="M1587.28 1804.92C1530.81 1811.78 1486.69 1820.87 1429.99 1807.01C1133.26 1734.52 1138.96 1344.95 1380.17 1224.93C1404.5 1212.82 1426.38 1212.37 1451.97 1218.42C1502.62 1257.96 1482.97 1319.95 1500.94 1370.13C1510.6 1397.1 1527.6 1425.54 1550.29 1446.86C1560.24 1426.89 1571.52 1382.09 1573.06 1360.26C1583.9 1367.8 1574.3 1369.09 1581.25 1380.28C1585.16 1364.84 1589.87 1343.7 1598.12 1329.65L1599.07 1326.02C1609.51 1318.1 1642.4 1313.79 1657.97 1311.08C1695.39 1309.47 1683.44 1318.5 1705.97 1324.55C1709.82 1328.24 1713.45 1331.39 1716.67 1335.44C1728.43 1350.72 1736.43 1363.78 1743.9 1380.88C1756.35 1389.42 1764.05 1393.89 1773 1405.08C1779.86 1410.08 1787.01 1417.58 1791.25 1424.24C1787.38 1433.53 1779.84 1440.64 1778.81 1445.53C1773.58 1440.42 1770.71 1435.79 1763.9 1434.03L1761.21 1437.29C1762.52 1445.28 1764.44 1454.92 1765.18 1462.8C1743.72 1478.1 1753.45 1493.94 1745.14 1511.8C1744.8 1514.81 1743.82 1525.6 1743.14 1527.96C1743.06 1551.3 1746.18 1574.9 1745.21 1597.85C1744.34 1618.47 1733.98 1641.5 1729.92 1662.02C1727.12 1676.18 1728.01 1690.69 1725.62 1705.01C1723.32 1708.07 1717.92 1714.9 1716.29 1717.8C1724.61 1728.09 1727.96 1735.81 1740.58 1741.1L1741.94 1741.98C1741.5 1751.6 1739.38 1769.05 1736.24 1778.25C1741.37 1783.69 1752.82 1793.28 1755.66 1796.71C1739.65 1821.4 1733.9 1827.19 1705.42 1843.61L1719.97 1855.13C1712.44 1858.57 1697.88 1864.39 1693.23 1869.24C1691.17 1867.66 1689.08 1866.12 1687 1864.56C1646.24 1834.07 1636 1868.08 1587.28 1804.92Z"/><defs><linearGradient id="gradient_13" gradientUnits="userSpaceOnUse" x1="1601.1638" y1="1690.9728" x2="1266.439" y2="1364.2316"><stop offset="0" stop-color="#F16D52"/><stop offset="1" stop-color="#FC8A53"/></linearGradient></defs><path fill="url(#gradient_13)" d="M1452.73 1254.5C1469.4 1320.72 1461.16 1404.48 1524.42 1459.65C1567.03 1516.92 1633.69 1492.56 1687.25 1523.5C1687.43 1552.26 1663.41 1624.18 1645.18 1646.86L1643.6 1648.86C1640.63 1652.67 1633.49 1664.96 1630.64 1667.38C1593.91 1698.55 1570.16 1721.36 1517.17 1730.69C1478.17 1737.56 1456.64 1734.64 1420.16 1737.47C1399.84 1716.78 1388.3 1727.64 1379.26 1718.29C1370.39 1721.72 1368.23 1720.99 1357.94 1720.42C1346.69 1726.77 1358.24 1731.15 1345.66 1730.36C1337.18 1729.83 1336.39 1724.75 1325.55 1728.93C1318.87 1724.6 1315.99 1720.94 1310.72 1715.41C1308.09 1703.47 1299.11 1689.88 1292.56 1678.59C1285.63 1669.61 1280.49 1655.94 1277.01 1645.51C1238.39 1529.63 1258.94 1398.34 1357.64 1305.14C1385.13 1279.19 1411.46 1262.91 1452.73 1254.5Z"/><path fill="#DB5F4F" d="M1292.56 1678.59C1317.44 1670.44 1330.22 1698.85 1350.25 1707.49C1359.48 1711.47 1372.98 1712.97 1379.26 1718.29C1370.39 1721.72 1368.23 1720.99 1357.94 1720.42C1346.69 1726.77 1358.24 1731.15 1345.66 1730.36C1337.18 1729.83 1336.39 1724.75 1325.55 1728.93C1318.87 1724.6 1315.99 1720.94 1310.72 1715.41C1308.09 1703.47 1299.11 1689.88 1292.56 1678.59Z"/><path fill="#F4A779" d="M1351.92 1358.15C1394.48 1370.72 1357.06 1411.18 1350.22 1434.87C1341.08 1466.57 1355.94 1494.6 1316.58 1512.24C1273.6 1483.94 1297.43 1409.73 1325.67 1378.35C1334.07 1369.02 1340.76 1364.71 1351.92 1358.15Z"/><path fill="#F4A779" d="M1319.49 1541.41C1354.62 1542.67 1350.4 1566.65 1334.28 1583.95C1301.89 1586.49 1308.39 1556.6 1319.49 1541.41Z"/><path fill="#E6674C" d="M1687.25 1523.5C1755.27 1577.35 1743.35 1644.65 1691.58 1703.15C1673.45 1725.13 1663.68 1732.66 1636.93 1748.38C1631.49 1751.57 1617.21 1760.11 1613.05 1763.69C1520.75 1812.59 1400.55 1788.78 1325.55 1728.93C1336.39 1724.75 1337.18 1729.83 1345.66 1730.36C1358.24 1731.15 1346.69 1726.77 1357.94 1720.42C1368.23 1720.99 1370.39 1721.72 1379.26 1718.29C1388.3 1727.64 1399.84 1716.78 1420.16 1737.47C1456.64 1734.64 1478.17 1737.56 1517.17 1730.69C1570.16 1721.36 1593.91 1698.55 1630.64 1667.38C1633.49 1664.96 1640.63 1652.67 1643.6 1648.86L1645.18 1646.86C1663.41 1624.18 1687.43 1552.26 1687.25 1523.5Z"/><path fill="#D17559" d="M1687.25 1523.5C1755.27 1577.35 1743.35 1644.65 1691.58 1703.15C1689.99 1690.56 1693.35 1664.5 1694.83 1651C1697.34 1628.15 1696.9 1628.48 1716.33 1615.41C1717.51 1607.73 1718.1 1606.35 1716.39 1598.93L1712.15 1605.53L1709.8 1606C1707.53 1594.23 1717.08 1574.71 1711.79 1568.24C1704.03 1558.73 1698.78 1555.91 1692.21 1542.54L1689.5 1544.79C1685.09 1557.45 1685.94 1583.49 1683.34 1589.18C1673.04 1611.67 1663.72 1596.72 1668.36 1628.03C1659.96 1636.14 1656.01 1640.55 1645.18 1646.86C1663.41 1624.18 1687.43 1552.26 1687.25 1523.5Z"/><path fill="#DB5F4F" d="M1657.97 1311.08C1695.39 1309.47 1683.44 1318.5 1705.97 1324.55C1709.82 1328.24 1713.45 1331.39 1716.67 1335.44C1728.43 1350.72 1736.43 1363.78 1743.9 1380.88C1756.35 1389.42 1764.05 1393.89 1773 1405.08C1779.86 1410.08 1787.01 1417.58 1791.25 1424.24C1787.38 1433.53 1779.84 1440.64 1778.81 1445.53C1773.58 1440.42 1770.71 1435.79 1763.9 1434.03L1761.21 1437.29C1762.52 1445.28 1764.44 1454.92 1765.18 1462.8C1743.72 1478.1 1753.45 1493.94 1745.14 1511.8C1744.8 1514.81 1743.82 1525.6 1743.14 1527.96L1738.13 1529.17L1736.18 1529.63C1729.75 1527.38 1720 1515.11 1714.79 1509.59C1703.68 1502.99 1692.75 1496.18 1682.01 1489.19C1653.73 1480.97 1586.88 1479.44 1573.65 1459.25L1577.84 1452.25C1587.73 1429.04 1592.96 1409.58 1597.75 1385.44C1600.01 1365.39 1601.03 1349.71 1598.12 1329.65L1599.07 1326.02C1609.51 1318.1 1642.4 1313.79 1657.97 1311.08Z"/><path fill="#E6674C" d="M1597.75 1385.44C1607.4 1385.14 1612.67 1384.01 1620.51 1387.76C1626.81 1393.5 1628.41 1398.3 1631.94 1405.47L1649.77 1410.91C1662.43 1426.68 1668.65 1434.26 1676.99 1451.93L1679.37 1459.44C1681.88 1469.28 1684.11 1479.1 1682.01 1489.19C1653.73 1480.97 1586.88 1479.44 1573.65 1459.25L1577.84 1452.25C1587.73 1429.04 1592.96 1409.58 1597.75 1385.44Z"/><path fill="#A06959" d="M1743.9 1380.88C1756.35 1389.42 1764.05 1393.89 1773 1405.08C1779.86 1410.08 1787.01 1417.58 1791.25 1424.24C1787.38 1433.53 1779.84 1440.64 1778.81 1445.53C1773.58 1440.42 1770.71 1435.79 1763.9 1434.03L1761.21 1437.29C1762.52 1445.28 1764.44 1454.92 1765.18 1462.8C1743.72 1478.1 1753.45 1493.94 1745.14 1511.8C1744.8 1514.81 1743.82 1525.6 1743.14 1527.96L1738.13 1529.17L1736.18 1529.63C1729.75 1527.38 1720 1515.11 1714.79 1509.59C1718.2 1503.09 1718.78 1500.86 1726.89 1498.98C1720.84 1488.41 1736.67 1471.2 1735.78 1452.01C1734.85 1432.1 1734.44 1432.49 1728.25 1412.82L1728.01 1411.17C1745.75 1410.54 1744.52 1390.43 1743.9 1380.88Z"/><path fill="#D2A18F" d="M1773 1405.08C1779.86 1410.08 1787.01 1417.58 1791.25 1424.24C1787.38 1433.53 1779.84 1440.64 1778.81 1445.53C1773.58 1440.42 1770.71 1435.79 1763.9 1434.03L1761.21 1437.29C1755.56 1420.75 1765.41 1420.16 1773 1405.08Z"/><path fill="#F37954" d="M1726.89 1498.98L1736.7 1491.05L1739.59 1491.1C1741.67 1496.14 1740.47 1505.65 1740.19 1511.32L1745.14 1511.8C1744.8 1514.81 1743.82 1525.6 1743.14 1527.96L1738.13 1529.17L1736.18 1529.63C1729.75 1527.38 1720 1515.11 1714.79 1509.59C1718.2 1503.09 1718.78 1500.86 1726.89 1498.98Z"/><path fill="#A9755E" d="M1740.19 1511.32L1745.14 1511.8C1744.8 1514.81 1743.82 1525.6 1743.14 1527.96L1738.13 1529.17C1738.25 1524.13 1739.53 1516.51 1740.19 1511.32Z"/><path fill="#6A4649" d="M1657.97 1311.08C1695.39 1309.47 1683.44 1318.5 1705.97 1324.55C1709.82 1328.24 1713.45 1331.39 1716.67 1335.44C1728.43 1350.72 1736.43 1363.78 1743.9 1380.88C1744.52 1390.43 1745.75 1410.54 1728.01 1411.17C1725.96 1404.88 1723.4 1398.24 1721.14 1391.95C1700.68 1355.2 1689.16 1341.68 1657.97 1311.08Z"/><path fill="#825D57" d="M1716.67 1335.44C1728.43 1350.72 1736.43 1363.78 1743.9 1380.88C1744.52 1390.43 1745.75 1410.54 1728.01 1411.17C1725.96 1404.88 1723.4 1398.24 1721.14 1391.95C1724.13 1389.22 1717.17 1342.34 1716.67 1335.44Z"/><path fill="#D17559" d="M1679.37 1459.44C1683.11 1464.13 1693.46 1486.04 1697.33 1493.1L1700.79 1494.15C1711.29 1484.82 1704.36 1457.08 1718.05 1450.54C1721.48 1453.17 1720.24 1452.93 1724.29 1454.09C1728.25 1440.62 1719.21 1425.35 1728.25 1412.82C1734.44 1432.49 1734.85 1432.1 1735.78 1452.01C1736.67 1471.2 1720.84 1488.41 1726.89 1498.98C1718.78 1500.86 1718.2 1503.09 1714.79 1509.59C1703.68 1502.99 1692.75 1496.18 1682.01 1489.19C1684.11 1479.1 1681.88 1469.28 1679.37 1459.44Z"/><path fill="#D17559" d="M1649.77 1410.91C1673.81 1420.19 1678.93 1431.35 1676.99 1451.93C1668.65 1434.26 1662.43 1426.68 1649.77 1410.91Z"/><path fill="#EFBF93" d="M1310.72 1715.41C1179.22 1587.35 1213.5 1365.43 1369.78 1259.96C1396 1242.27 1427.39 1229.15 1452.73 1254.5C1411.46 1262.91 1385.13 1279.19 1357.64 1305.14C1258.94 1398.34 1238.39 1529.63 1277.01 1645.51C1280.49 1655.94 1285.63 1669.61 1292.56 1678.59C1299.11 1689.88 1308.09 1703.47 1310.72 1715.41Z"/><path fill="#DB5F4F" d="M1716.29 1717.8C1724.61 1728.09 1727.96 1735.81 1740.58 1741.1L1741.94 1741.98C1741.5 1751.6 1739.38 1769.05 1736.24 1778.25C1732.02 1786.53 1729.68 1791.52 1723.74 1799.25C1720.51 1802.87 1711.04 1810.96 1706.76 1813.8C1694.89 1821.73 1679.52 1825.41 1664.2 1823.99C1638.78 1821.69 1624.91 1809.46 1610.51 1794.59C1620.03 1790.38 1626.57 1786.85 1635.51 1781.99C1649.78 1776.67 1669.39 1761.69 1681.91 1752.77C1694.1 1741.09 1704.8 1729.95 1716.29 1717.8Z"/><defs><linearGradient id="gradient_14" gradientUnits="userSpaceOnUse" x1="1697.3527" y1="1784.165" x2="1731.2716" y2="1728.4436"><stop offset="0" stop-color="#EE6F50"/><stop offset="1" stop-color="#FD9563"/></linearGradient></defs><path fill="url(#gradient_14)" d="M1716.29 1717.8C1724.61 1728.09 1727.96 1735.81 1740.58 1741.1L1741.94 1741.98C1741.5 1751.6 1739.38 1769.05 1736.24 1778.25C1732.02 1786.53 1729.68 1791.52 1723.74 1799.25C1698.75 1784.54 1692.41 1775.44 1681.91 1752.77C1694.1 1741.09 1704.8 1729.95 1716.29 1717.8Z"/><path fill="#A06959" d="M1524.42 1459.65C1534.53 1464.26 1554.3 1480.91 1570.76 1488.07C1599.29 1500.46 1625.82 1499.45 1656.93 1506.59C1670.46 1509.7 1673.94 1514.42 1687.47 1515.88L1690.02 1513.44C1690.78 1473.18 1584.25 1490.72 1570.01 1464.35L1573.65 1459.25C1586.88 1479.44 1653.73 1480.97 1682.01 1489.19C1692.75 1496.18 1703.68 1502.99 1714.79 1509.59C1720 1515.11 1729.75 1527.38 1736.18 1529.63L1738.13 1529.17L1743.14 1527.96C1743.06 1551.3 1746.18 1574.9 1745.21 1597.85C1744.34 1618.47 1733.98 1641.5 1729.92 1662.02C1727.12 1676.18 1728.01 1690.69 1725.62 1705.01C1723.32 1708.07 1717.92 1714.9 1716.29 1717.8C1704.8 1729.95 1694.1 1741.09 1681.91 1752.77C1669.39 1761.69 1649.78 1776.67 1635.51 1781.99C1650.27 1767.74 1673.12 1750.53 1691.11 1739.12C1687.63 1732.93 1685.5 1729.32 1681.22 1723.5C1673.48 1726.57 1668.31 1738.58 1666.68 1739.13C1647.62 1745.62 1631.32 1757.03 1613.05 1763.69C1617.21 1760.11 1631.49 1751.57 1636.93 1748.38C1663.68 1732.66 1673.45 1725.13 1691.58 1703.15C1743.35 1644.65 1755.27 1577.35 1687.25 1523.5C1633.69 1492.56 1567.03 1516.92 1524.42 1459.65Z"/><path fill="#6A4649" d="M1598.12 1329.65C1601.03 1349.71 1600.01 1365.39 1597.75 1385.44C1592.96 1409.58 1587.73 1429.04 1577.84 1452.25C1572.2 1434.23 1578.26 1399.21 1581.25 1380.28C1585.16 1364.84 1589.87 1343.7 1598.12 1329.65Z"/><path fill="#F7E3C7" d="M3164.31 963.39C3181.27 970.277 3177.65 994.549 3183.48 1008.26C3191.08 1026.17 3234.31 1027.88 3240.2 1043C3236.47 1051.76 3202.42 1060.49 3189.38 1069.34C3179.98 1086.84 3180.81 1108.02 3168.92 1120.64C3151.48 1112.14 3154.2 1089.16 3143.25 1068.51C3128.77 1061.86 3099.28 1053.44 3093.84 1041.18C3099.07 1033 3131.1 1028.11 3142.61 1014.44C3157.78 996.437 3149.7 983.873 3164.31 963.39Z"/><path fill="#D2A18F" d="M1243.94 1922.63L1250.61 1924.55C1261.39 1934.8 1260.34 1950.7 1261.44 1964.38C1276.63 1969.27 1305.4 1971.79 1312.36 1984.29C1307.36 1994.23 1280.99 2001.12 1267.21 2008.36L1264.75 2009.67C1256.95 2026.46 1256.27 2031.28 1255.7 2048.48C1250.68 2049.91 1251.04 2049.8 1245.8 2048.87C1234.97 2040.86 1231.94 2019.72 1228.86 2007.27C1213.69 2003.08 1202.85 2000.68 1190.69 1991.98C1183.78 1978.35 1214.71 1972.52 1227.76 1968.1C1234.71 1952.98 1236.35 1936.3 1243.94 1922.63Z"/><path fill="#F7E3C7" d="M3274.62 2104.55C3292.64 2106.21 3295.23 2129.24 3299.31 2141.68C3311.37 2147.01 3328.52 2149.8 3332.79 2161.12C3328.23 2172.65 3313.52 2175.47 3299.06 2181.66C3292.4 2193.56 3287.31 2209.75 3282.75 2222.62C3264.69 2217.35 3269.75 2193.53 3259.29 2183.64C3251.19 2175.99 3231.44 2172.25 3224.8 2160.88C3229.11 2145.29 3253.15 2150.05 3259.82 2140.41C3267.58 2129.18 3263.84 2118.03 3274.62 2104.55Z"/><path fill="#F7E3C7" d="M1548.55 853.592C1561.71 861.294 1558.98 879.91 1569.13 889.932C1578.38 899.062 1594.57 907.136 1606.68 914.875C1570.39 928.011 1558.59 944.918 1553.65 976.34C1550.97 976.484 1549.58 976.148 1546.89 975.833C1540.55 968.447 1542.43 962.836 1539.61 953.996C1532.7 932.296 1518.07 926.001 1496.64 914.916C1535.22 893.081 1535.85 890.111 1548.55 853.592Z"/><path fill="#F7E3C7" fill-opacity="0.98039216" d="M3293.24 1167.81C3326.16 1167.22 3328.69 1196.33 3306.38 1212.49C3270.03 1212.43 3275.16 1184.22 3293.24 1167.81Z"/><path fill="#D2A18F" d="M3418.55 1834.11C3452.41 1841.32 3443.44 1864.92 3422.88 1878.87C3393.91 1873.55 3388.01 1846.64 3418.55 1834.11Z"/><path fill="#F7E3C7" d="M1105.48 1705.04C1140.53 1703.25 1139.4 1732.73 1117.97 1748.39C1085.14 1743.92 1086.65 1721.96 1105.48 1705.04Z"/><path fill="#F7E3C7" fill-opacity="0.74117649" d="M1368.31 1876.85C1398.37 1882.36 1406.02 1898.39 1379.94 1915.4C1343.63 1915.56 1343.43 1891.65 1368.31 1876.85Z"/><path fill="#F7E3C7" d="M1336.64 2187.07C1342.3 2188.06 1342.34 2188.48 1347.27 2191.11C1356.77 2204.48 1349.07 2220.89 1337.54 2231.78C1314.54 2221.5 1319.11 2199.78 1336.64 2187.07Z"/><path fill="#F7E3C7" fill-opacity="0.98823529" d="M3034.65 861.286C3063.45 864.448 3060.07 880.569 3045.55 894.707C3018.95 895.781 3018.63 873.937 3034.65 861.286Z"/><path fill="#F7E3C7" fill-opacity="0.98039216" d="M1356.78 1031.03C1384.02 1032.54 1381.81 1047.56 1370.63 1061.96C1343.53 1060.6 1343.62 1045.59 1356.78 1031.03Z"/></svg>