<?xml version="1.0" encoding="utf-8" ?><svg xmlns="http://www.w3.org/2000/svg" xmlns:xlink="http://www.w3.org/1999/xlink" width="512" height="512" viewBox="0 0 512 512"><defs><linearGradient id="gradient_0" gradientUnits="userSpaceOnUse" x1="391.94751" y1="416.32388" x2="146.46097" y2="77.531586"><stop offset="0" stop-color="#AE2625"/><stop offset="1" stop-color="#EC4443"/></linearGradient></defs><path fill="url(#gradient_0)" d="M190.416 53.1914C194.727 50.8554 204.074 48.8178 209.016 47.645C222.274 44.499 236.345 43.2576 249.923 42.2947C256.97 41.795 264.776 42.5378 271.754 43.1191C286.009 44.1339 299.723 46.3445 313.478 50.3078C315.258 50.8209 320.25 52.2771 321.518 53.3417C318.689 56.5286 314.668 59.5381 313.599 63.3455L313.49 63.7224C313.47 63.7982 313.45 63.8741 313.43 63.9499C313.808 65.6079 314.367 67.5298 315.658 68.7111C321.349 73.921 327.223 65.6235 331.089 62.1018C332.285 61.0124 334.631 59.2296 335.45 58.2689C351.976 65.1744 367.887 75.6527 381.39 87.3807C384.465 90.0518 387.265 93.2607 390.211 96.0237C402.458 107.506 412.581 121.084 420.928 135.616C423.492 140.08 426.455 144.832 428.465 149.493C433.314 160.734 438.197 171.818 441.129 183.747C441.366 184.71 441.828 186.935 442.206 187.709C448.494 186.438 460.205 185.487 466.613 186.793C468.236 186.844 469.759 187.268 471.324 187.644C490.983 192.368 500.418 209.713 498.732 229.001C496.801 251.107 483.864 279.742 458.13 279.693C454.249 279.685 446.942 277.347 443.135 276.042C439.254 300.83 423.024 333.747 408.801 354.245C388.135 384.032 355.204 415.972 319.762 426.972C320.685 440.207 319.414 456.327 319.929 469.802C306.177 469.623 291.001 469.561 277.246 469.792C277.251 456.16 276.889 440.83 277.249 427.317C266.127 430.337 258.161 431.936 246.416 429.849C242.977 429.238 237.69 427.709 234.725 427.29L234.741 455.018C234.739 459.071 234.55 465.985 234.882 469.857C222.827 469.36 210.438 469.987 198.356 469.757C196.385 469.719 194.239 469.725 192.27 469.784C192.004 463.75 192.086 457.518 192.076 451.463C191.994 443.276 192.029 435.087 192.183 426.9C186.231 425.754 170.947 418.142 165.285 414.639C139.345 398.589 117.676 375.463 100.544 350.414C88.0238 331.643 71.9999 297.769 68.7781 275.746C66.6121 276.854 64.4584 277.377 62.167 278.118C29.8268 288.572 9.48016 244.194 13.6044 218.042C15.2289 204.11 24.8674 192.03 38.5244 188.312C48.4849 185.141 59.8126 185.983 69.9757 187.728C70.3893 184.738 72.9351 176.631 73.9705 173.623L73.9518 173.44C74.1623 172.84 74.3509 172.204 74.5428 171.595C75.5071 169.025 76.4953 166.465 77.5073 163.914C81.2965 154.399 84.9383 146.315 90.053 137.482C96.3232 126.728 103.703 114.986 112.184 105.802C122.027 95.144 133.24 84.1423 145.178 75.9165C151.789 71.3611 160.112 65.7399 167.413 62.5936C169.378 61.1794 174.34 59.3627 176.688 58.4633C181.207 62.3107 189.798 73.8767 195.616 69.1519C202.309 63.716 195.495 58.4429 191.536 54.3619C191.115 53.9275 190.994 53.6713 190.416 53.1914Z"/><path fill="#BD3C3C" d="M167.413 62.5936L167.784 62.7792L168.013 62.7031C168.6 62.5116 168.861 62.3605 169.462 62.4857C168.974 63.9172 167.77 63.6579 166.76 64.392C165.166 65.5514 166.03 66.642 163.87 66.0256C162.83 66.8105 163.895 66.7896 163.242 67.142C160.721 68.5013 158.451 70.3232 155.853 71.5233C155.546 71.6653 156.143 72.3686 155.051 72.7011L154.036 72.3686C152.961 72.9903 153.284 74.6079 151.894 74.8878L151.39 74.3758C150.03 74.7325 149.227 77.1017 148.282 77.8132C147.59 78.3344 147.092 76.3917 145.907 78.8605C145.597 79.5058 144.845 80.7062 144.755 81.4937L144.268 81.4405C143.796 80.7969 143.834 80.8091 143.613 80.03L143.483 80.4316C142.596 81.2085 142.621 81.2986 143.061 82.5016C142.102 83.6637 140.767 84.4887 139.585 85.4164C138.799 86.0326 140.637 85.4706 139.22 86.4215C138.604 85.9748 138.649 85.3293 138.55 84.5662C136.789 86.5848 136.671 89.364 135.283 90.899C127.155 99.8879 118.553 108.362 110.535 117.464C107.321 121.113 104.292 125.234 101.097 128.785L100.564 128.375C100.502 128.792 100.476 129.065 100.367 129.472C99.2253 129.44 99.3551 129.248 98.7212 129.804C98.7501 130.66 98.7028 130.253 99.3054 131.121C98.6159 131.392 98.8929 131.329 98.1257 131.287C97.4099 131.739 96.6974 132.197 95.9883 132.66C96.2759 132.896 96.5025 133.12 96.7465 133.407C96.1156 134.578 94.8104 137.11 93.5078 137.59L93.0709 137.333C93.1261 137.703 93.156 138.062 93.1582 138.435L92.7509 138.691L92.0603 138.505C91.6916 137.847 92.2496 137.463 92.0356 136.832C91.2441 138.497 91.2201 138.961 92.2714 140.583C90.8713 141.253 90.6714 139.874 90.1988 140.961C90.2815 141.314 90.4977 142.007 90.5783 142.298C90.9437 143.617 88.6337 146.785 87.9584 147.916C87.493 147.925 87.714 147.978 87.297 147.749C86.5827 149.862 87.5964 149.858 85.11 150.62C83.8375 152.292 82.7831 155.815 81.5099 157.718C81.5044 157.726 81.4508 159.078 81.4377 159.191L80.308 159.927C80.3398 161.148 81.2529 160.699 79.9898 161.736C79.303 162.299 78.4057 164.704 78.1652 165.62C77.6941 167.415 76.0087 170.188 76.0938 171.854C75.6447 172.48 75.9116 172.203 75.116 172.543L74.5428 171.595C75.5071 169.025 76.4953 166.465 77.5073 163.914C81.2965 154.399 84.9383 146.315 90.053 137.482C96.3232 126.728 103.703 114.986 112.184 105.802C122.027 95.144 133.24 84.1423 145.178 75.9165C151.789 71.3611 160.112 65.7399 167.413 62.5936Z"/><path fill="#BD3C3C" d="M442.206 187.709C448.494 186.438 460.205 185.487 466.613 186.793C466.399 186.946 466.185 187.099 465.971 187.251C462.545 187.077 459.42 186.645 455.981 186.697C451.787 186.787 447.603 187.167 443.461 187.836C438.661 188.649 432.173 190.963 427.259 192.052C425.503 192.442 420.395 192.4 419.353 193.182L419.503 193.775C417.191 194.629 416.668 196.275 415.032 197.923C411.789 201.189 408.621 204.518 405.563 207.959C404.358 209.319 402.067 209.789 400.851 211.54C400.721 214.594 400.59 216.037 400.969 219.103C401.224 221.172 403.566 228.784 403.562 229.912C398.516 217.707 397.786 200.406 412.439 194.613C418.332 192.283 421.723 192.759 427.444 191.601C430.28 191.027 439.909 188.741 442.206 187.709Z"/><path fill="#BD3C3C" d="M13.6044 218.042C15.2289 204.11 24.8674 192.03 38.5244 188.312L38.6631 188.922C37.6349 190.279 35.6564 191.006 34.318 192.281C32.5149 194 32.3127 193.114 32.1336 195.709C30.7041 197.485 28.2186 199.494 26.5974 201.276C25.0759 202.949 23.5099 205.011 21.59 206.075C19.7624 207.004 18.6389 210.751 17.0069 211.384L16.8614 210.858L16.574 211.181C16.6916 211.88 16.9547 212.94 16.3326 213.277C13.8865 214.6 16.1325 217.4 13.9921 218.715C13.5832 218.376 13.7221 218.595 13.6044 218.042Z"/><path fill="#BD3C3C" d="M73.9518 173.44L74.9347 172.954C75.318 173.523 75.224 173.286 75.2818 173.983C74.9133 174.931 75.2215 174.624 74.4835 175.07C73.9961 174.625 74.121 174.444 73.9705 173.623L73.9518 173.44Z"/><path fill="#05080F" d="M317.572 123.87C331.594 122.531 344.059 132.783 345.451 146.799C346.843 160.816 336.638 173.319 322.626 174.764C308.54 176.216 295.956 165.945 294.557 151.853C293.157 137.762 303.476 125.216 317.572 123.87Z"/><path fill="#00E6CC" d="M322.104 134.647C325.857 133.869 329.738 135.173 332.261 138.058C334.784 140.943 335.559 144.964 334.288 148.58C333.017 152.196 329.898 154.848 326.124 155.52C320.402 156.539 314.922 152.773 313.822 147.066C312.723 141.358 316.412 135.826 322.104 134.647Z"/><path fill="#05080F" d="M189.615 123.872C203.628 122.557 216.068 132.814 217.447 146.82C218.826 160.827 208.626 173.313 194.626 174.757C180.536 176.209 167.95 165.928 166.562 151.831C165.174 137.734 175.512 125.196 189.615 123.872Z"/><path fill="#00E6CC" d="M194.104 134.647C197.857 133.869 201.738 135.173 204.261 138.058C206.784 140.943 207.559 144.964 206.288 148.58C205.017 152.196 201.898 154.848 198.124 155.52C192.402 156.539 186.922 152.773 185.822 147.066C184.723 141.358 188.412 135.826 194.104 134.647Z"/><path fill="#BD3C3C" d="M176.688 58.4633C175.277 57.6299 170.422 53.4926 168.631 52.1469C160.069 45.7134 150.57 38.9212 139.62 37.7176C135.466 37.3983 131.342 40.936 127.36 40.8077C121.061 40.498 118.905 32.796 123.961 29.0681C128.685 25.585 135.481 24.0479 141.264 24.6454C156.708 26.241 170.247 35.4974 181.76 45.3482C184.614 47.7898 187.402 49.8035 189.763 52.7605L189.966 53.0178L190.416 53.1914C190.994 53.6713 191.115 53.9275 191.536 54.3619C195.495 58.4429 202.309 63.716 195.616 69.1519C189.798 73.8767 181.207 62.3107 176.688 58.4633Z"/><path fill="#BD3C3C" d="M321.518 53.3417C335.073 39.8058 353.615 25.3305 373.591 24.4619C380.657 24.1324 397.605 30.4284 388.305 39.4699C384.215 43.4466 377.061 37.2776 372.652 37.7167C357.381 39.2374 347.163 50.0675 335.45 58.2689C334.631 59.2296 332.285 61.0124 331.089 62.1018C327.223 65.6235 321.349 73.921 315.658 68.7111C314.367 67.5298 313.808 65.6079 313.43 63.9499C313.45 63.8741 313.47 63.7982 313.49 63.7224L313.599 63.3455C314.668 59.5381 318.689 56.5286 321.518 53.3417Z"/></svg>