<?xml version="1.0" encoding="utf-8" ?><svg xmlns="http://www.w3.org/2000/svg" xmlns:xlink="http://www.w3.org/1999/xlink" width="1024" height="1024" viewBox="0 0 1024 1024"><path fill="#500" d="M478.277 259.729L477.646 257.074C468.515 219.325 446.798 201.687 413.281 189.811C412.395 189.497 412.561 189.111 412.405 188.252L413.259 187.503C421.084 185.572 436.258 191.272 443.312 194.803C465.871 206.094 484.885 231.128 492.476 255.03C501.309 252.176 510.379 250.115 519.578 248.872C572.517 241.363 629.974 257.294 672.628 289.403C693.926 260.766 746.657 234.807 780.581 253.615C775.41 254.545 768.91 253.785 763.566 254.014C730.888 255.409 700.118 271.138 683.496 299.583C685.646 301.592 687.699 303.832 689.648 306.02C743.057 365.979 732.207 451.703 721.614 524.672C720.579 531.803 719.659 539.261 718.315 546.364C732.167 553.688 737.127 558.995 745.513 571.963C755.561 576.668 774.663 600.282 778.612 611.319C784.36 627.382 784.067 636.186 777.686 651.363C788.803 663.354 817.992 691.527 797.313 709.108C793.064 712.72 784.52 712.004 779.249 711.042C798.263 749.025 772.403 766.747 740.487 742.751C735.838 745.729 732.005 749.557 727.474 752.667C714.372 766.36 669.651 778.06 649.941 781.268C639.46 782.973 619.259 785.176 609.831 788.112L619.976 788.013L620.172 788.283C608.379 791.052 515.814 790.523 502.765 787.577C503.443 787.544 504.086 787.653 504.774 787.724L505.208 786.984L506.495 787.244L506.637 787.075C505.003 786.011 504.212 786.429 502.404 785.7L502.539 785.052C492.45 782.436 481.85 782.065 471.674 779.806C462.911 777.862 452.913 774.339 444.41 771.25C437.444 768.72 437.166 764.02 434.93 757.855C425.483 756.345 424.328 754.012 416.99 748.538C411.972 744.796 406.164 741.562 401.215 737.541C390.964 729.213 378.544 717.502 371.682 706.138C363.778 712.713 354.241 719.7 344.051 722.026C332.861 724.581 319.442 720.619 317.482 707.744C315.756 696.402 320.617 685.238 327.011 676.152C313.013 674.455 303.031 668.301 307.63 652.284C312.456 635.478 328.343 624.708 342.777 616.408C342.957 588.399 344.978 567.205 348.796 539.33C329.87 533.937 314.887 517.3 305.849 500.521C289.127 495.246 280.43 480.918 279.505 463.894C274.634 462.719 270.855 462.188 265.894 460.523C239.149 451.55 217.535 427.202 205.386 402.412C188.738 368.44 187.988 324.704 200.155 288.914C210.435 258.678 231.099 231.169 259.859 216.234C268.917 211.53 282.645 209.382 292.162 213.214C308.528 219.804 306.144 237.843 304.512 251.846C303.946 256.696 303.786 263.673 304.043 268.464C304.761 281.873 307.671 291.272 313.259 303.204C320.454 288.055 317.15 278.997 323.054 264.493C325.343 259.345 329.182 254.278 334.778 252.582C358.435 245.41 374.178 271.56 380.139 289.712C387.387 311.512 385.69 335.296 375.419 355.846C379.091 366.61 379.426 373.572 379.384 385.149C393.564 332.655 426.176 280.832 478.277 259.729ZM354.96 438.353C358.532 445.066 359.923 448.887 360.925 456.461L361.582 463.531C362.885 457.377 370.722 420.088 370.24 416.376C365.966 423.52 360.633 432.331 354.96 438.353Z"/><path fill="#D6BEBE" d="M635.176 768.669C661.011 778.008 684.786 773.736 709.424 762.456C715.297 759.767 721.226 755.501 727.026 752.866L727.474 752.667C714.372 766.36 669.651 778.06 649.941 781.268C639.46 782.973 619.259 785.176 609.831 788.112L619.976 788.013L620.172 788.283C608.379 791.052 515.814 790.523 502.765 787.577C503.443 787.544 504.086 787.653 504.774 787.724L505.208 786.984L506.495 787.244L506.637 787.075C505.003 786.011 504.212 786.429 502.404 785.7L502.539 785.052C492.45 782.436 481.85 782.065 471.674 779.806C462.911 777.862 452.913 774.339 444.41 771.25C437.444 768.72 437.166 764.02 434.93 757.855C438.505 758.949 445.127 761.977 448.995 763.469C457.519 766.756 466.206 769.602 475.022 771.996C523.049 785.025 588.169 785.871 635.176 768.669Z"/><path fill="#FE5939" d="M380.216 420.725C383.948 407.681 387.263 394.03 391.064 380.82C420.131 279.781 505.842 234.466 607.151 267.083C647.835 279.815 680.211 301.204 700.655 339.908C723.089 382.38 721.691 430.331 717.205 476.695C715.145 499.097 712.182 521.407 708.324 543.57C692.812 542.616 682.235 543.468 674.19 558.921C671.507 562.615 670.34 574.901 671.647 579.099C673.422 588.438 676.227 593.587 682.414 600.777C644.445 613.787 624.375 638.73 607.363 673.271C604.303 682.244 601.84 688.256 600.306 697.703C599.945 701.417 599.78 703.567 599.859 707.277C600.363 715.777 601.223 719.15 606.478 726.166C607.356 726.879 611.427 730.085 611.967 730.69L616.527 732.896C616.356 745.996 615.982 750.732 625.082 761.039C616.9 763.288 603.884 766.961 595.397 767.774C590.788 768.846 584.087 769.568 579.331 769.587C579.248 769.611 579.165 769.635 579.082 769.66C574.524 770.573 568.603 770.827 563.989 771.123C533.825 773.06 471.978 765.707 445.637 750.609C423.966 743.414 398.16 724.16 384.5 706.248C344.293 653.528 350.869 601.142 358.117 540.699C371.034 540.254 377.908 536.777 384.423 525.195C382.066 526.517 379.683 527.862 377.234 529.006C352.57 540.53 328.356 520.001 316.131 499.964C335.982 497.667 344.322 492.913 355.773 476.346L358.268 471.064C361.734 478.871 364.8 483.308 369.467 490.388C373.446 494.661 377.574 498.937 381.309 503.42C383.673 506.258 385.529 509.767 387.829 512.537C392.988 504.946 377.351 487.753 373.458 481.787C371.93 479.445 370.954 477.617 369.756 475.038C371.657 459.74 376.698 435.866 380.216 420.725Z"/><defs><linearGradient id="gradient_0" gradientUnits="userSpaceOnUse" x1="505.37775" y1="702.35126" x2="506.10397" y2="604.12183"><stop offset="0" stop-color="#FF8365"/><stop offset="1" stop-color="#FFAD6D"/></linearGradient></defs><path fill="url(#gradient_0)" d="M424.495 597.044C466.51 619.198 513.684 629.718 561.131 627.513C570.323 627.14 588.106 625.645 596.369 622.669C597.126 624.87 597.605 626.327 598.116 628.59C599.558 632.859 603.664 647.35 604.254 651.736C606.171 659.438 605.874 666.613 607.363 673.271C604.303 682.244 601.84 688.256 600.306 697.703C599.945 701.417 599.78 703.567 599.859 707.277C600.363 715.777 601.223 719.15 606.478 726.166C607.356 726.879 611.427 730.085 611.967 730.69L616.527 732.896C616.356 745.996 615.982 750.732 625.082 761.039C616.9 763.288 603.884 766.961 595.397 767.774C590.788 768.846 584.087 769.568 579.331 769.587C579.248 769.611 579.165 769.635 579.082 769.66C574.524 770.573 568.603 770.827 563.989 771.123C533.825 773.06 471.978 765.707 445.637 750.609C442.931 746.987 438.007 742.711 434.733 738.881C420.847 722.636 408.368 696.961 408.493 675.159C408.045 672.59 408.024 671.187 407.95 668.603C407.829 644.62 410.23 623.994 421.608 602.33C422.69 599.867 422.922 599.152 424.495 597.044Z"/><path fill="#FE836C" d="M407.95 668.603C446.034 692.785 497.321 704.073 542.086 703.93C556.51 703.884 571.317 702.392 585.596 700.491C590.522 699.687 595.427 698.758 600.306 697.703C599.945 701.417 599.78 703.567 599.859 707.277C600.363 715.777 601.223 719.15 606.478 726.166C607.356 726.879 611.427 730.085 611.967 730.69L616.527 732.896C616.356 745.996 615.982 750.732 625.082 761.039C616.9 763.288 603.884 766.961 595.397 767.774C590.788 768.846 584.087 769.568 579.331 769.587C579.248 769.611 579.165 769.635 579.082 769.66C574.524 770.573 568.603 770.827 563.989 771.123C533.825 773.06 471.978 765.707 445.637 750.609C442.931 746.987 438.007 742.711 434.733 738.881C420.847 722.636 408.368 696.961 408.493 675.159C408.045 672.59 408.024 671.187 407.95 668.603Z"/><path fill="#F34539" d="M407.95 668.603C446.034 692.785 497.321 704.073 542.086 703.93C556.51 703.884 571.317 702.392 585.596 700.491C590.522 699.687 595.427 698.758 600.306 697.703C599.945 701.417 599.78 703.567 599.859 707.277L599.376 704.922C596.571 703.223 588.732 706.094 585.025 706.665C529.336 716.25 456.158 706.811 408.493 675.159C408.045 672.59 408.024 671.187 407.95 668.603Z"/><path fill="#F34539" d="M606.478 726.166C607.356 726.879 611.427 730.085 611.967 730.69L616.527 732.896C616.356 745.996 615.982 750.732 625.082 761.039C616.9 763.288 603.884 766.961 595.397 767.774C590.788 768.846 584.087 769.568 579.331 769.587C592.151 759.098 591.562 761.708 600.472 746.217C603.681 742.116 605.642 731.188 606.478 726.166Z"/><path fill="#E5382C" d="M606.478 726.166C607.356 726.879 611.427 730.085 611.967 730.69C611.186 731.513 606.609 744.79 606.655 745.699C606.888 750.28 594.164 766.042 593.999 767.021C594.747 767.879 594.279 767.632 595.397 767.774C590.788 768.846 584.087 769.568 579.331 769.587C592.151 759.098 591.562 761.708 600.472 746.217C603.681 742.116 605.642 731.188 606.478 726.166Z"/><path fill="#F86F60" d="M585.025 706.665C588.732 706.094 596.571 703.223 599.376 704.922L599.859 707.277C600.363 715.777 601.223 719.15 606.478 726.166C605.642 731.188 603.681 742.116 600.472 746.217C599.694 746.135 597.342 745.85 596.768 745.464C587.79 739.431 588.651 715.147 585.025 706.665Z"/><path fill="#F34539" d="M449.978 733.265C450.687 732.822 451.58 732.8 452.31 733.206C453.041 733.613 453.492 734.384 453.489 735.22C453.486 736.056 453.029 736.824 452.296 737.225C451.207 737.821 449.841 737.443 449.214 736.371C448.586 735.299 448.925 733.923 449.978 733.265Z"/><path fill="#F34539" d="M424.495 597.044C466.51 619.198 513.684 629.718 561.131 627.513C570.323 627.14 588.106 625.645 596.369 622.669C597.126 624.87 597.605 626.327 598.116 628.59C540.953 641.268 472.396 631.399 421.608 602.33C422.69 599.867 422.922 599.152 424.495 597.044Z"/><path fill="#F86F60" d="M604.254 651.736C606.171 659.438 605.874 666.613 607.363 673.271C604.303 682.244 601.84 688.256 600.306 697.703C595.427 698.758 590.522 699.687 585.596 700.491C587.175 679.659 592.795 668.347 604.254 651.736Z"/><path fill="#FEA26C" d="M424.495 597.044C425.034 595.048 428.149 590.632 429.497 588.719C438.014 576.635 447.342 566.767 460.291 559.251C480.066 547.754 503.599 544.584 525.711 550.438C551.697 557.351 571.967 575.483 585.212 598.459C589.603 606.202 593.335 614.301 596.369 622.669C588.106 625.645 570.323 627.14 561.131 627.513C513.684 629.718 466.51 619.198 424.495 597.044Z"/><path fill="#FEA26C" d="M380.216 420.725C383.948 407.681 387.263 394.03 391.064 380.82C420.131 279.781 505.842 234.466 607.151 267.083C608.329 268.944 609.3 270.069 609.516 272.244C608.869 274.114 609.378 273.3 607.788 274.681C600.488 275.497 575.938 270.295 566.825 269.208C514.492 262.446 463.054 281.026 430.249 323.156C414.129 343.857 404.851 366.412 395.834 390.933C393.711 396.707 387.683 419.66 382.746 421.349C381.379 421.264 381.422 421.333 380.216 420.725Z"/><path fill="#FE836C" d="M358.268 471.064C361.734 478.871 364.8 483.308 369.467 490.388C364.23 492.134 357.945 480.276 355.773 476.346L358.268 471.064Z"/><path fill="#500" d="M628.665 376.533C651.212 375.882 653.123 399.058 646.972 415.111C643.575 423.978 638.876 428.54 630.258 432.306C608.169 434.018 606.096 409.673 611.93 394.098C615.131 385.554 620.195 380.214 628.665 376.533Z"/><path fill="#F8F4F4" d="M630.724 381.41C640.073 383.096 642.587 388.6 634.365 394.584C625.303 394.535 621.847 387.085 630.724 381.41Z"/><path fill="#500" d="M464.11 344.074C493.313 342.777 491.421 388.256 465.924 399.438C437.342 401.849 437.333 355.962 464.11 344.074Z"/><path fill="#F8F4F4" d="M464.633 349.463C472.9 349.5 479.995 353.499 472.017 361.366C462.645 362.818 458.237 357.363 464.633 349.463Z"/><path fill="#FEA26C" d="M510.274 279.194C523.682 277.231 530.326 283.822 521.199 296.087C511.824 308.685 497.862 316.204 482.529 318.685C447.22 323.033 476.262 282.739 510.274 279.194Z"/><path fill="#FE836C" d="M648.373 434.203C673.013 431.516 696.882 460.587 661.619 465.37C634.068 467.628 613.48 437.743 648.373 434.203Z"/><path fill="#FE836C" d="M415.691 388.144C423.582 387.665 430.797 387.895 437.607 392.262C453.861 402.682 452.924 414.872 433.652 418.483C417.923 419.265 406.123 417.27 399.582 401.174C402.847 391.882 406.03 389.607 415.691 388.144Z"/><path fill="#500" d="M511.086 399.259C520.029 402.086 518.149 410.391 523.629 417.164C527.684 422.175 532.297 424.442 538.3 425.181C552.007 426.867 554.869 420.624 563.676 412.923C565.265 411.534 567.422 410.796 569.662 411.118C573.546 413.818 571.824 417.981 569.936 421.345C569.308 422.148 568.658 422.933 567.986 423.7C561.713 430.781 552.86 435.048 543.413 435.544C534.022 436.017 524.841 432.655 517.978 426.227C511.066 419.845 503.3 407.711 511.086 399.259Z"/><path fill="#F34539" d="M685.191 487.513C687.272 487.424 688.802 487.496 690.407 488.834C690.93 490.425 690.922 489.621 690.222 491.32C688.654 492.782 687.984 492.829 685.874 493.527C683.404 493.59 681.626 493.964 680.287 491.669L680.681 490.295C682.01 488.629 683.153 488.388 685.191 487.513Z"/><path fill="#F34539" d="M371.538 623.308C372.722 622.862 374.046 623.443 374.52 624.616C374.993 625.79 374.444 627.127 373.282 627.628C372.506 627.963 371.609 627.851 370.939 627.335C370.269 626.82 369.93 625.982 370.055 625.146C370.179 624.309 370.747 623.606 371.538 623.308Z"/><path fill="#F34539" d="M370.696 609.256C371.535 608.582 372.763 608.72 373.431 609.563C374.1 610.407 373.953 611.633 373.105 612.296C372.266 612.952 371.053 612.808 370.391 611.973C369.729 611.137 369.865 609.924 370.696 609.256Z"/><path fill="#FE5939" d="M217.655 405.012C215.357 401.529 213.354 397.859 211.667 394.042C197.17 361.855 198.653 318.573 211.356 285.877C220.966 261.142 240.489 234.571 265.304 223.804C271.824 220.975 281.718 218.144 288.53 221.054C292.832 222.891 294.816 225.92 296.43 230.074C297.344 241.296 295.411 249.571 294.993 260.437C294.204 280.668 300.25 309.084 316.55 322.436C335.835 338.234 368.661 341.011 370.157 371.754C373.535 441.144 293.392 483.308 240.787 434.897C231.597 426.44 222.539 416.304 217.655 405.012Z"/><path fill="#FEA26C" d="M217.655 405.012C215.357 401.529 213.354 397.859 211.667 394.042C197.17 361.855 198.653 318.573 211.356 285.877C220.966 261.142 240.489 234.571 265.304 223.804C271.824 220.975 281.718 218.144 288.53 221.054C292.832 222.891 294.816 225.92 296.43 230.074C293.615 231.112 288.282 230.184 285.067 230.509C257.891 233.257 238.741 255.431 226.341 278.117C219.368 291.128 214.269 305.058 211.194 319.495C207.528 337.281 207.126 365.948 212.266 383.443C213.709 388.352 218.544 400.685 217.655 405.012Z"/><path fill="#FEA26C" d="M252.766 259.957C267.425 260.379 258.883 286.088 256.732 293.947C254.339 302.69 249.8 311.619 241.543 315.991C229.858 309.358 232.211 294.872 235.47 283.829C238.442 273.762 243.228 265.066 252.766 259.957Z"/><path fill="#FE5939" d="M608.966 712.076C606.674 700.076 612.555 681.545 618.048 671.001C629.108 649.775 644.261 629.27 665.658 617.625C673.942 613.117 680.277 610.917 688.993 608.029C691.002 609.267 693.888 610.967 695.705 612.343C702.309 610.494 711.744 609.456 718.35 611.28C723.688 611.666 732.062 613.749 736.547 611.327C750.961 618.376 761.938 630.921 767.012 646.143C788.106 709.367 695.746 786.157 636.361 758.578C630.271 755.75 622.52 745.59 624.285 738.609C624.551 731.583 624.021 733.412 630.505 731.007C636.7 728.708 651.183 723.183 652.015 715.725L651.482 715.236C647.516 715.45 645.506 716.886 641.991 718.61C634.399 722.334 624.001 727.52 615.641 723.291C611.844 721.371 610.219 715.859 608.966 712.076Z"/><path fill="#F34539" d="M736.547 611.327C750.961 618.376 761.938 630.921 767.012 646.143C788.106 709.367 695.746 786.157 636.361 758.578C630.271 755.75 622.52 745.59 624.285 738.609C624.552 738.975 625.138 739.408 625.515 739.726C627.189 739.445 626.777 739.367 628.241 737.798C631.16 737.944 636.016 739.641 639.626 739.948C666.87 741.922 689.564 729.035 709.906 711.808C734.827 690.703 757.12 651.839 730.036 623.156C726.445 619.354 721.718 616.485 718.11 612.397L718.35 611.28C723.688 611.666 732.062 613.749 736.547 611.327Z"/><path fill="#E5382C" d="M668.45 749.21C670.13 749.795 670.604 750.102 671.603 751.507C671.883 753.865 672.002 752.716 671.01 755.055C669.238 754.049 668.859 753.934 667.522 752.464C667.253 750.593 667.296 751.232 668.45 749.21Z"/><path fill="#E5382C" d="M695.411 741.4C697.188 741.357 698.162 741.144 699.695 742.021C700.336 743.736 700.129 743.219 699.65 745.324C697.872 745.054 697.399 745.076 695.783 744.194C694.888 742.536 695.078 743.424 695.411 741.4Z"/><path fill="#FEA26C" d="M608.966 712.076C606.674 700.076 612.555 681.545 618.048 671.001C629.108 649.775 644.261 629.27 665.658 617.625C673.942 613.117 680.277 610.917 688.993 608.029C691.002 609.267 693.888 610.967 695.705 612.343C687.892 616.619 678.446 618.182 670.742 622.774C666.084 625.551 661.305 629.581 657.018 633.395C637.129 651.092 618.749 673.855 612.561 700.221C611.777 703.562 614.099 708.125 611.296 711.124C610.594 711.419 609.666 711.847 608.966 712.076Z"/><path fill="#FEA26C" d="M685.927 622.139C687.916 621.927 691.211 621.978 691.67 624.25C693.909 635.32 666.459 643.982 659.378 646.802C657.123 647.551 655.966 647.968 653.794 646.777C653.424 644.744 653.944 643.644 655.249 641.863C662.454 632.028 674.047 624.455 685.927 622.139Z"/><path fill="#F34539" d="M729.151 654.248C731.236 654.845 732.114 655.201 732.77 657.257C732.427 659.387 731.624 659.96 730.15 661.684C727.905 661.192 727.3 661.13 726.768 658.812C727.254 656.591 727.771 656.155 729.151 654.248Z"/><path fill="#E5382C" d="M720.514 672.707C721.653 673.312 721.722 673.504 722.638 674.445C722.755 676.385 722.359 676.302 721.243 678.35C719.886 677.677 719.995 677.641 719.144 676.35C719.221 674.161 719.216 674.817 720.514 672.707Z"/><path fill="#F34539" d="M330.139 271.096C334.087 258.94 340.966 256.342 352.077 262.02C359.307 267.157 363.139 271.891 366.875 280.059C376.419 296.28 377.313 314.576 374.214 332.815L369.414 347.663C365.055 342.482 361.029 338.016 355.278 334.317C340.94 325.097 331.403 324.893 318.709 312.381C326.346 299.555 326.897 292.22 328.7 277.615C329.037 275.172 329.52 273.462 330.139 271.096Z"/><path fill="#FE5939" d="M330.139 271.096C334.087 258.94 340.966 256.342 352.077 262.02C359.307 267.157 363.139 271.891 366.875 280.059C376.419 296.28 377.313 314.576 374.214 332.815C371.561 332.937 369.564 333.166 366.941 332.69C363.35 329.964 362.496 311.442 360.431 305.752C356.701 295.477 352.422 278.186 340.688 273.763C336.84 272.312 331.988 275.734 328.7 277.615C329.037 275.172 329.52 273.462 330.139 271.096Z"/><path fill="#FEA26C" d="M330.139 271.096C334.087 258.94 340.966 256.342 352.077 262.02C350.785 263.052 350.088 263.904 348.607 264.259C337.151 262.715 337.55 270.162 330.139 271.096Z"/><path fill="#FE836C" d="M352.077 262.02C359.307 267.157 363.139 271.891 366.875 280.059C363.116 279.893 353.311 268.048 348.607 264.259C350.088 263.904 350.785 263.052 352.077 262.02Z"/><path fill="#F34539" d="M324.885 457.959C329.597 455.727 332.428 454.215 336.782 451.422C339.692 449.555 345.275 445.124 348.092 444.026L348.871 444.449C350.948 449.31 351.322 451.669 351.848 456.958C351.898 462.934 351.224 465.958 348.637 471.469C345.806 476.914 341.63 481.545 336.507 484.924C313.388 498.605 293.85 491.947 288.538 464.517C302.03 464.581 312.28 462.862 324.885 457.959Z"/><path fill="#FE5939" d="M324.885 457.959C329.597 455.727 332.428 454.215 336.782 451.422C339.692 449.555 345.275 445.124 348.092 444.026L348.871 444.449C350.948 449.31 351.322 451.669 351.848 456.958C351.898 462.934 351.224 465.958 348.637 471.469C345.806 476.914 341.63 481.545 336.507 484.924C327.054 475.28 326.189 471.16 324.885 457.959Z"/><path fill="#FEA26C" d="M347.026 455.725C348.618 456.116 350.283 456.498 351.848 456.958C351.898 462.934 351.224 465.958 348.637 471.469C345.309 468.437 346.699 460.042 347.026 455.725Z"/><path fill="#FE836C" d="M348.871 444.449C350.948 449.31 351.322 451.669 351.848 456.958C350.283 456.498 348.618 456.116 347.026 455.725C347.103 451.875 346.894 447.76 348.871 444.449Z"/><defs><linearGradient id="gradient_1" gradientUnits="userSpaceOnUse" x1="676.77826" y1="580.61182" x2="730.16742" y2="560.38422"><stop offset="0" stop-color="#EF3632"/><stop offset="1" stop-color="#FF6B3D"/></linearGradient></defs><path fill="url(#gradient_1)" d="M674.19 558.921C685.566 554.716 686.023 550.132 701.455 550.626C711.659 552.739 715.375 553.799 724.241 559.678C729.77 564.269 732.336 566.871 736.792 572.505C725.093 572.322 715.108 573.861 706.413 582.315C703.893 584.765 701.356 587.839 699.984 591.074C699.27 592.756 697.802 599.023 695.038 598.275C689.631 596.813 684.367 591.917 680.838 587.662C676.295 582.018 674.394 575.344 671.905 568.824C671.916 571.519 672.081 576.668 671.647 579.099C670.34 574.901 671.507 562.615 674.19 558.921Z"/><path fill="#FEA26C" d="M701.455 550.626C711.659 552.739 715.375 553.799 724.241 559.678L720.937 564.825C717.578 563.28 701.65 556.197 700.077 554.087C699.946 552.59 700.621 551.915 701.455 550.626Z"/><path fill="#FE5939" d="M718.157 583.724C732.273 577.932 743.919 578.473 754.597 590.822C755.848 591.739 759.804 596.101 760.847 597.474C772.108 612.302 774.95 623.277 773.164 641.183C758.761 609.121 740.437 599.6 706.25 597.189C709.854 589.553 711.087 588.133 718.157 583.724Z"/><path fill="#FEA26C" d="M718.157 583.724C732.273 577.932 743.919 578.473 754.597 590.822C748.834 591.474 746.369 588.217 741.441 587.546C730.816 586.098 726.777 592.758 718.157 583.724Z"/><defs><linearGradient id="gradient_2" gradientUnits="userSpaceOnUse" x1="364.44107" y1="698.42908" x2="331.86035" y2="685.68652"><stop offset="0" stop-color="#EC3134"/><stop offset="1" stop-color="#FF5E3C"/></linearGradient></defs><path fill="url(#gradient_2)" d="M352.199 666.49C353.409 668.605 354.541 671.445 355.432 673.737C358.652 682.022 362.601 689.612 366.762 697.458C357.913 705.817 352.612 710.303 340.92 713.499C314.505 714.165 330.136 683.549 340.669 674.264C343.824 671.482 348.589 668.773 352.199 666.49Z"/><path fill="#F34539" d="M344.403 625.423C345.038 634.727 347.19 648.748 349.859 657.766C339.697 664.286 328.289 671.289 316.791 663.218C315.476 659.169 316.055 656.597 317.318 652.69C320.548 645.551 324.976 640.952 330.648 635.748C335.359 631.491 338.964 628.737 344.403 625.423Z"/><path fill="#FE5939" d="M330.648 635.748C333.602 635.158 334.375 635.01 337.363 635.079C343.193 642.8 339.102 652.473 331.921 657.65C327.213 661.044 322.468 662.439 316.791 663.218C315.476 659.169 316.055 656.597 317.318 652.69C320.548 645.551 324.976 640.952 330.648 635.748Z"/><path fill="#FEA26C" d="M330.648 635.748C333.602 635.158 334.375 635.01 337.363 635.079L337.025 635.547C333.735 640.187 326.002 657.37 318.644 654.892C317.814 653.749 317.899 653.961 317.318 652.69C320.548 645.551 324.976 640.952 330.648 635.748Z"/><path fill="#F34539" d="M766.344 709.278C773.614 714.453 782.598 736.151 772.921 742.677C768.931 745.368 764.268 744.197 759.926 743.246C753.987 740.812 751.722 739.676 746.701 735.688C755.598 725.894 759.462 720.505 766.344 709.278Z"/><path fill="#F34539" d="M778.646 665.324C782.831 668.173 787.894 674.769 790.283 679.22C795.059 688.115 799.538 697.382 788.626 703.402C781.177 703.113 777.798 701.764 771.557 697.969C776.924 685.644 778.162 678.541 778.646 665.324Z"/><path fill="#FE836C" d="M688.993 608.029C705.761 605.233 720.686 603.435 736.547 611.327C732.062 613.749 723.688 611.666 718.35 611.28C711.744 609.456 702.309 610.494 695.705 612.343C693.888 610.967 691.002 609.267 688.993 608.029Z"/><path fill="#FEB732" d="M187.009 207.535C189.586 207.434 190.76 207.358 192.599 209.337C194.945 215.307 185.56 223.565 181.833 228.456C172.815 240.288 172.407 246.664 170.611 260.852C170.151 264.481 168.378 267.914 165.149 270.039C152.272 260.741 157.993 239.942 163.961 227.977C168.938 218.002 176.233 210.928 187.009 207.535Z"/><path fill="#FEB732" d="M210.322 220.487C212.324 220.392 216.637 220.82 216.114 223.762C214.401 233.41 203.721 238.532 199.16 247.902C195.988 254.416 192.621 264.621 188.568 269.994C179.048 269.716 184.019 253.307 186.025 248.249C190.733 236.379 198.517 225.848 210.322 220.487Z"/><path fill="#F8F4F4" d="M502.765 787.577C495.506 787.596 463.777 785.409 458.297 783.34C463.365 780.763 495.15 784.522 502.404 785.7C504.212 786.429 505.003 786.011 506.637 787.075L506.495 787.244L505.208 786.984L504.774 787.724C504.086 787.653 503.443 787.544 502.765 787.577Z"/></svg>