<?xml version="1.0" encoding="utf-8" ?><svg xmlns="http://www.w3.org/2000/svg" xmlns:xlink="http://www.w3.org/1999/xlink" width="1536" height="1024" viewBox="0 0 1536 1024"><path fill="#2D4B7A" d="M830.753 601.819C823.421 619.846 804.51 644.522 791.176 658.875C626.028 836.646 284.724 719.015 270.343 475.587C261.072 318.655 389.559 209.82 541.128 205.728C600.147 204.102 658.528 218.293 710.219 246.829C718.374 251.337 735.181 261.379 741.836 267.668C763.8 283.752 774.763 294.19 792.914 313.722C814.489 337.771 831.587 365.488 843.399 395.563C844.111 397.424 847.825 407.748 847.968 409.283C851.455 417.107 854.21 429.629 855.82 438.081C864.392 483.474 860.136 530.358 843.533 573.465C841.161 579.67 834.342 597.415 830.753 601.819Z"/><path fill="#8EC6E7" d="M830.753 601.819C823.421 619.846 804.51 644.522 791.176 658.875C626.028 836.646 284.724 719.015 270.343 475.587C261.072 318.655 389.559 209.82 541.128 205.728C600.147 204.102 658.528 218.293 710.219 246.829C718.374 251.337 735.181 261.379 741.836 267.668C763.8 283.752 774.763 294.19 792.914 313.722C795.296 323.841 792.287 336.633 796.015 346.063C801.395 359.674 814.557 375.229 818.469 389.356C815.416 386.13 815.719 383.146 812.284 380.245C811.255 379.324 808.886 374.797 808.125 373.32C800.815 359.146 792.956 347.835 783.555 335.074C749.421 294.279 712.564 266.615 662.55 246.903C649.126 241.612 636.349 238.375 622.654 234.307C598.375 229.441 576.563 226.063 551.639 226.109C541.858 226.127 531.958 227.231 522.273 227.262C492.56 231.091 470.145 235.366 441.983 246.802C432.855 250.508 422.51 256.104 414.547 259.306C406.538 264.501 398.36 269.126 390.496 274.563C365.247 291.906 343.83 314.254 327.575 340.221C322.239 348.659 316.182 362.831 312.385 368.568C290.572 425.081 288.975 482.295 313.786 538.471C317.369 546.468 321.193 554.355 325.252 562.121C335.511 577.93 343.374 590.912 356.006 605.335C364.295 614.799 373.149 622.415 381.272 631.197C472.401 706 585.926 729.577 696.879 685.81C701.697 683.029 710.437 679.152 715.893 676.338C727.687 670.304 738.901 663.199 749.396 655.115L750.296 655.742C748.343 660.658 741.699 660.912 740.2 664.811C741.175 665.906 741.574 665.907 742.947 666.427L742.653 667.305C741.62 670.436 739.397 678.738 740.111 681.876L741.793 683.601C739.664 686.219 732.345 689.682 729.025 691.318C705.664 702.829 673.445 717.664 647.453 719.651C648.927 720.808 649.187 720.496 651.343 720.836C657.745 719.724 667.593 716.983 674.047 715.315C693.861 709.863 711.442 701.886 729.624 692.631C739.701 686.289 750.529 680.273 760.246 673.323C766.967 668.516 773.554 661.96 780.236 656.983C791.819 646.051 798.504 638.865 808.67 626.865L809.048 626.666C811.927 622.043 817.74 614.429 821.043 609.762C827.7 599.147 832.003 590.086 838.154 579.662C840.402 585.023 830.373 596.216 830.239 601.29L830.753 601.819Z"/><path fill="#2D4B7A" d="M830.753 601.819C823.421 619.846 804.51 644.522 791.176 658.875C626.028 836.646 284.724 719.015 270.343 475.587C261.072 318.655 389.559 209.82 541.128 205.728C600.147 204.102 658.528 218.293 710.219 246.829C718.374 251.337 735.181 261.379 741.836 267.668C738.649 266.367 722.181 255.393 717.987 252.824C705.372 245.238 692.238 238.552 678.683 232.815C626.27 210.75 569.044 202.617 512.561 209.206C504.908 210.028 486.208 212.293 479.439 215.016C471.588 220.288 442.462 227.323 431.66 231.846C377.96 254.328 333.675 292.134 304.256 342.453C302.794 344.941 299.969 349.901 297.279 350.799C293.954 356.5 289.452 367.411 287.086 373.613C270.627 416.587 267.897 463.607 279.271 508.197C298.403 581.332 353.076 644.875 417.796 681.903C491.446 724.039 568.522 736.027 651.343 720.836C657.745 719.724 667.593 716.983 674.047 715.315C693.861 709.863 711.442 701.886 729.624 692.631C739.701 686.289 750.529 680.273 760.246 673.323C766.967 668.516 773.554 661.96 780.236 656.983C791.819 646.051 798.504 638.865 808.67 626.865L809.048 626.666C811.927 622.043 817.74 614.429 821.043 609.762C827.7 599.147 832.003 590.086 838.154 579.662C840.402 585.023 830.373 596.216 830.239 601.29L830.753 601.819Z"/><path fill="#D0EBF7" d="M297.279 350.799C302.24 339.995 311.992 324.591 319.094 315.09C351.476 271.772 397.069 240.66 448.114 223.419C457.382 220.288 469.779 216.45 479.439 215.016C471.588 220.288 442.462 227.323 431.66 231.846C377.96 254.328 333.675 292.134 304.256 342.453C302.794 344.941 299.969 349.901 297.279 350.799Z"/><path fill="#2A3661" d="M729.624 692.631C727.575 698.087 681.131 717.116 674.047 715.315C693.861 709.863 711.442 701.886 729.624 692.631Z"/><path fill="#1E2754" d="M808.67 626.865C808.395 631.928 785.171 656.044 780.236 656.983C791.819 646.051 798.504 638.865 808.67 626.865Z"/><path fill="#1E2754" d="M821.043 609.762C821.394 614.164 813.239 625.308 809.048 626.666C811.927 622.043 817.74 614.429 821.043 609.762Z"/><path fill="#F7F9F8" d="M381.272 631.197C472.401 706 585.926 729.577 696.879 685.81L697.329 686.252L697.235 686.917C690.974 690.402 660.49 700.731 653.415 702.384C577.192 720.193 496.843 708.774 429.423 668.657C421.343 663.849 382.954 637.447 381.272 631.197Z"/><path fill="#D0EBF7" d="M325.252 562.121L324.4 562.739C294.693 511.143 284.546 456.514 300.365 398.146C301.829 392.743 308.434 370.836 312.385 368.568C290.572 425.081 288.975 482.295 313.786 538.471C317.369 546.468 321.193 554.355 325.252 562.121Z"/><path fill="#D0EBF7" d="M622.654 234.307C623.144 233.819 623.455 233.204 624.176 233.191C627.7 233.13 630.551 235.533 633.939 236.162C677.404 244.226 733.62 279.302 764.338 310.435C767.534 313.675 783.469 331.178 783.937 334.232L783.555 335.074C749.421 294.279 712.564 266.615 662.55 246.903C649.126 241.612 636.349 238.375 622.654 234.307Z"/><path fill="#D0EBF7" d="M414.547 259.306L413.977 258.532C421.076 253.823 442.975 243.588 451.052 241.096C462.942 237.427 513.253 222.723 522.273 227.262C492.56 231.091 470.145 235.366 441.983 246.802C432.855 250.508 422.51 256.104 414.547 259.306Z"/><defs><linearGradient id="gradient_0" gradientUnits="userSpaceOnUse" x1="851.73541" y1="577.40631" x2="692.40967" y2="432.19522"><stop offset="0" stop-color="#6390BD"/><stop offset="1" stop-color="#89B7DB"/></linearGradient></defs><path fill="url(#gradient_0)" d="M792.914 313.722C814.489 337.771 831.587 365.488 843.399 395.563C844.111 397.424 847.825 407.748 847.968 409.283C851.455 417.107 854.21 429.629 855.82 438.081C864.392 483.474 860.136 530.358 843.533 573.465C841.161 579.67 834.342 597.415 830.753 601.819L830.239 601.29C830.373 596.216 840.402 585.023 838.154 579.662C832.003 590.086 827.7 599.147 821.043 609.762C817.74 614.429 811.927 622.043 809.048 626.666L808.67 626.865C798.504 638.865 791.819 646.051 780.236 656.983C773.554 661.96 766.967 668.516 760.246 673.323C750.529 680.273 739.701 686.289 729.624 692.631C711.442 701.886 693.861 709.863 674.047 715.315C667.593 716.983 657.745 719.724 651.343 720.836C649.187 720.496 648.927 720.808 647.453 719.651C673.445 717.664 705.664 702.829 729.025 691.318C732.345 689.682 739.664 686.219 741.793 683.601L740.111 681.876C739.397 678.738 741.62 670.436 742.653 667.305L742.947 666.427C741.574 665.907 741.175 665.906 740.2 664.811C741.699 660.912 748.343 660.658 750.296 655.742C754.416 653.624 764.177 644.799 768.241 641.283C770.852 638.355 772.704 636.502 775.585 633.833C840.223 567.743 854.124 473.654 818.469 389.356C814.557 375.229 801.395 359.674 796.015 346.063C792.287 336.633 795.296 323.841 792.914 313.722Z"/><path fill="#1E2754" d="M847.968 409.283C851.455 417.107 854.21 429.629 855.82 438.081C864.392 483.474 860.136 530.358 843.533 573.465C841.161 579.67 834.342 597.415 830.753 601.819L830.239 601.29C830.373 596.216 840.402 585.023 838.154 579.662C857.184 537.639 863.423 490.942 856.094 445.395C854.071 432.499 850.375 421.547 847.968 409.283Z"/><path fill="#359CD1" d="M775.585 633.833C774.992 636.051 770.199 640.019 768.241 641.283C770.852 638.355 772.704 636.502 775.585 633.833Z"/><path fill="#D0EBF7" d="M812.284 380.245C815.719 383.146 815.416 386.13 818.469 389.356C854.124 473.654 840.223 567.743 775.585 633.833C772.704 636.502 770.852 638.355 768.241 641.283C764.177 644.799 754.416 653.624 750.296 655.742L749.396 655.115C829.229 592.092 856.398 494.906 820.023 399.187C817.605 392.826 814.545 386.647 812.284 380.245Z"/><defs><linearGradient id="gradient_1" gradientUnits="userSpaceOnUse" x1="614.98999" y1="241.60825" x2="518.69763" y2="692.30298"><stop offset="0" stop-color="#5EC5EA"/><stop offset="1" stop-color="#68E7FE"/></linearGradient></defs><path fill="url(#gradient_1)" d="M542.032 234.39L542.309 234.378C620.422 231.978 697.649 258.431 754.439 312.505C841.457 395.362 859.782 537.095 772.694 626.868C724.276 676.777 661.633 699.861 592.868 701.501C516.219 703.075 441.777 675.788 384.294 625.048C338.859 584.18 307.278 526.757 304.03 465.096C301.041 410.461 319.99 356.894 356.666 316.297C405.727 261.997 470.021 237.923 542.032 234.39Z"/><path fill="#1E2754" d="M599.172 448.349C609.517 443.663 628.244 431.033 639.433 425.706C640.096 425.804 640.759 425.901 641.422 425.998C649.34 438.726 654.962 449.825 655.88 465.192L659.778 465.256L659.732 468.337C665.363 467.78 720.451 468.333 722.986 469.721L724.555 470.261L726.001 469.498C733.023 468.94 770.362 469.476 777.572 470.049C779.871 469.772 781.565 469.353 783.771 469.98C796.282 470.945 809.986 470.337 822.703 470.851C823.414 498.677 821.42 523.853 811.787 550.241C810.89 552.697 809.488 556.231 808.886 558.665L808.008 559.806C797.89 584.425 781.031 610.361 761.499 628.542L759.757 630.136C714.141 671.387 662.529 691.797 600.89 694.714L598.7 694.689C539.092 696.758 489.582 683.543 437.65 654.729L436.637 654.164C428.441 648.512 419.525 643.36 411.528 637.556C389.297 621.42 365.227 598.017 350.442 574.719L349.261 573.159C328.906 544.135 315.032 508.661 311.741 473.28C320.463 473.264 356.343 471.45 362.265 472.493C364.323 472.738 363.366 472.883 365.247 472.075L370.594 471.913C380.68 471.648 393.686 471.517 403.535 470.566L403.052 468.831C408.765 468.867 414.479 468.77 420.188 468.54C420.796 463.409 422.324 459.289 422.829 453.989L425.358 452.424L425.875 454.774C431.923 454.088 433.457 448.833 441.03 449.725C446.755 452.154 451.768 451.476 457.742 451.916C458.734 452.61 461.105 454.174 461.92 454.912C462.267 458.047 462.239 458.735 464.321 461.206C470.709 455.815 474.749 460.14 474.438 467.381C477.679 469.399 483.757 467.509 489.069 468.188L493.034 468.406C508.497 467.141 534.802 469 548.972 466.535L549.303 465.133C549.335 460.646 549.594 459.714 550.963 455.44L551.613 454.165C557.584 446.676 561.421 444.651 570.689 443.536L573.258 443.53C578.268 444.177 579.587 444.81 584.304 446.803C587.308 448.725 588.992 449.572 591.129 452.439C592.06 450.383 593.433 449.38 595.093 447.824L597.024 449.248C598.638 448.88 598.13 449.291 599.172 448.349Z"/><path fill="#2A3661" d="M599.172 448.349C609.517 443.663 628.244 431.033 639.433 425.706C640.096 425.804 640.759 425.901 641.422 425.998C649.34 438.726 654.962 449.825 655.88 465.192L659.778 465.256L659.732 468.337C665.363 467.78 720.451 468.333 722.986 469.721L724.555 470.261L726.001 469.498C726.259 496.971 724.138 504.82 713.778 529.878C707.781 540.56 703.633 547.225 695.448 556.501L691.287 561.145C659.759 590.17 632.606 599.422 590.31 601.766L588.428 601.461C556.07 603.405 523.233 591.746 495.555 575.995C487.086 570.277 478.939 564.097 471.151 557.481C470.668 556.83 465.907 552.451 465.029 551.626C456.208 542.275 451.991 536.463 444.537 525.916L437.988 514.39C436.762 511.724 435.548 507.859 434.564 505.003L432.333 501.018C427.929 496.845 421.793 489.757 418.583 487.041C415.918 479.952 416.166 478.302 416.828 470.617L404.562 470.537L403.535 470.566L403.052 468.831C408.765 468.867 414.479 468.77 420.188 468.54C420.796 463.409 422.324 459.289 422.829 453.989L425.358 452.424L425.875 454.774C431.923 454.088 433.457 448.833 441.03 449.725C446.755 452.154 451.768 451.476 457.742 451.916C458.734 452.61 461.105 454.174 461.92 454.912C462.267 458.047 462.239 458.735 464.321 461.206C470.709 455.815 474.749 460.14 474.438 467.381C477.679 469.399 483.757 467.509 489.069 468.188L493.034 468.406C508.497 467.141 534.802 469 548.972 466.535L549.303 465.133C549.335 460.646 549.594 459.714 550.963 455.44L551.613 454.165C557.584 446.676 561.421 444.651 570.689 443.536L573.258 443.53C578.268 444.177 579.587 444.81 584.304 446.803C587.308 448.725 588.992 449.572 591.129 452.439C592.06 450.383 593.433 449.38 595.093 447.824L597.024 449.248C598.638 448.88 598.13 449.291 599.172 448.349Z"/><path fill="#2D4B7A" d="M599.172 448.349C609.517 443.663 628.244 431.033 639.433 425.706C640.096 425.804 640.759 425.901 641.422 425.998C649.34 438.726 654.962 449.825 655.88 465.192L659.778 465.256L659.732 468.337C658.332 482.421 657.305 487.658 651.445 500.651C647.255 506.775 644.965 509.597 640.058 515.305L638.846 516.549C624.476 528.632 609.466 535.904 590.425 537.19C587.428 537.177 584.701 536.949 581.853 537.796C547.299 537.907 521.288 525.045 500.864 497.309L496.518 489.702L494.563 485.622C492.461 480.284 490.997 474.508 489.311 468.99L489.069 468.188L493.034 468.406C508.497 467.141 534.802 469 548.972 466.535L549.303 465.133C549.335 460.646 549.594 459.714 550.963 455.44L551.613 454.165C557.584 446.676 561.421 444.651 570.689 443.536L573.258 443.53C578.268 444.177 579.587 444.81 584.304 446.803C587.308 448.725 588.992 449.572 591.129 452.439C592.06 450.383 593.433 449.38 595.093 447.824L597.024 449.248C598.638 448.88 598.13 449.291 599.172 448.349Z"/><path fill="#3E6796" d="M599.172 448.349C609.517 443.663 628.244 431.033 639.433 425.706C640.096 425.804 640.759 425.901 641.422 425.998C649.34 438.726 654.962 449.825 655.88 465.192L659.778 465.256L659.732 468.337L655.508 467.554C638.276 467.474 621.045 467.215 603.818 466.775L602.7 467.179C600.28 466.582 599.172 465.848 597.174 466.612L596.7 467.691C596.238 460.478 595.882 459.043 591.946 453.046L591.129 452.439C592.06 450.383 593.433 449.38 595.093 447.824L597.024 449.248C598.638 448.88 598.13 449.291 599.172 448.349Z"/><path fill="#71F0FB" d="M603.506 465.836C606.158 463.246 649.105 465.058 655.88 465.192L659.778 465.256L659.732 468.337L655.508 467.554C638.276 467.474 621.045 467.215 603.818 466.775L603.506 465.836Z"/><path fill="#2D4B7A" d="M591.946 453.046C595.079 451.138 593.826 451.34 596.908 451.59C600.802 453.981 602 459.068 603.056 463.448C603.243 464.237 603.394 465.033 603.506 465.836L603.818 466.775L602.7 467.179C600.28 466.582 599.172 465.848 597.174 466.612L596.7 467.691C596.238 460.478 595.882 459.043 591.946 453.046Z"/><path fill="#2D4B7A" d="M603.818 466.775C621.045 467.215 638.276 467.474 655.508 467.554C659.204 479.996 647.712 505.225 637.806 513.099L636.632 514.171C630.002 507.701 601.154 485.786 599.294 480.163C601.922 475.093 602.759 472.865 602.7 467.179L603.818 466.775Z"/><path fill="#4281C9" d="M599.294 480.163C602.877 481.862 633.112 508.827 637.806 513.099L636.632 514.171C630.002 507.701 601.154 485.786 599.294 480.163Z"/><path fill="#D0EBF7" d="M570.689 443.536L573.258 443.53C578.268 444.177 579.587 444.81 584.304 446.803C587.308 448.725 588.992 449.572 591.129 452.439L591.946 453.046C595.882 459.043 596.238 460.478 596.7 467.691C593.372 490.387 557.133 492.409 548.972 466.535L549.303 465.133C549.335 460.646 549.594 459.714 550.963 455.44L551.613 454.165C557.584 446.676 561.421 444.651 570.689 443.536Z"/><path fill="#3E6796" d="M554.52 464.371C558.986 435.381 601.56 451.632 588.19 474.2C577.589 484.122 560.657 480.994 555.136 467.229L554.52 464.371Z"/><path fill="#2D4B7A" d="M564.713 465.71C568.744 465.72 572.767 465.524 576.794 465.36C581.232 468.409 584.305 470.387 588.19 474.2C577.589 484.122 560.657 480.994 555.136 467.229C556.764 465.399 562.135 465.776 564.713 465.71Z"/><path fill="#356EB6" d="M554.52 464.371C557.599 464.331 562.465 463.753 564.713 465.71C562.135 465.776 556.764 465.399 555.136 467.229L554.52 464.371Z"/><path fill="#49AFE8" d="M655.508 467.554L659.732 468.337C658.332 482.421 657.305 487.658 651.445 500.651C647.255 506.775 644.965 509.597 640.058 515.305L638.846 516.549C624.476 528.632 609.466 535.904 590.425 537.19C587.428 537.177 584.701 536.949 581.853 537.796C547.299 537.907 521.288 525.045 500.864 497.309L496.518 489.702L500.073 489.108C519.452 520.817 544.169 534.017 581.243 534.718C600.253 533.73 623.006 528.394 636.632 514.171L637.806 513.099C647.712 505.225 659.204 479.996 655.508 467.554Z"/><path fill="#8EC6E7" d="M489.069 468.188L493.034 468.406C494.418 476.076 496.38 482.206 500.073 489.108L496.518 489.702L494.563 485.622C492.461 480.284 490.997 474.508 489.311 468.99L489.069 468.188Z"/><path fill="#2A3661" d="M638.846 516.549C649.696 525.481 660.463 534.515 671.143 543.65C675.18 547.08 685.569 556.291 689.341 558.542C665.368 583.851 625.617 598.446 591.446 598.415C590.754 598.414 590.522 598.422 589.819 598.319L587.958 598.66C586.657 580.647 584.315 555.573 581.853 537.796C584.701 536.949 587.428 537.177 590.425 537.19C609.466 535.904 624.476 528.632 638.846 516.549Z"/><path fill="#356EB6" d="M581.853 537.796C584.701 536.949 587.428 537.177 590.425 537.19C587.607 537.713 585.741 537.565 583.808 539.195C583.668 555.291 589.325 580.941 589.819 598.319L587.958 598.66C586.657 580.647 584.315 555.573 581.853 537.796Z"/><path fill="#293D6A" d="M659.732 468.337C665.363 467.78 720.451 468.333 722.986 469.721L723.099 476.634C722.469 509.598 711.847 533.621 690.076 558.03L689.341 558.542C685.569 556.291 675.18 547.08 671.143 543.65C660.463 534.515 649.696 525.481 638.846 516.549L640.058 515.305C644.965 509.597 647.255 506.775 651.445 500.651C657.305 487.658 658.332 482.421 659.732 468.337Z"/><path fill="#2D4B7A" d="M659.732 468.337C665.363 467.78 720.451 468.333 722.986 469.721L723.099 476.634C713.349 474.604 669.6 469.704 661.736 473.811C657.829 478.534 659.353 495.875 651.445 500.651C657.305 487.658 658.332 482.421 659.732 468.337Z"/><path fill="#356EB6" d="M640.058 515.305L673.663 543.659C676.876 546.375 687.77 555.324 690.076 558.03L689.341 558.542C685.569 556.291 675.18 547.08 671.143 543.65C660.463 534.515 649.696 525.481 638.846 516.549L640.058 515.305Z"/><path fill="#F7F9F8" d="M425.358 452.424L425.875 454.774C431.923 454.088 433.457 448.833 441.03 449.725C446.755 452.154 451.768 451.476 457.742 451.916C458.734 452.61 461.105 454.174 461.92 454.912C462.267 458.047 462.239 458.735 464.321 461.206C477.906 474.461 465.391 502.043 447.171 501.381C444.197 501.273 436.147 499.739 434.228 500.715C434.367 502.565 434.892 503.222 435.772 504.833L434.564 505.003L432.333 501.018C427.929 496.845 421.793 489.757 418.583 487.041C415.918 479.952 416.166 478.302 416.828 470.617L404.562 470.537L403.535 470.566L403.052 468.831C408.765 468.867 414.479 468.77 420.188 468.54C420.796 463.409 422.324 459.289 422.829 453.989L425.358 452.424Z"/><path fill="#FD9A10" d="M433.775 493.417C426.898 488.929 422.941 478.547 424.917 470.574C426.124 469.877 426.418 469.653 427.767 469.206L426.213 467.849C427.565 456.74 441.913 455.918 450.554 456.516C453.631 458.532 461.552 463.146 462.377 466.44C459.851 467.941 450.886 468.687 447.417 469.099C452.959 469.004 458.882 468.768 464.364 469.332C465.984 477.119 466.069 479.808 462.089 486.926C457.111 495.829 442.325 500.603 434.182 493.393L433.775 493.417Z"/><path fill="#E67932" d="M433.775 493.417C433.606 488.014 428.085 486.721 428.609 479.7L429.712 478.863C433.766 479.466 437.521 483.759 437.068 488.145C436.937 489.421 434.972 492.184 434.182 493.393L433.775 493.417Z"/><path fill="#E67932" d="M458.845 473.938C459.988 475.143 460.794 477.483 460.52 479.053C458.712 489.415 446.496 493.49 438.167 493.254C437.648 493.045 437.406 492.624 436.962 492.135C438.974 484.922 443.924 486.88 449.338 486.373C452.817 486.047 457.194 477.011 458.845 473.938Z"/><path fill="#F7F9F8" d="M442.059 469.77C444.121 469.078 446.397 469.559 448.002 471.028C449.607 472.497 450.289 474.721 449.783 476.837C449.277 478.954 447.663 480.629 445.567 481.212C442.442 482.083 439.192 480.304 438.24 477.201C437.289 474.098 438.982 470.802 442.059 469.77Z"/><path fill="#E67932" d="M464.321 461.206C470.709 455.815 474.749 460.14 474.438 467.381C477.679 469.399 483.757 467.509 489.069 468.188L489.311 468.99C490.997 474.508 492.461 480.284 494.563 485.622L496.518 489.702L500.864 497.309C497.202 498.54 483.277 505.077 481.526 507.889L480.547 508.779C470.379 503.073 473.455 497.743 462.442 505.778C462.245 505.922 457.01 507.054 456.011 507.35C454.808 510.189 459.839 519.05 457.158 520.152L457.013 519.458C456.183 515.661 454.988 511.672 452.459 508.664C445.464 510.473 445.721 511.639 439.114 510.063C438.128 508.357 436.858 506.504 435.772 504.833C434.892 503.222 434.367 502.565 434.228 500.715C436.147 499.739 444.197 501.273 447.171 501.381C465.391 502.043 477.906 474.461 464.321 461.206Z"/><path fill="#463C4E" d="M481.526 507.889C464.784 496.44 476.349 496.047 478.21 483.671C482.043 483.921 486.139 484.379 489.987 484.737C491.936 486.046 491.729 485.591 494.563 485.622L496.518 489.702L500.864 497.309C497.202 498.54 483.277 505.077 481.526 507.889Z"/><path fill="#6A4145" d="M489.311 468.99C490.997 474.508 492.461 480.284 494.563 485.622C491.729 485.591 491.936 486.046 489.987 484.737C483.338 480.437 479.463 484.823 480.733 472.156C483.089 469.274 485.491 471.773 489.311 468.99Z"/><path fill="#49AFE8" d="M722.986 469.721L724.555 470.261L726.001 469.498C726.259 496.971 724.138 504.82 713.778 529.878C707.781 540.56 703.633 547.225 695.448 556.501L691.287 561.145C659.759 590.17 632.606 599.422 590.31 601.766L588.428 601.461C556.07 603.405 523.233 591.746 495.555 575.995C487.086 570.277 478.939 564.097 471.151 557.481C470.668 556.83 465.907 552.451 465.029 551.626C456.208 542.275 451.991 536.463 444.537 525.916L437.988 514.39C436.762 511.724 435.548 507.859 434.564 505.003L435.772 504.833C436.858 506.504 438.128 508.357 439.114 510.063C441.344 514.101 444.728 520.592 447.647 523.945C451.666 531.181 455.594 536.066 461.084 542.292C467.562 550.57 477.01 559.072 485.728 564.927C511.764 586.767 554.274 599.02 587.958 598.66L589.819 598.319C590.522 598.422 590.754 598.414 591.446 598.415C625.617 598.446 665.368 583.851 689.341 558.542L690.076 558.03C711.847 533.621 722.469 509.598 723.099 476.634L722.986 469.721Z"/><path fill="#6A4145" d="M439.114 510.063C445.721 511.639 445.464 510.473 452.459 508.664C454.988 511.672 456.183 515.661 457.013 519.458L457.158 520.152C459.839 519.05 454.808 510.189 456.011 507.35C457.01 507.054 462.245 505.922 462.442 505.778C473.455 497.743 470.379 503.073 480.547 508.779L481.526 507.889C483.021 508.284 483.277 508.054 483.962 508.981C488.031 514.481 493.54 518.724 498.065 524.03C493.674 521.191 482.903 514.048 479.642 510.58C476.779 511.96 470.72 515.084 467.956 515.986C466.582 517.949 462.299 519.502 459.97 520.438C461.2 524.185 466.563 538.636 465.807 541.617L461.084 542.292C455.594 536.066 451.666 531.181 447.647 523.945C444.728 520.592 441.344 514.101 439.114 510.063Z"/><path fill="#463C4E" d="M456.335 519.313C457.216 522.622 458.301 526.735 460.308 529.467C459.811 523.09 458.294 515.17 467.956 515.986C466.582 517.949 462.299 519.502 459.97 520.438C461.2 524.185 466.563 538.636 465.807 541.617L461.084 542.292C455.594 536.066 451.666 531.181 447.647 523.945C448.768 523.032 454.687 520.149 456.335 519.313Z"/><path fill="#2D4B7A" d="M465.807 541.617C471.749 541.707 472.464 541.159 476.968 545.205C480.957 548.788 485.256 560.085 485.728 564.927C477.01 559.072 467.562 550.57 461.084 542.292L465.807 541.617Z"/><path fill="#1E2754" d="M729.356 599.01C735.834 605.334 754.846 623.826 761.499 628.542L759.757 630.136C714.141 671.387 662.529 691.797 600.89 694.714L598.7 694.689C596.739 682.273 595.622 666.198 594.172 653.296L596.18 653.339C642.907 651.938 679.735 637.543 716.847 610.185L717.909 609.139C721.241 606.651 724.656 603.335 727.747 600.485L729.356 599.01Z"/><path fill="#4281C9" d="M594.172 653.296L596.18 653.339C597.602 667.039 599.784 681.112 600.89 694.714L598.7 694.689C596.739 682.273 595.622 666.198 594.172 653.296Z"/><path fill="#2A3661" d="M729.356 599.01C735.834 605.334 754.846 623.826 761.499 628.542L759.757 630.136C756.854 625.972 733.126 605.165 727.747 600.485L729.356 599.01Z"/><path fill="#2A3661" d="M716.847 610.185L717.909 609.139C726.946 619.165 731.379 623.698 738.822 635.095C735.953 633.689 720.348 614.086 716.847 610.185Z"/><path fill="#1E2754" d="M461.675 618.379L463.03 618.947C499.862 641.216 550.95 655.873 594.172 653.296C595.622 666.198 596.739 682.273 598.7 694.689C539.092 696.758 489.582 683.543 437.65 654.729L436.637 654.164C441.266 645.716 455.458 626.879 461.675 618.379Z"/><path fill="#2D4B7A" d="M461.675 618.379L463.03 618.947C455.389 630.985 445.989 643.116 437.65 654.729L436.637 654.164C441.266 645.716 455.458 626.879 461.675 618.379Z"/><path fill="#1E2754" d="M495.555 575.995C523.233 591.746 556.07 603.405 588.428 601.461L590.31 601.766C591.543 612.03 595.538 641.038 595.663 650.326L593.983 650.284C590.554 652.113 578.51 650.782 573.938 650.524C535.398 648.35 497.92 636.825 464.792 616.989L462.782 615.749C464.874 614.497 472.045 603.53 473.842 600.886L475.596 597.838L478.388 597.395C480.007 595.778 480.419 595.56 481.225 593.494L493.011 577.566L495.555 575.995Z"/><path fill="#4281C9" d="M588.428 601.461L590.31 601.766C591.543 612.03 595.538 641.038 595.663 650.326L593.983 650.284C592.199 643.233 589.361 610.461 588.428 601.461Z"/><path fill="#2D4B7A" d="M475.596 597.838L478.388 597.395C474.33 602.886 468.37 611.234 464.792 616.989L462.782 615.749C464.874 614.497 472.045 603.53 473.842 600.886L475.596 597.838Z"/><path fill="#2A3661" d="M391.936 551.358L393.018 552.816C414.209 583.155 431.516 598.002 461.675 618.379C455.458 626.879 441.266 645.716 436.637 654.164C428.441 648.512 419.525 643.36 411.528 637.556C389.297 621.42 365.227 598.017 350.442 574.719L349.261 573.159C352.54 570.113 383.605 555.186 389.759 552.141L391.936 551.358Z"/><path fill="#2D4B7A" d="M391.936 551.358L393.018 552.816C387.798 554.761 352.437 571.614 350.442 574.719L349.261 573.159C352.54 570.113 383.605 555.186 389.759 552.141L391.936 551.358Z"/><path fill="#2D4B7A" d="M407.961 579.935L408.29 580.794C405.14 588.256 394.991 610.936 390.343 616.235L389.548 615.456C391.5 610.581 405.233 584.556 407.961 579.935Z"/><path fill="#2A3661" d="M311.741 473.28C320.463 473.264 356.343 471.45 362.265 472.493C363.873 483.114 365.561 490.708 368.158 501.112C375.462 521.684 380.161 532.548 391.936 551.358L389.759 552.141C383.605 555.186 352.54 570.113 349.261 573.159C328.906 544.135 315.032 508.661 311.741 473.28Z"/><path fill="#293D6A" d="M368.158 501.112C375.462 521.684 380.161 532.548 391.936 551.358L389.759 552.141L389.103 551.324C380.634 540.677 366.597 514.698 368.158 501.112Z"/><path fill="#356EB6" d="M355.125 488.429L355.824 488.484L356.176 489.273C351.638 492.891 330.838 495.396 324.757 496.19L323.816 495.267C324.383 494.721 350.564 490.026 355.125 488.429Z"/><path fill="#2A3661" d="M444.537 525.916C451.991 536.463 456.208 542.275 465.029 551.626C465.907 552.451 470.668 556.83 471.151 557.481C478.939 564.097 487.086 570.277 495.555 575.995L493.011 577.566L481.225 593.494C480.419 595.56 480.007 595.778 478.388 597.395L475.596 597.838L473.842 600.886C472.045 603.53 464.874 614.497 462.782 615.749C436.003 599.399 408.571 573.842 392.598 546.657L396.753 548.88C404.037 544.147 426.474 535.334 431.833 530.714L433.985 529.824C437.302 527.492 441.463 527.611 444.537 525.916Z"/><path fill="#2A3661" d="M475.596 597.838C474.779 593.957 474.225 586.952 473.666 582.586C472.92 576.759 467.674 561.555 471.151 557.481C478.939 564.097 487.086 570.277 495.555 575.995L493.011 577.566L481.225 593.494C480.419 595.56 480.007 595.778 478.388 597.395L475.596 597.838Z"/><path fill="#2D4B7A" d="M481.225 593.494L480.62 593.097L480.511 591.994C483.389 587.619 488.232 580.754 491.946 577.047L493.011 577.566L481.225 593.494Z"/><path fill="#293D6A" d="M465.029 551.626C465.907 552.451 470.668 556.83 471.151 557.481C467.674 561.555 472.92 576.759 473.666 582.586C474.225 586.952 474.779 593.957 475.596 597.838L473.842 600.886C471.049 589.568 471.54 575.741 468.106 564.212C466.89 560.131 465.48 555.822 465.029 551.626Z"/><path fill="#2D4B7A" d="M433.985 529.824C433.227 533.258 398.848 549.875 396.514 549.537L396.753 548.88C404.037 544.147 426.474 535.334 431.833 530.714L433.985 529.824Z"/><defs><linearGradient id="gradient_2" gradientUnits="userSpaceOnUse" x1="417.34824" y1="494.89551" x2="377.6199" y2="524.41248"><stop offset="0" stop-color="#533C43"/><stop offset="1" stop-color="#233054"/></linearGradient></defs><path fill="url(#gradient_2)" d="M403.535 470.566L404.562 470.537L416.828 470.617C416.166 478.302 415.918 479.952 418.583 487.041C421.793 489.757 427.929 496.845 432.333 501.018L434.564 505.003C435.548 507.859 436.762 511.724 437.988 514.39L444.537 525.916C441.463 527.611 437.302 527.492 433.985 529.824L431.833 530.714C426.474 535.334 404.037 544.147 396.753 548.88L392.598 546.657C379.447 524.727 373.846 511.826 367.694 486.739C366.624 481.499 365.786 477.444 365.247 472.075L370.594 471.913C380.68 471.648 393.686 471.517 403.535 470.566Z"/><path fill="#463C4E" d="M403.535 470.566L404.562 470.537L406.522 471.607C402.497 474.749 390.306 469.947 386.157 474.135C386.799 477.688 393.86 477.373 397.047 477.592C396.201 479.822 395.506 479.11 393.382 481.161L396.113 481.156C387.396 483.861 371.459 483.381 367.694 486.739C366.624 481.499 365.786 477.444 365.247 472.075L370.594 471.913C380.68 471.648 393.686 471.517 403.535 470.566Z"/><path fill="#2A3661" d="M365.247 472.075L370.594 471.913C364.934 474.064 367.264 477.425 368.121 482.823C376.677 482.537 385.14 481.418 393.382 481.161L396.113 481.156C387.396 483.861 371.459 483.381 367.694 486.739C366.624 481.499 365.786 477.444 365.247 472.075Z"/><path fill="#6A4145" d="M418.583 487.041C421.793 489.757 427.929 496.845 432.333 501.018C428.503 503.824 419.784 521.006 413.541 527.927C415.549 523.523 428.509 503.771 427.084 500.882L422.995 499.593C420.899 491.305 421.176 493.44 416.943 489.342L418.583 487.041Z"/><path fill="#463C4E" d="M437.988 514.39L444.537 525.916C441.463 527.611 437.302 527.492 433.985 529.824L431.833 530.714C432.129 527.971 436.672 517.224 437.988 514.39Z"/><path fill="#2A3661" d="M783.771 469.98C796.282 470.945 809.986 470.337 822.703 470.851C823.414 498.677 821.42 523.853 811.787 550.241C810.89 552.697 809.488 556.231 808.886 558.665L808.008 559.806C795.632 554.124 780.789 548.453 768.03 543.248L768.497 541.529C774.381 531.461 779.942 499.755 780.048 487.858C780.08 484.229 779.445 473.482 780.486 470.645L783.771 469.98Z"/><path fill="#2D4B7A" d="M768.497 541.529C776.939 545.19 802.601 554.985 808.886 558.665L808.008 559.806C795.632 554.124 780.789 548.453 768.03 543.248L768.497 541.529Z"/><defs><linearGradient id="gradient_3" gradientUnits="userSpaceOnUse" x1="777.13409" y1="527.92065" x2="724.84406" y2="472.88974"><stop offset="0" stop-color="#212A56"/><stop offset="1" stop-color="#2A4377"/></linearGradient></defs><path fill="url(#gradient_3)" d="M726.001 469.498C733.023 468.94 770.362 469.476 777.572 470.049C778.269 490.575 775.935 521.545 766.55 540.094L765.436 539.89C764.264 540.722 762.352 541.824 760.948 541.531C754.282 540.141 722.381 523.791 718.027 525.176C716.556 527.151 716.014 527.863 714.183 529.518L713.778 529.878C724.138 504.82 726.259 496.971 726.001 469.498Z"/><path fill="#1E2754" d="M768.03 543.248C780.789 548.453 795.632 554.124 808.008 559.806C797.89 584.425 781.031 610.361 761.499 628.542C754.846 623.826 735.834 605.334 729.356 599.01C746.32 583.992 758.387 563.448 768.03 543.248Z"/><path fill="#2D4B7A" d="M773.122 558.363C777.675 558.025 787.048 557.006 790.816 558.838C785.705 560.642 778.504 559.188 773.122 558.363Z"/><path fill="#49AFE8" d="M777.572 470.049C779.871 469.772 781.565 469.353 783.771 469.98L780.486 470.645C779.445 473.482 780.08 484.229 780.048 487.858C779.942 499.755 774.381 531.461 768.497 541.529L768.03 543.248C758.387 563.448 746.32 583.992 729.356 599.01L727.747 600.485C724.656 603.335 721.241 606.651 717.909 609.139L716.847 610.185C679.735 637.543 642.907 651.938 596.18 653.339L594.172 653.296C550.95 655.873 499.862 641.216 463.03 618.947L461.675 618.379C431.516 598.002 414.209 583.155 393.018 552.816L391.936 551.358C380.161 532.548 375.462 521.684 368.158 501.112C365.561 490.708 363.873 483.114 362.265 472.493C364.323 472.738 363.366 472.883 365.247 472.075C365.786 477.444 366.624 481.499 367.694 486.739C373.846 511.826 379.447 524.727 392.598 546.657C408.571 573.842 436.003 599.399 462.782 615.749L464.792 616.989C497.92 636.825 535.398 648.35 573.938 650.524C578.51 650.782 590.554 652.113 593.983 650.284L595.663 650.326C598.942 651.13 607.246 650.263 610.815 649.893C677.845 642.957 740.852 604.618 766.55 540.094C775.935 521.545 778.269 490.575 777.572 470.049Z"/><path fill="#2D4B7A" d="M695.448 556.501C701.47 562.237 703.198 564.789 706.962 572.227C701.012 569.5 696.352 565.303 691.287 561.145L695.448 556.501Z"/><path fill="#7ADBF5" d="M725.981 555.488C727.022 554.829 728.34 554.79 729.418 555.388C730.496 555.986 731.162 557.124 731.155 558.357C731.148 559.589 730.469 560.72 729.384 561.305C727.786 562.167 725.792 561.608 724.875 560.04C723.958 558.472 724.447 556.46 725.981 555.488Z"/><path fill="#2D4B7A" d="M495.393 246.023C518.08 241.466 531.458 240.515 554.516 240.203C554.945 245.983 557.389 274.412 556.831 278.426C562.844 277.551 563.609 278.03 569.565 278.972C568.15 278.291 567.229 278.231 567.031 276.997C565.257 265.939 566.099 251.719 564.622 240.751C642.295 246.487 714.844 274.977 766.499 335.324C767.663 336.678 768.786 338.067 769.866 339.489C760.805 347.294 744.128 354.613 736.862 360.607C738.238 361.843 740.738 364.275 742.254 365.053C737.887 368.032 714.899 380.843 712.696 382.887C707.82 385.618 700.717 389.604 696.17 392.787L693.812 393.921C676.793 403.426 660.085 414.174 643.047 423.479C642.588 425.576 643.128 424.773 641.422 425.998C640.759 425.901 640.096 425.804 639.433 425.706C628.244 431.033 609.517 443.663 599.172 448.349C598.13 449.291 598.638 448.88 597.024 449.248L595.093 447.824C593.433 449.38 592.06 450.383 591.129 452.439C588.992 449.572 587.308 448.725 584.304 446.803C579.587 444.81 578.268 444.177 573.258 443.53L570.689 443.536C561.421 444.651 557.584 446.676 551.613 454.165L550.963 455.44C549.594 459.714 549.335 460.646 549.303 465.133L548.972 466.535C534.802 469 508.497 467.141 493.034 468.406L489.069 468.188C483.757 467.509 477.679 469.399 474.438 467.381C474.749 460.14 470.709 455.815 464.321 461.206C462.239 458.735 462.267 458.047 461.92 454.912C461.105 454.174 458.734 452.61 457.742 451.916C451.768 451.476 446.755 452.154 441.03 449.725C433.457 448.833 431.923 454.088 425.875 454.774L425.358 452.424L422.829 453.989C422.324 459.289 420.796 463.409 420.188 468.54C414.479 468.77 408.765 468.867 403.052 468.831L401.569 468.458C389.568 468.961 376.195 468.449 364.82 469.095L362.463 468.644C358.343 470.036 319.169 469.809 311.221 470.059C308.364 436.022 313.927 405.057 327.753 373.998C341.643 343.251 362.216 319.873 386.425 297.085L388.769 295.306C416.71 272.277 443.94 260.934 477.668 249.97L479.348 249.464C483.801 248.995 490.057 246.794 495.393 246.023Z"/><path fill="#8EC6E7" d="M564.622 240.751C642.295 246.487 714.844 274.977 766.499 335.324C767.663 336.678 768.786 338.067 769.866 339.489C760.805 347.294 744.128 354.613 736.862 360.607C738.238 361.843 740.738 364.275 742.254 365.053C737.887 368.032 714.899 380.843 712.696 382.887C707.82 385.618 700.717 389.604 696.17 392.787L693.812 393.921C676.793 403.426 660.085 414.174 643.047 423.479C642.588 425.576 643.128 424.773 641.422 425.998C640.759 425.901 640.096 425.804 639.433 425.706C628.244 431.033 609.517 443.663 599.172 448.349C598.13 449.291 598.638 448.88 597.024 449.248L595.093 447.824C593.433 449.38 592.06 450.383 591.129 452.439C588.992 449.572 587.308 448.725 584.304 446.803C579.587 444.81 578.268 444.177 573.258 443.53L572.894 437.299C573.176 424.562 571.633 403.908 571.262 390.534L570.872 388.676C572.563 388.704 574.985 388.823 576.612 388.648L571.493 387.433C568.379 385.323 570.093 360.977 568.28 354.304C566.636 355.176 566.435 355.639 565.605 357.29L562.923 357.819C563.071 353.598 561.808 337.333 561.169 333.328C559.23 331.985 557.819 332.439 555.072 332.36C558.002 330.17 556.805 333.614 560.889 329.171C560.07 314.795 557.892 296.071 557.995 282.137L558.562 281.082L556.831 278.426C562.844 277.551 563.609 278.03 569.565 278.972C568.15 278.291 567.229 278.231 567.031 276.997C565.257 265.939 566.099 251.719 564.622 240.751Z"/><path fill="#359CD1" d="M564.622 240.751C642.295 246.487 714.844 274.977 766.499 335.324C767.663 336.678 768.786 338.067 769.866 339.489C760.805 347.294 744.128 354.613 736.862 360.607L735.653 360.56L734.333 361.544C731.21 358.821 724.787 350.981 721.042 347.285C707.145 333.57 694.921 323.528 678.234 313.632C651.988 298.502 628.486 289.167 598.304 283.29C595.361 282.717 592.506 282.673 590.054 284.493C588.527 287.404 589.667 289.216 589.254 293.088C587.783 294.135 588.242 293.801 585.928 293.607C586.927 290.956 587.42 290.848 587.05 288.229L585.304 287.27C582.942 288.407 582.893 289.501 581.314 292.087C579.652 291.33 580.369 291.922 579.472 289.867C580.115 287.408 580.745 286.163 579.852 283.839C576.502 280.28 571.109 280.86 566.082 280.635C562.649 280.472 561.987 280.454 558.562 281.082L556.831 278.426C562.844 277.551 563.609 278.03 569.565 278.972C568.15 278.291 567.229 278.231 567.031 276.997C565.257 265.939 566.099 251.719 564.622 240.751Z"/><path fill="#7ADBF5" d="M556.831 278.426C562.844 277.551 563.609 278.03 569.565 278.972C621.878 278.293 681.951 306.462 719.23 342.88C725.013 348.479 730.495 354.38 735.653 360.56L734.333 361.544C731.21 358.821 724.787 350.981 721.042 347.285C707.145 333.57 694.921 323.528 678.234 313.632C651.988 298.502 628.486 289.167 598.304 283.29C595.361 282.717 592.506 282.673 590.054 284.493C588.527 287.404 589.667 289.216 589.254 293.088C587.783 294.135 588.242 293.801 585.928 293.607C586.927 290.956 587.42 290.848 587.05 288.229L585.304 287.27C582.942 288.407 582.893 289.501 581.314 292.087C579.652 291.33 580.369 291.922 579.472 289.867C580.115 287.408 580.745 286.163 579.852 283.839C576.502 280.28 571.109 280.86 566.082 280.635C562.649 280.472 561.987 280.454 558.562 281.082L556.831 278.426Z"/><path fill="#49AFE8" d="M569.243 255.497C570.368 256.259 570.179 256.243 571.066 257.344C571.477 263.98 570.822 269.901 570.078 276.495L569.308 276.535L568.622 275.674C568.239 271.081 568.026 259.745 569.243 255.497Z"/><path fill="#49AFE8" d="M566.082 280.635C571.109 280.86 576.502 280.28 579.852 283.839C580.745 286.163 580.115 287.408 579.472 289.867C580.369 291.922 579.652 291.33 581.314 292.087C582.893 289.501 582.942 288.407 585.304 287.27L587.05 288.229C587.42 290.848 586.927 290.956 585.928 293.607C588.242 293.801 587.783 294.135 589.254 293.088C589.667 289.216 588.527 287.404 590.054 284.493C592.506 282.673 595.361 282.717 598.304 283.29C628.486 289.167 651.988 298.502 678.234 313.632C674.188 325.022 670.625 333.527 663.438 343.415C660.876 346.941 656.952 351.621 654.766 355.028C630.019 340.381 606.815 331.905 577.959 330.015C576.361 329.55 575.632 329.265 574.085 328.621C572.472 326.123 573.116 322.807 573.273 319.614C571.075 316.763 570.292 315.809 567.629 313.378C567.857 304.932 566.599 289.541 566.082 280.635Z"/><path fill="#8EC6E7" d="M678.234 313.632C694.921 323.528 707.145 333.57 721.042 347.285C724.787 350.981 731.21 358.821 734.333 361.544C732.817 364.55 698.185 384.527 692.544 388.068C683.897 377.626 666.723 361.861 654.754 355.399L654.766 355.028C656.952 351.621 660.876 346.941 663.438 343.415C670.625 333.527 674.188 325.022 678.234 313.632Z"/><path fill="#7ADBF5" d="M571.262 390.534C597.838 392.704 618.998 401.307 637.47 421.137C631.491 424.688 600.512 442.176 598.103 446.512C598.518 448.056 598.06 447.533 599.172 448.349C598.13 449.291 598.638 448.88 597.024 449.248L595.093 447.824C593.433 449.38 592.06 450.383 591.129 452.439C588.992 449.572 587.308 448.725 584.304 446.803C579.587 444.81 578.268 444.177 573.258 443.53L572.894 437.299C573.176 424.562 571.633 403.908 571.262 390.534Z"/><path fill="#3E6796" d="M572.894 437.299C578.259 438.606 581.286 439.297 586.394 441.687C585.794 443.019 584.587 445.466 584.304 446.803C579.587 444.81 578.268 444.177 573.258 443.53L572.894 437.299Z"/><path fill="#356EB6" d="M586.394 441.687C589.295 443.456 592.84 445.373 595.093 447.824C593.433 449.38 592.06 450.383 591.129 452.439C588.992 449.572 587.308 448.725 584.304 446.803C584.587 445.466 585.794 443.019 586.394 441.687Z"/><defs><linearGradient id="gradient_4" gradientUnits="userSpaceOnUse" x1="740.88055" y1="379.86908" x2="576.45148" y2="410.8819"><stop offset="0" stop-color="#62E3F9"/><stop offset="1" stop-color="#98FFFE"/></linearGradient></defs><path fill="url(#gradient_4)" d="M654.754 355.399C666.723 361.861 683.897 377.626 692.544 388.068C698.185 384.527 732.817 364.55 734.333 361.544L735.653 360.56L736.862 360.607C738.238 361.843 740.738 364.275 742.254 365.053C737.887 368.032 714.899 380.843 712.696 382.887C707.82 385.618 700.717 389.604 696.17 392.787L693.812 393.921C676.793 403.426 660.085 414.174 643.047 423.479C642.588 425.576 643.128 424.773 641.422 425.998C640.759 425.901 640.096 425.804 639.433 425.706C628.244 431.033 609.517 443.663 599.172 448.349C598.06 447.533 598.518 448.056 598.103 446.512C600.512 442.176 631.491 424.688 637.47 421.137C618.998 401.307 597.838 392.704 571.262 390.534L570.872 388.676C572.563 388.704 574.985 388.823 576.612 388.648C577.353 388.561 578.098 388.515 578.844 388.51C600.554 388.237 625.329 404.63 640.353 419.608C654.653 409.999 674.975 398.469 690.155 389.104C675.958 373.585 669.911 368.997 653.191 357.184L654.754 355.399Z"/><path fill="#71F0FB" d="M558.562 281.082C561.987 280.454 562.649 280.472 566.082 280.635C566.599 289.541 567.857 304.932 567.629 313.378C570.292 315.809 571.075 316.763 573.273 319.614C573.116 322.807 572.472 326.123 574.085 328.621C575.632 329.265 576.361 329.55 577.959 330.015C606.815 331.905 630.019 340.381 654.766 355.028L654.754 355.399L653.191 357.184C624.552 339.927 603.763 335.193 571.478 331.694L569.14 332.569C567.379 337.24 569.172 344.733 570.125 349.691L570.26 347.039C571.08 353.075 572.752 382.547 571.493 387.433C568.379 385.323 570.093 360.977 568.28 354.304C566.636 355.176 566.435 355.639 565.605 357.29L562.923 357.819C563.071 353.598 561.808 337.333 561.169 333.328C559.23 331.985 557.819 332.439 555.072 332.36C558.002 330.17 556.805 333.614 560.889 329.171C560.07 314.795 557.892 296.071 557.995 282.137L558.562 281.082Z"/><path fill="#8EC6E7" d="M567.629 313.378C570.292 315.809 571.075 316.763 573.273 319.614C573.116 322.807 572.472 326.123 574.085 328.621C575.632 329.265 576.361 329.55 577.959 330.015L569.184 329.661C568.04 327.753 567.781 316.279 567.629 313.378Z"/><defs><linearGradient id="gradient_5" gradientUnits="userSpaceOnUse" x1="458.66666" y1="364.85074" x2="537.19391" y2="387.58316"><stop offset="0" stop-color="#365984"/><stop offset="1" stop-color="#46719E"/></linearGradient></defs><path fill="url(#gradient_5)" d="M516.095 335.938C527.722 331.311 548.39 330.046 560.889 329.171C556.805 333.614 558.002 330.17 555.072 332.36C557.819 332.439 559.23 331.985 561.169 333.328C561.808 337.333 563.071 353.598 562.923 357.819L565.605 357.29C566.435 355.639 566.636 355.176 568.28 354.304C570.093 360.977 568.379 385.323 571.493 387.433L576.612 388.648C574.985 388.823 572.563 388.704 570.872 388.676L571.262 390.534C571.633 403.908 573.176 424.562 572.894 437.299L573.258 443.53L570.689 443.536C561.421 444.651 557.584 446.676 551.613 454.165L550.963 455.44C549.594 459.714 549.335 460.646 549.303 465.133L548.972 466.535C534.802 469 508.497 467.141 493.034 468.406L489.069 468.188C483.757 467.509 477.679 469.399 474.438 467.381C474.749 460.14 470.709 455.815 464.321 461.206C462.239 458.735 462.267 458.047 461.92 454.912C461.105 454.174 458.734 452.61 457.742 451.916C451.768 451.476 446.755 452.154 441.03 449.725C433.457 448.833 431.923 454.088 425.875 454.774L425.358 452.424L422.829 453.989C422.749 449.518 423.325 444.377 423.711 439.868C424.527 434.382 426.206 428.344 427.289 422.748C432.243 408.8 435.34 401.893 443.189 389.436L445.09 386.543L446.861 384.636C463.507 359.801 487.953 345.916 515.302 336.117L516.095 335.938Z"/><defs><linearGradient id="gradient_6" gradientUnits="userSpaceOnUse" x1="521.14966" y1="440.48407" x2="572.00153" y2="403.29126"><stop offset="0" stop-color="#3E5B84"/><stop offset="1" stop-color="#5B8CBB"/></linearGradient></defs><path fill="url(#gradient_6)" d="M562.923 357.819L565.605 357.29C566.435 355.639 566.636 355.176 568.28 354.304C570.093 360.977 568.379 385.323 571.493 387.433L576.612 388.648C574.985 388.823 572.563 388.704 570.872 388.676L571.262 390.534C571.633 403.908 573.176 424.562 572.894 437.299L573.258 443.53L570.689 443.536C561.421 444.651 557.584 446.676 551.613 454.165L550.963 455.44C549.594 459.714 549.335 460.646 549.303 465.133L548.972 466.535C534.802 469 508.497 467.141 493.034 468.406L489.069 468.188C483.757 467.509 477.679 469.399 474.438 467.381C474.749 460.14 470.709 455.815 464.321 461.206C462.239 458.735 462.267 458.047 461.92 454.912C464.688 453.724 483.424 437.925 487.836 434.641L489.775 432.684C492.111 432.42 491.179 432.29 493.438 433.666L499.242 421.901L500.634 420.178C507.277 407.768 523.53 397.612 536.423 392.649C544.205 389.908 555.256 387.799 563.467 387.91L565.127 387.3C566.095 384.456 565.223 381.827 564.649 378.765C564.853 373.21 563.569 363.461 562.923 357.819Z"/><defs><linearGradient id="gradient_7" gradientUnits="userSpaceOnUse" x1="501.60208" y1="470.78812" x2="529.43646" y2="438.92062"><stop offset="0" stop-color="#49465D"/><stop offset="1" stop-color="#3A5B86"/></linearGradient></defs><path fill="url(#gradient_7)" d="M536.423 392.649C544.205 389.908 555.256 387.799 563.467 387.91L564.471 389.041L563.951 389.934L559.975 390.9C556.981 392.12 551.044 392.009 547.384 392.882C528.75 397.329 515.83 405.596 504.074 420.56L503.778 421.266C515.604 430.794 530.488 439.851 541.937 449.24C544.642 451.339 547.899 454.112 550.963 455.44C549.594 459.714 549.335 460.646 549.303 465.133L548.972 466.535C534.802 469 508.497 467.141 493.034 468.406L489.069 468.188C483.757 467.509 477.679 469.399 474.438 467.381C474.749 460.14 470.709 455.815 464.321 461.206C462.239 458.735 462.267 458.047 461.92 454.912C464.688 453.724 483.424 437.925 487.836 434.641L489.775 432.684C492.111 432.42 491.179 432.29 493.438 433.666L499.242 421.901L500.634 420.178C507.277 407.768 523.53 397.612 536.423 392.649Z"/><path fill="#6A4145" d="M487.836 434.641L489.775 432.684C492.111 432.42 491.179 432.29 493.438 433.666C490.158 443.051 488.869 450.259 488.781 460.31L489.47 466.804L474.438 467.381C474.749 460.14 470.709 455.815 464.321 461.206C462.239 458.735 462.267 458.047 461.92 454.912C464.688 453.724 483.424 437.925 487.836 434.641Z"/><path fill="#463C4E" d="M487.836 434.641L489.775 432.684C492.111 432.42 491.179 432.29 493.438 433.666C490.158 443.051 488.869 450.259 488.781 460.31C488.46 458.779 488.111 457.254 487.733 455.736C484.14 452.436 482.087 456.461 475.305 449.168C477.873 446.126 487.129 437.519 487.836 434.641Z"/><path fill="#7ADBF5" d="M536.423 392.649C544.205 389.908 555.256 387.799 563.467 387.91L564.471 389.041L563.951 389.934L559.975 390.9C556.981 392.12 551.044 392.009 547.384 392.882C528.75 397.329 515.83 405.596 504.074 420.56L503.778 421.266L501.168 425.45C492.925 439.242 492.251 450.984 492.766 466.534C505.147 466.082 537.969 464.178 549.303 465.133L548.972 466.535C534.802 469 508.497 467.141 493.034 468.406L489.069 468.188C483.757 467.509 477.679 469.399 474.438 467.381L489.47 466.804L488.781 460.31C488.869 450.259 490.158 443.051 493.438 433.666L499.242 421.901L500.634 420.178C507.277 407.768 523.53 397.612 536.423 392.649Z"/><path fill="#293D6A" d="M503.778 421.266C515.604 430.794 530.488 439.851 541.937 449.24C540.159 449.82 538.862 449.669 537.273 448.605C525.291 440.58 513.571 432.829 501.168 425.45L503.778 421.266Z"/><path fill="#78FBFC" d="M562.923 357.819L565.605 357.29C566.435 355.639 566.636 355.176 568.28 354.304C570.093 360.977 568.379 385.323 571.493 387.433L576.612 388.648C574.985 388.823 572.563 388.704 570.872 388.676L571.262 390.534C571.633 403.908 573.176 424.562 572.894 437.299L573.258 443.53L570.689 443.536C569.269 433.259 565.6 400.87 566.634 391.546C564.75 390.475 562.272 390.846 559.975 390.9L563.951 389.934L564.471 389.041L563.467 387.91L565.127 387.3C566.095 384.456 565.223 381.827 564.649 378.765C564.853 373.21 563.569 363.461 562.923 357.819Z"/><path fill="#4281C9" d="M503.778 421.266L504.074 420.56C515.498 427.228 540.968 445.919 551.613 454.165L550.963 455.44C547.899 454.112 544.642 451.339 541.937 449.24C530.488 439.851 515.604 430.794 503.778 421.266Z"/><path fill="#2A3661" d="M437.444 406.465C442.2 402.771 443.82 394.593 448.806 389.936L449.945 390.285C460.509 395.698 490.65 419.484 499.242 421.901L493.438 433.666C491.179 432.29 492.111 432.42 489.775 432.684L487.836 434.641C483.424 437.925 464.688 453.724 461.92 454.912C461.105 454.174 458.734 452.61 457.742 451.916C451.768 451.476 446.755 452.154 441.03 449.725C433.457 448.833 431.923 454.088 425.875 454.774L425.358 452.424C427.262 437.247 429.699 419.783 437.444 406.465Z"/><path fill="#6A4145" d="M459.869 419.335L460.604 420.43C459.145 423.019 454.021 441.836 453.674 445.078C455.356 447.402 456.821 449.165 457.742 451.916C451.768 451.476 446.755 452.154 441.03 449.725C441.888 447.975 446.781 440.858 448.073 438.865L451.129 439.756L451.592 441.31C454.349 435.648 455.331 428.505 458.034 423.01C458.741 421.572 459.067 421.271 459.869 419.335Z"/><path fill="#463C4E" d="M462.68 410.016C462.27 415.009 462.278 415.873 460.604 420.43L459.869 419.335C460.606 415.737 461.455 413.464 462.68 410.016Z"/><path fill="#3E6796" d="M555.072 332.36C557.819 332.439 559.23 331.985 561.169 333.328C561.808 337.333 563.071 353.598 562.923 357.819C563.569 363.461 564.853 373.21 564.649 378.765C565.223 381.827 566.095 384.456 565.127 387.3L563.467 387.91C555.256 387.799 544.205 389.908 536.423 392.649C536.896 391.689 537.558 390.217 537.247 389.163C532.657 373.605 521.315 353.852 516.677 338.891L517.693 338.53C529.724 334.493 542.583 333.781 555.072 332.36Z"/><path fill="#4281C9" d="M516.677 338.891L517.693 338.53C520.935 345.927 537.433 386.34 541.598 389.319C550.652 387.759 554.466 386.608 563.78 385.943L563.739 385.068C563.626 382.329 563.488 381.336 564.649 378.765C565.223 381.827 566.095 384.456 565.127 387.3L563.467 387.91C555.256 387.799 544.205 389.908 536.423 392.649C536.896 391.689 537.558 390.217 537.247 389.163C532.657 373.605 521.315 353.852 516.677 338.891Z"/><path fill="#8EC6E7" d="M516.095 335.938C527.722 331.311 548.39 330.046 560.889 329.171C556.805 333.614 558.002 330.17 555.072 332.36C542.583 333.781 529.724 334.493 517.693 338.53L516.677 338.891C484.867 348.761 457.013 369.723 440.759 399.284C439.546 401.489 438.261 404.118 437.444 406.465C429.699 419.783 427.262 437.247 425.358 452.424L422.829 453.989C422.749 449.518 423.325 444.377 423.711 439.868C424.527 434.382 426.206 428.344 427.289 422.748C432.243 408.8 435.34 401.893 443.189 389.436L445.09 386.543L446.861 384.636C463.507 359.801 487.953 345.916 515.302 336.117L516.095 335.938Z"/><path fill="#293D6A" d="M449.945 390.285L450.481 388.981C453.102 388.801 454.866 388.85 457.445 388.945C466.638 395.651 475.882 402.286 485.178 408.848C488.558 411.238 498.093 417.683 500.634 420.178L499.242 421.901C490.65 419.484 460.509 395.698 449.945 390.285Z"/><path fill="#2A3661" d="M395.572 356.81C405.966 360.876 422.553 373.531 432.644 379.679C434.523 380.825 442.733 385.498 443.874 386.295L445.09 386.543L443.189 389.436C435.34 401.893 432.243 408.8 427.289 422.748C426.206 428.344 424.527 434.382 423.711 439.868C423.325 444.377 422.749 449.518 422.829 453.989C422.324 459.289 420.796 463.409 420.188 468.54C414.479 468.77 408.765 468.867 403.052 468.831L401.569 468.458C389.568 468.961 376.195 468.449 364.82 469.095C364.135 453.93 363.733 434.16 367.96 419.415C368.525 414.03 372.853 397.74 375.918 393.295L376.876 390.371C381.266 378.94 388.595 366.844 395.572 356.81Z"/><path fill="#2D4B7A" d="M395.572 356.81C405.966 360.876 422.553 373.531 432.644 379.679C434.523 380.825 442.733 385.498 443.874 386.295C425.382 389.421 397.323 388.032 376.876 390.371C381.266 378.94 388.595 366.844 395.572 356.81Z"/><path fill="#2D4B7A" d="M443.874 386.295L445.09 386.543L443.189 389.436C435.34 401.893 432.243 408.8 427.289 422.748C427.382 420.853 427.368 416.779 428.366 415.37C429.126 414.296 429.068 414.495 429.19 412.931C424.756 409.449 390.155 397.922 381.708 394.787C379.822 395.278 378.046 395.504 376.129 395.793C373.853 401.296 370.216 416.37 367.96 419.415C368.525 414.03 372.853 397.74 375.918 393.295L376.876 390.371C397.323 388.032 425.382 389.421 443.874 386.295Z"/><path fill="#3E6796" d="M443.874 386.295L445.09 386.543L443.189 389.436C438.129 387.39 391.315 391.377 383.235 392.859L384.593 393.242C379.878 394.061 380.034 393.258 375.918 393.295L376.876 390.371C397.323 388.032 425.382 389.421 443.874 386.295Z"/><path fill="#6A4145" d="M414.222 443.27L414.898 442.985L414.184 442.562L413.948 441.441C415.246 438.693 414.424 439.564 416.994 438.098C420.04 437.946 421.021 438.607 423.711 439.868C423.325 444.377 422.749 449.518 422.829 453.989C422.324 459.289 420.796 463.409 420.188 468.54C414.479 468.77 408.765 468.867 403.052 468.831L401.569 468.458C407.088 466.815 412 469.288 415.627 466.561C421.531 453.674 416.748 454.058 406.999 445.889C408.956 445.961 409.894 446.536 412.018 446.466L414.222 443.27Z"/><path fill="#463C4E" d="M406.999 445.889C402.866 442.558 400.797 440.708 397.202 436.806L397.523 436.469C401.457 438.887 405.739 441.626 409.819 443.791C411.671 444.774 412.078 444.115 414.222 443.27L412.018 446.466C409.894 446.536 408.956 445.961 406.999 445.889Z"/><path fill="#2D4B7A" d="M400.682 349.412C403.823 347.117 416.135 333.375 421.019 329.137C444.67 308.618 466.769 298.783 495.778 289.035C499.333 302.57 511.682 323.526 515.302 336.117C487.953 345.916 463.507 359.801 446.861 384.636L445.09 386.543L443.874 386.295C442.733 385.498 434.523 380.825 432.644 379.679C422.553 373.531 405.966 360.876 395.572 356.81L400.554 350.344L400.682 349.412Z"/><path fill="#293D6A" d="M395.572 356.81L400.554 350.344C403.021 354.323 415.732 363.376 419.939 365.249C425.054 368.778 443.247 380.96 446.861 384.636L445.09 386.543L443.874 386.295C442.733 385.498 434.523 380.825 432.644 379.679C422.553 373.531 405.966 360.876 395.572 356.81Z"/><path fill="#2D4B7A" d="M400.682 349.412C407.9 351.899 415.351 359.231 419.939 365.249C415.732 363.376 403.021 354.323 400.554 350.344L400.682 349.412Z"/><path fill="#293D6A" d="M327.753 373.998C333.987 376.36 365.68 387.943 369.043 390.333C369.338 392.388 370.217 395.887 369.553 397.478C367.701 401.912 365.726 408.906 365.792 413.709L365.796 414.207C363.101 429.472 359.286 453.09 362.463 468.644C358.343 470.036 319.169 469.809 311.221 470.059C308.364 436.022 313.927 405.057 327.753 373.998Z"/><path fill="#2D4B7A" d="M495.393 246.023C518.08 241.466 531.458 240.515 554.516 240.203C554.945 245.983 557.389 274.412 556.831 278.426L553.961 278.234C536.513 278.847 512.368 281.253 495.627 286.876L494.126 287.224C489.83 277.566 482.493 258.415 477.668 249.97L479.348 249.464C483.801 248.995 490.057 246.794 495.393 246.023Z"/><path fill="#3E6796" d="M495.393 246.023C518.08 241.466 531.458 240.515 554.516 240.203C554.945 245.983 557.389 274.412 556.831 278.426L553.961 278.234C554.546 273.645 553.557 254.333 550.809 250.749C541.585 238.723 509.621 248.905 496.119 246.176L495.393 246.023Z"/><path fill="#356EB6" d="M477.668 249.97L479.348 249.464C484.195 260.022 491.795 276.09 495.627 286.876L494.126 287.224C489.83 277.566 482.493 258.415 477.668 249.97Z"/><path fill="#2D4B7A" d="M516.095 335.938C514.703 327.719 496.584 293.936 497.919 289.286C505.942 284.056 542.462 280.725 553.185 280.538C555.971 280.489 556.388 280.502 557.995 282.137C557.892 296.071 560.07 314.795 560.889 329.171C548.39 330.046 527.722 331.311 516.095 335.938Z"/><path fill="#49AFE8" d="M553.961 278.234L556.831 278.426L558.562 281.082L557.995 282.137C556.388 280.502 555.971 280.489 553.185 280.538C542.462 280.725 505.942 284.056 497.919 289.286C496.584 293.936 514.703 327.719 516.095 335.938L515.302 336.117C511.682 323.526 499.333 302.57 495.778 289.035C466.769 298.783 444.67 308.618 421.019 329.137C416.135 333.375 403.823 347.117 400.682 349.412L400.554 350.344L395.572 356.81C388.595 366.844 381.266 378.94 376.876 390.371L375.918 393.295C372.853 397.74 368.525 414.03 367.96 419.415C363.733 434.16 364.135 453.93 364.82 469.095L362.463 468.644C359.286 453.09 363.101 429.472 365.796 414.207C369.611 402.168 373.194 389.868 379.186 378.778C405.079 330.855 443.385 303.327 494.126 287.224L495.627 286.876C512.368 281.253 536.513 278.847 553.961 278.234Z"/><path fill="#3E6796" d="M388.769 295.306C392.134 296.678 409.154 293.958 413.495 292.254C419.975 289.709 434.849 272.872 441.039 272.945C440.851 275.464 431.792 279.202 429.45 282.141L429.904 283.504L427.201 283.038C423.179 287.256 421.04 288.85 418.967 294.395C410.408 295.406 394.404 297.661 386.425 297.085L388.769 295.306Z"/><path fill="#2D4B7A" d="M742.254 365.053C753.557 359.729 764.903 351.146 775.508 345.931C801.583 384.124 820.076 419.704 822.342 467.314C811.957 467.327 789.204 467.783 779.438 466.368L777.239 466.771C759.941 466.742 742.645 466.378 725.36 465.678L722.43 465.653C701.638 466.092 680.522 464.398 659.778 465.256L655.88 465.192C654.962 449.825 649.34 438.726 641.422 425.998C643.128 424.773 642.588 425.576 643.047 423.479C660.085 414.174 676.793 403.426 693.812 393.921L696.17 392.787C700.717 389.604 707.82 385.618 712.696 382.887C714.899 380.843 737.887 368.032 742.254 365.053Z"/><path fill="#293D6A" d="M742.254 365.053C753.557 359.729 764.903 351.146 775.508 345.931C801.583 384.124 820.076 419.704 822.342 467.314C811.957 467.327 789.204 467.783 779.438 466.368L777.239 466.771C776.233 443.584 768.198 419.205 757.941 398.525C754.559 391.706 749.563 384.461 746.78 377.581C738.505 382.275 730.056 385 721.28 388.638C715.539 391.019 707.534 395.423 701.905 397.074C700.508 395.608 699.458 394.43 698.178 392.862C701.976 390.966 710.812 386.79 712.696 382.887C714.899 380.843 737.887 368.032 742.254 365.053Z"/><path fill="#49AFE8" d="M746.78 377.581L746.849 376.304C763.487 398.384 778.852 438.648 779.438 466.368L777.239 466.771C776.233 443.584 768.198 419.205 757.941 398.525C754.559 391.706 749.563 384.461 746.78 377.581Z"/><path fill="#2D4B7A" d="M779.344 365.331C780.109 365.396 781.64 366.075 782.442 366.384C782.356 366.766 782.27 367.149 782.184 367.532C777.425 367.983 775.736 368.033 771.597 370.383C769.655 370.638 769.309 370.554 767.34 370.31C767.995 368.981 777.267 366.075 779.344 365.331Z"/><defs><linearGradient id="gradient_8" gradientUnits="userSpaceOnUse" x1="719.10663" y1="429.09485" x2="645.22888" y2="431.35104"><stop offset="0" stop-color="#2D497A"/><stop offset="1" stop-color="#3E6495"/></linearGradient></defs><path fill="url(#gradient_8)" d="M693.812 393.921C710.274 415.354 720.045 438.691 722.43 465.653C701.638 466.092 680.522 464.398 659.778 465.256L655.88 465.192C654.962 449.825 649.34 438.726 641.422 425.998C643.128 424.773 642.588 425.576 643.047 423.479C660.085 414.174 676.793 403.426 693.812 393.921Z"/><path fill="#7ADBF5" d="M643.047 423.479C650.233 434.059 654.488 440.907 657.415 453.807C658.057 456.639 659.043 462.987 659.778 465.256L655.88 465.192C654.962 449.825 649.34 438.726 641.422 425.998C643.128 424.773 642.588 425.576 643.047 423.479Z"/><path fill="#3E6796" d="M684.619 436.801L685.274 437.47L684.696 438.537C678.146 440.587 669.981 442.101 663.146 443.538L662.4 442.85C664.306 440.717 681.103 437.548 684.619 436.801Z"/><path fill="#49AFE8" d="M693.812 393.921L696.17 392.787C711.752 412.425 724.67 440.321 725.36 465.678L722.43 465.653C720.045 438.691 710.274 415.354 693.812 393.921Z"/><path fill="#78FBFC" d="M747.48 449.613C748.753 449.284 750.104 449.687 750.989 450.66C751.873 451.633 752.147 453.016 751.7 454.253C751.252 455.49 750.157 456.377 748.855 456.558C746.994 456.817 745.254 455.579 744.889 453.735C744.524 451.891 745.661 450.083 747.48 449.613Z"/><defs><linearGradient id="gradient_9" gradientUnits="userSpaceOnUse" x1="1257.5448" y1="644.02551" x2="1018.1697" y2="380.1918"><stop offset="0" stop-color="#F03D46"/><stop offset="1" stop-color="#FF4A47"/></linearGradient></defs><path fill="url(#gradient_9)" d="M1005.84 295.032C1000.13 274.422 1034.98 278.11 1045.2 286.956C1054.39 294.916 1063.2 301.264 1068.55 312.812C1070.63 315.939 1070.09 316.148 1073.06 317.554C1076.38 317.401 1078.66 316.501 1081.58 316.467C1085.9 315.513 1089.47 315.323 1093.85 314.994C1120.5 310.759 1158 318.525 1183.15 327.789C1199.01 309.437 1253.01 293.682 1269.49 318.216C1271.05 341.296 1249.68 324.956 1241.72 323.823C1227.12 324.613 1215.59 328.749 1203.43 336.888C1211.32 341.406 1221.65 347.178 1228.61 352.84C1272.73 382.708 1308.14 434.754 1318.14 487.265C1323.03 512.952 1323 552.552 1311.87 576.644C1303.44 599.541 1286.51 626.744 1266.77 641.264C1281.58 644.283 1295.17 647.673 1307.68 656.857C1318.15 664.553 1331.48 678.115 1330.48 692.282C1328.88 695.747 1326.61 694.938 1323.27 694.599C1317.68 693.19 1314.25 690.576 1309.21 687.787C1311.54 692.284 1313.92 696.146 1313.5 701.284C1307.62 711.5 1287.78 693.492 1279.95 694.812C1280.24 698.464 1286.5 706.487 1283.8 713.751C1275.92 722.087 1252.54 703.51 1245.68 698.549C1248.17 706.633 1249.47 716.393 1250.48 724.858C1250.8 727.754 1250.64 732.497 1249.15 734.959C1246.33 739.605 1238.81 742.023 1233.54 743.087C1219.07 746.009 1176.22 748.354 1172.04 730.239C1171.14 726.342 1169.19 706.85 1169.06 702.022C1168.1 699.417 1166.92 685.714 1166.76 682.457C1165.53 680.528 1165.93 681.146 1163 680.363C1154.94 681.996 1125.05 681.156 1117.57 678.393L1115.61 678.772C1111.2 685.2 1127.14 746.586 1117.33 752.969C1104.55 761.285 1078.79 761.934 1063.33 761.738C1034.2 761.37 1002.84 748.09 1038.54 720.478C1039.85 701.976 1040.24 686.441 1040.42 667.884C1021.75 664.579 1015.04 655.341 1011.15 637.61C1010.52 634.697 1010.57 633.734 1008.5 631.692C966.645 601.094 935.229 550.443 932.067 498.156C927.872 474.724 938.61 432.997 949.448 411.678C971.543 368.215 1005.11 339.26 1050.84 323.482L1051.45 322.615L1049.56 318.8C1048.19 317.525 1043.59 310.23 1041.54 308.089C1037.78 304.176 1034.26 302.506 1030.15 299.264C1021.07 298.42 1011.25 304.238 1005.84 295.032Z"/><path fill="#F94944" d="M1005.84 295.032C1000.13 274.422 1034.98 278.11 1045.2 286.956C1054.39 294.916 1063.2 301.264 1068.55 312.812C1070.63 315.939 1070.09 316.148 1073.06 317.554C1076.38 317.401 1078.66 316.501 1081.58 316.467C1085.9 315.513 1089.47 315.323 1093.85 314.994C1091.75 316.54 1090.43 316.929 1087.99 317.677C1090.99 318.571 1095.88 318.131 1099.95 318.992C1112.09 321.555 1124.14 335.239 1129.47 345.866C1132.46 351.808 1136.43 358.433 1135.12 365.325C1134.25 369.937 1139.71 382.304 1140.25 387.709C1141.38 399.169 1135.37 426.265 1127.85 434.947C1126.17 436.89 1115.47 441.092 1115.18 447.679C1114.81 456.119 1117.44 459.68 1110.11 466.006C1105.81 469.719 1099.92 470.996 1095.41 474.308C1089.81 478.422 1084.65 486.304 1079.95 490.798C1077.84 492.811 1063.99 498.378 1060.41 499.917C1057.48 501.183 1048.79 503.947 1045.42 504.86C1045.42 504.86 1044.34 508.249 1044.34 508.249C1041.29 510.34 1028.66 513.537 1025.54 513.818C1024.62 513.245 1023.91 512.808 1023.04 512.159C1017.89 513.105 1013.02 514.753 1008.81 510.691C1003.8 505.957 994.589 506.959 988.144 504.3C973.115 498.1 958.831 490.328 944.375 482.931C936.016 478.654 937.004 478.88 934.241 470.866C932.113 479.55 934.218 488.526 932.067 498.156C927.872 474.724 938.61 432.997 949.448 411.678C971.543 368.215 1005.11 339.26 1050.84 323.482L1051.45 322.615L1049.56 318.8C1048.19 317.525 1043.59 310.23 1041.54 308.089C1037.78 304.176 1034.26 302.506 1030.15 299.264C1021.07 298.42 1011.25 304.238 1005.84 295.032Z"/><path fill="#991D1E" d="M1072.64 320.043C1081.89 322.371 1087.98 331.022 1078.58 337.689C1078.43 330.821 1075.6 326.218 1072.64 320.043Z"/><path fill="#991D1E" d="M1005.84 295.032C1008.34 294.229 1027.41 296.95 1030.15 299.264C1021.07 298.42 1011.25 304.238 1005.84 295.032Z"/><path fill="#991D1E" d="M1068.55 312.812C1070.63 315.939 1070.09 316.148 1073.06 317.554C1076.38 317.401 1078.66 316.501 1081.58 316.467C1077.92 318.823 1074.46 318.375 1072.64 320.043C1075.6 326.218 1078.43 330.821 1078.58 337.689L1077.23 338.948C1076.75 328.364 1068.32 319.998 1068.55 312.812Z"/><path fill="#991D1E" d="M1049.56 318.8C1053.65 321.053 1060.97 336.954 1061.68 341.771C1053.23 337.788 1058.07 330.263 1050.84 323.482L1051.45 322.615L1049.56 318.8Z"/><path fill="#01071D" d="M1001.37 377.538C1026.89 377.633 1018.99 412.498 1011.25 426.329C1003.7 439.81 996.298 448.207 981.455 452.75C945.417 451.504 966.307 383.122 1001.37 377.538Z"/><path fill="#78FBFC" d="M994.702 390.97C1016.18 389.632 1007.2 416.718 992.003 424.535C971.648 425.998 978.015 398.978 994.702 390.97Z"/><path fill="#670302" d="M1163 680.363C1163.29 678.261 1168.42 678.023 1170.15 677.854C1221.77 672.819 1270.32 646.981 1297.64 601.944C1301.2 596.073 1307.66 580.908 1311.87 576.644C1303.44 599.541 1286.51 626.744 1266.77 641.264C1281.58 644.283 1295.17 647.673 1307.68 656.857C1318.15 664.553 1331.48 678.115 1330.48 692.282C1328.88 695.747 1326.61 694.938 1323.27 694.599C1317.68 693.19 1314.25 690.576 1309.21 687.787C1311.54 692.284 1313.92 696.146 1313.5 701.284C1307.62 711.5 1287.78 693.492 1279.95 694.812C1280.24 698.464 1286.5 706.487 1283.8 713.751C1275.92 722.087 1252.54 703.51 1245.68 698.549C1248.17 706.633 1249.47 716.393 1250.48 724.858C1250.8 727.754 1250.64 732.497 1249.15 734.959C1246.33 739.605 1238.81 742.023 1233.54 743.087C1219.07 746.009 1176.22 748.354 1172.04 730.239C1171.14 726.342 1169.19 706.85 1169.06 702.022C1168.1 699.417 1166.92 685.714 1166.76 682.457C1165.53 680.528 1165.93 681.146 1163 680.363Z"/><defs><linearGradient id="gradient_10" gradientUnits="userSpaceOnUse" x1="1211.1892" y1="670.91302" x2="1204.5752" y2="741.07446"><stop offset="0" stop-color="#74141A"/><stop offset="1" stop-color="#A31D20"/></linearGradient></defs><path fill="url(#gradient_10)" d="M1166.76 682.457C1169.38 680.089 1172.16 680.515 1175.61 680.003C1188.76 678.049 1205.12 675.514 1217.27 670.048C1226.03 682.379 1233.53 687.687 1243.83 697.64C1247.21 712.173 1255.62 738.074 1235.24 740.748C1219.86 742.765 1205.95 744.061 1190.53 740.861C1168.54 737.124 1175.65 724.803 1172.07 708.585C1171.49 705.941 1171.28 703.8 1169.06 702.022C1168.1 699.417 1166.92 685.714 1166.76 682.457Z"/><path fill="#991D1E" d="M1264.79 643.386C1289.58 647.069 1312.25 657.185 1325.34 679.784C1327.61 683.7 1328.39 688.278 1330.48 692.282C1328.88 695.747 1326.61 694.938 1323.27 694.599C1323.29 693.996 1323.34 693.715 1323.08 693.396C1320.89 690.752 1313.73 688.205 1310.91 685.876C1303.87 680.082 1298.37 672.801 1291.71 666.76C1282.31 658.237 1269.95 654.342 1258.78 648.763L1264.79 643.386Z"/><path fill="#991D1E" d="M1243.41 658.229C1245.82 660.297 1248.19 662.424 1250.51 664.607C1259.1 671.746 1288.28 701.286 1280.47 712.449C1270.99 717.141 1243.24 693.156 1236.31 686.367C1231.31 682.129 1224.85 674.456 1220.32 669.31C1227.87 666.44 1236.33 662.074 1243.41 658.229Z"/><path fill="#9F1E23" d="M1243.41 658.229C1245.82 660.297 1248.19 662.424 1250.51 664.607C1240.5 671.415 1238.92 674.636 1236.31 686.367C1231.31 682.129 1224.85 674.456 1220.32 669.31C1227.87 666.44 1236.33 662.074 1243.41 658.229Z"/><path fill="#991D1E" d="M1255.08 651.317C1258.34 653.057 1268.33 657.456 1272.18 658.55C1283.75 661.845 1314.83 688.643 1310.16 701.168C1307.71 702.838 1308.65 702.327 1304.95 702.364C1293.48 697.211 1280.29 688.472 1271.02 679.888C1262.76 672.241 1255.36 663.558 1245.97 657.076L1255.08 651.317Z"/><defs><linearGradient id="gradient_11" gradientUnits="userSpaceOnUse" x1="1094.1593" y1="621.60681" x2="1009.2089" y2="557.60736"><stop offset="0" stop-color="#E21A1D"/><stop offset="1" stop-color="#FF514D"/></linearGradient></defs><path fill="url(#gradient_11)" d="M1034.61 524.672C1037.91 520.554 1036.45 518.26 1042.67 513.786C1047.78 510.138 1054.15 508.735 1060.31 509.903C1066.01 510.969 1070.39 513.45 1073.61 518.259C1077.37 524.661 1079.67 529.349 1082.81 536.107C1094.19 563.192 1102.18 629.379 1072.56 648.9C1067.51 652.225 1063.73 645.4 1060.18 643.764L1059.55 643.589C1056.97 651.767 1054.89 658.933 1046.67 662.739C1034.18 668.521 1021.65 658.267 1017.03 647.28C1005.68 620.333 1020.01 590.519 1025.76 564.078C1028.8 550.08 1029.73 537.996 1034.61 524.672Z"/><defs><linearGradient id="gradient_12" gradientUnits="userSpaceOnUse" x1="1108.9457" y1="697.50494" x2="1025.5784" y2="742.19641"><stop offset="0" stop-color="#D1282A"/><stop offset="1" stop-color="#FF4D4A"/></linearGradient></defs><path fill="url(#gradient_12)" d="M1042.53 687.625C1043.78 683.779 1043.6 680.072 1043.65 676.038C1059.44 682.301 1074.1 691.404 1089.76 697.978C1093.95 699.738 1112.88 701.646 1114.27 702.818C1114.69 715.534 1118.73 731.748 1118.51 744.892C1118.47 747.064 1117.17 749.784 1115.3 750.952C1098.05 760.747 1074.06 759.659 1055.2 758.531C1029.05 756.967 1011.83 741.014 1040.67 722.765C1041.47 711.062 1042.09 699.347 1042.53 687.625Z"/><path fill="#670302" d="M1008.5 631.692C1011.04 629.012 1009.64 613.601 1010.92 609.598C1014.48 598.493 1028.71 528.953 1034.61 524.672C1029.73 537.996 1028.8 550.08 1025.76 564.078C1020.01 590.519 1005.68 620.333 1017.03 647.28C1021.65 658.267 1034.18 668.521 1046.67 662.739C1054.89 658.933 1056.97 651.767 1059.55 643.589L1060.18 643.764C1063.73 645.4 1067.51 652.225 1072.56 648.9C1102.18 629.379 1094.19 563.192 1082.81 536.107L1084.4 532.195C1086.17 533.654 1086.33 533.93 1087.69 535.815C1089.18 540.221 1092.33 543.704 1092.46 547.646C1105.33 567.423 1110.05 609.929 1104.77 633.276C1102.29 644.221 1097.64 656.443 1087.77 662.753C1076.09 670.218 1068.58 665.446 1059.66 657.197L1058.42 658.668C1054.22 663.677 1049.22 665.779 1043.03 667.898C1042.63 674.476 1042.27 681.031 1042.53 687.625C1042.09 699.347 1041.47 711.062 1040.67 722.765C1011.83 741.014 1029.05 756.967 1055.2 758.531C1074.06 759.659 1098.05 760.747 1115.3 750.952C1117.17 749.784 1118.47 747.064 1118.51 744.892C1118.73 731.748 1114.69 715.534 1114.27 702.818C1113.82 698.48 1110.84 679.367 1113.89 676.785C1116 677.361 1116.28 677.067 1117.57 678.393L1115.61 678.772C1111.2 685.2 1127.14 746.586 1117.33 752.969C1104.55 761.285 1078.79 761.934 1063.33 761.738C1034.2 761.37 1002.84 748.09 1038.54 720.478C1039.85 701.976 1040.24 686.441 1040.42 667.884C1021.75 664.579 1015.04 655.341 1011.15 637.61C1010.52 634.697 1010.57 633.734 1008.5 631.692Z"/><defs><linearGradient id="gradient_13" gradientUnits="userSpaceOnUse" x1="1044.359" y1="622.31799" x2="1112.1805" y2="578.33191"><stop offset="0" stop-color="#B42528"/><stop offset="1" stop-color="#E53233"/></linearGradient></defs><path fill="url(#gradient_13)" d="M1084.4 532.195C1086.17 533.654 1086.33 533.93 1087.69 535.815C1089.18 540.221 1092.33 543.704 1092.46 547.646C1101.37 577.96 1110.55 617.799 1095.62 647.8C1089.74 659.619 1081.57 665.353 1068.53 660.291C1063.54 655.044 1061.4 651.14 1060.18 643.764C1063.73 645.4 1067.51 652.225 1072.56 648.9C1102.18 629.379 1094.19 563.192 1082.81 536.107L1084.4 532.195Z"/><path fill="#991D1E" d="M1084.4 532.195C1086.17 533.654 1086.33 533.93 1087.69 535.815C1089.18 540.221 1092.33 543.704 1092.46 547.646C1090.93 547.033 1085.47 534.479 1084.4 532.195Z"/><path fill="#F94944" d="M1183.15 327.789C1199.01 309.437 1253.01 293.682 1269.49 318.216C1271.05 341.296 1249.68 324.956 1241.72 323.823C1227.12 324.613 1215.59 328.749 1203.43 336.888C1211.32 341.406 1221.65 347.178 1228.61 352.84C1224.7 352.915 1183.66 351.328 1182.79 350.964L1183.9 349.378C1186.59 348.364 1187.09 348.211 1188.88 345.851L1187.99 345.607C1182.23 349.724 1174.13 350.229 1171.41 342.53C1171.75 337.445 1178.91 332.699 1183.15 327.789Z"/><path fill="#9F1E23" d="M1234.44 321.892C1236.88 322.473 1239.31 323.118 1241.72 323.823C1227.12 324.613 1215.59 328.749 1203.43 336.888C1211.32 341.406 1221.65 347.178 1228.61 352.84C1224.7 352.915 1183.66 351.328 1182.79 350.964L1183.9 349.378C1186.59 348.364 1187.09 348.211 1188.88 345.851C1208.56 331.216 1206.36 328.868 1234.44 321.892Z"/><path fill="#991D1E" d="M1269.49 318.216C1271.05 341.296 1249.68 324.956 1241.72 323.823C1239.31 323.118 1236.88 322.473 1234.44 321.892C1239.72 321.353 1242.79 321.261 1248.04 322.473C1257.86 324.74 1262.31 326.532 1269.49 318.216Z"/><path fill="#F94944" d="M1073.61 518.259C1080.11 519.962 1086.31 529.824 1087.69 535.815C1086.33 533.93 1086.17 533.654 1084.4 532.195L1082.81 536.107C1079.67 529.349 1077.37 524.661 1073.61 518.259Z"/></svg>