<?xml version="1.0" encoding="utf-8" ?><svg xmlns="http://www.w3.org/2000/svg" xmlns:xlink="http://www.w3.org/1999/xlink" width="512" height="512" viewBox="0 0 512 512"><defs><linearGradient id="gradient_0" gradientUnits="userSpaceOnUse" x1="398.56723" y1="385.37524" x2="70.052269" y2="145.99734"><stop offset="0" stop-color="#216DBD"/><stop offset="1" stop-color="#63AEFE"/></linearGradient></defs><path fill="url(#gradient_0)" d="M94.4069 119.253C96.2146 117.298 99.5185 114.623 101.605 112.92C106.732 108.652 112.092 104.67 117.659 100.993C207.605 40.6288 339.229 46.7144 420.133 120.471C453.554 150.939 475.906 193.388 477.177 238.967C477.635 253.99 475.573 273.048 470.954 287.462C464.049 310.83 450.504 335.127 433.951 353.095L429.103 358.41C428.401 359.12 426.175 361.265 425.655 361.924C423.17 364.311 420.716 366.703 418.13 368.981C414.934 371.905 410.506 375.638 407.037 378.198L403.379 380.973L401.991 382.109C399.918 383.443 390.719 389.208 389.431 390.54C385.251 393.151 380.991 395.633 376.658 397.98L374.782 398.973C358.919 406.902 348.332 411.424 331.228 416.815C319.341 420.078 304.827 423.958 292.519 425.163C291.614 425.289 290.587 425.404 289.7 425.571C287.9 425.783 285.954 426.05 284.161 426.181C281.774 426.41 273.731 426.874 271.867 427.247C268.961 427.561 266.099 427.546 263.177 427.586C246.815 427.599 234.879 427.037 218.596 424.768C211.602 423.735 204.655 422.406 197.774 420.785L194.542 419.8C192.399 420.825 190.137 422.415 188.127 423.736C161.565 440.192 137.484 448.185 107.408 454.771C106.2 454.894 105.23 455.112 104.048 455.356C119.718 440.896 131.929 423.475 141.456 404.495C142.123 403.28 142.93 402.248 142.664 400.947L141.749 400.432C128.22 394.215 100.354 375.691 90.6038 364.43C87.5712 362.325 84.8116 358.885 82.3061 356.191C72.3208 345.459 63.6568 333.803 56.4934 321.006C55.0209 318.376 52.2609 313.678 51.3452 310.828C49.7979 308.012 47.8733 303.268 46.7097 300.27C41.4458 286.929 38.062 272.922 36.6555 258.649C33.5476 226.476 40.4953 194.132 56.541 166.073C60.2181 159.512 65.4495 151.188 70.2411 145.401C74.0589 139.509 88.7629 123.676 94.4069 119.253Z"/><path fill="#226EBE" d="M376.658 397.98L376.363 396.774C375.544 396.768 369.391 399.804 368.391 400.479C366.477 401.77 366.068 400.783 364.347 401.294C364.263 401.944 364.33 401.824 364.083 402.404L363.687 402.037C363.79 401.786 363.893 401.535 363.996 401.284L363.645 401.073L363.032 401.479C362.285 401.984 362.276 402.135 361.33 402.174L361.199 401.963C362.344 400.029 373.095 393.897 375.48 391.5C378.454 388.51 380.259 385.972 383.757 383.5C388.735 379.984 392.801 374.923 397.205 370.772C403.41 364.946 409.398 358.613 415.169 352.342C417.276 349.989 419.365 345.797 421.328 343.07C424.437 338.839 427.496 334.573 430.505 330.272C433.912 325.365 436.892 320.551 440.788 315.948C442.369 314.08 442.675 312.078 444.643 309.992C450.141 304.165 453.46 296.236 458.32 289.853C461.734 285.347 466.292 281.52 468.468 276.149C468.85 275.208 468.231 276.086 468.877 275.289L470.17 275.161L470.21 275.42L469.706 276.024C470.078 276.795 470.368 277.249 470.454 278.107L469.786 278.553C469.743 279.799 469.956 279.456 470.451 280.745C470.153 281.147 470.128 281.17 469.737 281.433L470.298 281.784C470.567 282.811 468.738 285.969 470.226 287.068L470.611 286.887L470.954 287.462C464.049 310.83 450.504 335.127 433.951 353.095L429.103 358.41C428.401 359.12 426.175 361.265 425.655 361.924C423.17 364.311 420.716 366.703 418.13 368.981C414.934 371.905 410.506 375.638 407.037 378.198L403.379 380.973L401.991 382.109C399.918 383.443 390.719 389.208 389.431 390.54C385.251 393.151 380.991 395.633 376.658 397.98Z"/><path fill="#71B5F7" d="M51.3452 310.828L51.8542 310.942C52.9664 312.846 53.7967 314.85 54.8824 316.755C55.938 318.607 57.3312 320.362 58.3841 322.197C65.8885 335.279 74.9441 347.185 85.3535 358.093C86.8871 359.7 90.2983 362.281 90.6038 364.43C87.5712 362.325 84.8116 358.885 82.3061 356.191C72.3208 345.459 63.6568 333.803 56.4934 321.006C55.0209 318.376 52.2609 313.678 51.3452 310.828Z"/><path fill="#71B5F7" d="M70.2411 145.401C74.0589 139.509 88.7629 123.676 94.4069 119.253C93.1193 121.95 86.4094 127.037 84.0194 129.904C81.5724 132.839 80.6256 135.627 77.3719 137.479C75.6185 138.477 72.2551 144.92 70.2411 145.401Z"/><path fill="#D2E1F0" d="M346.047 203.599C367.232 201.42 386.169 216.836 388.333 238.022C390.497 259.209 375.068 278.135 353.88 280.285C332.713 282.432 313.81 267.022 311.647 245.856C309.485 224.69 324.882 205.776 346.047 203.599Z"/><path fill="#D2E1F0" d="M158.579 203.61C179.751 201.725 198.44 217.364 200.318 238.536C202.197 259.708 186.552 278.392 165.38 280.264C144.216 282.135 125.542 266.499 123.664 245.336C121.787 224.173 137.417 205.494 158.579 203.61Z"/><path fill="#D2E1F0" d="M253.344 203.579C274.48 202.123 292.812 218.038 294.337 239.17C295.862 260.301 280.006 278.684 258.88 280.278C237.657 281.879 219.17 265.934 217.638 244.706C216.106 223.477 232.111 205.043 253.344 203.579Z"/><path fill="#226EBE" d="M359.572 403.492C359.983 403.683 359.776 403.535 360.122 404.023C359.458 404.512 359.223 404.424 358.334 404.562C358.307 403.937 358.261 404.238 358.467 403.659L359.572 403.492Z"/><path d="M107.408 454.771C137.484 448.185 161.565 440.192 188.127 423.736L188.974 424.089C188.8 426.372 186.979 426.182 186.794 427.356C188.176 427.786 190.211 425.945 191.59 425.66C193.49 425.268 196.38 425.411 198.222 425.92C195.693 427.062 193.85 426.122 191.786 427.091C188.683 428.549 185.672 430.625 182.646 432.25C176.57 435.449 170.599 439.075 164.341 441.852C162.319 442.749 159.608 444.138 157.524 444.641L157.938 444.178C158.846 443.627 159.647 443.322 160.561 442.73C160.84 442.453 160.839 442.543 161.319 442.406C163.743 441.107 166.609 440.187 169.075 438.968C169.897 438.561 169.741 438.57 169.922 437.854C169.546 436.821 169.858 437.195 169.097 436.589C168.397 436.821 160.29 440.422 159.424 440.864C158.4 441.253 154.738 442.591 154.021 443.123C152.58 443.854 148.892 444.519 148.173 445.508C149.454 445.696 148.653 445.776 149.71 446.524C151.872 446.467 153.969 445.479 155.855 445.326C155.2 445.921 143.032 450.306 141.554 450.616C139.508 450.536 139.248 451.443 137.989 451.309C138.04 450.388 138.193 450.349 137.824 449.648C136.05 448.854 133.937 449.936 132.382 450.831C129.16 451.286 125.376 452.638 122.211 453.459C120.731 453.844 119.734 453.808 118.265 454.299L118.194 454.524C119.243 454.555 118.737 454.421 119.599 454.822C123.37 456.576 131.674 452.483 135.183 452.782C133.742 453.205 128.221 455.092 127.041 455.256C123.815 455.707 110.909 459.129 108.815 458.761L108.986 458.136C109.58 457.833 109.812 457.914 110.486 457.936C111.456 457.412 111.118 457.773 111.636 456.915L111.444 456.473C110.95 456.848 110.773 456.967 110.178 457.14L109.641 456.928C110.556 456.193 110.485 456.223 110.205 454.973C109.375 454.453 108.775 454.927 107.408 454.771Z"/><defs><linearGradient id="gradient_1" gradientUnits="userSpaceOnUse" x1="213.58986" y1="432.04654" x2="212.87675" y2="419.44586"><stop offset="0" stop-color="black" stop-opacity="0.090196081"/><stop offset="1" stop-color="black" stop-opacity="0.23529412"/></linearGradient></defs><path fill="url(#gradient_1)" d="M194.542 419.8L197.774 420.785C196.946 420.816 196.409 420.738 195.74 421.203C196.298 421.55 197.857 421.727 198.82 422.082C204.46 424.167 211.638 424.333 217.335 426.005L218.741 425.435C218.783 424.981 218.822 425.205 218.596 424.768C234.879 427.037 246.815 427.599 263.177 427.586C261.914 428.65 246.948 426.95 246.215 428.418C247.319 428.983 260.173 428.089 261.716 428.834C259.755 429.745 248.978 428.083 246.824 429.422C246.604 430.016 246.649 430.047 246.186 430.457L245.81 430.395C245.749 429.65 245.751 429.425 245.556 428.691C244.302 428.456 242.724 427.999 242.712 429.339C242.701 430.62 241.431 430.284 240.54 430.868C241.594 431.426 245.401 431.248 246.568 431.17C251.828 430.817 256.916 430.237 262.088 431.529C263.168 431.799 266.239 429.798 267.451 431.247C266.597 431.673 266.372 431.344 265.138 431.324C265.393 431.67 265.274 431.478 265.482 431.907C261.929 433.572 240.704 431.747 235.742 431.506C223.734 430.923 210.162 428.091 198.222 425.92C196.38 425.411 193.49 425.268 191.59 425.66C190.211 425.945 188.176 427.786 186.794 427.356C186.979 426.182 188.8 426.372 188.974 424.089L188.127 423.736C190.137 422.415 192.399 420.825 194.542 419.8ZM236.451 428.831L237.007 428.32L236.898 427.904C234.778 426.845 232.384 426.753 230.06 426.817C231.61 427.971 234.571 427.95 236.451 428.831Z"/><path d="M230.06 426.817C232.384 426.753 234.778 426.845 236.898 427.904L237.007 428.32L236.451 428.831C234.571 427.95 231.61 427.971 230.06 426.817Z"/><defs><linearGradient id="gradient_2" gradientUnits="userSpaceOnUse" x1="316.1944" y1="424.98367" x2="315.35532" y2="419.66577"><stop offset="0" stop-color="black" stop-opacity="0.13333334"/><stop offset="1" stop-color="black" stop-opacity="0.20392157"/></linearGradient></defs><path fill="url(#gradient_2)" d="M292.519 425.163C304.827 423.958 319.341 420.078 331.228 416.815C332.208 416.771 332.826 416.61 333.597 417.169L333.575 417.579C331.864 418.824 328.015 419.308 327.371 419.941C328.777 419.941 330.887 420.276 332.015 420.176C330.443 420.555 328.95 421.029 327.391 421.449C325.243 422.028 324.525 422.643 322.724 421.17C320.403 421.38 320.972 423.888 318.82 422.188C317.366 422.245 315.63 423.691 314.99 424.932L314.193 425.299C309.829 426.048 301.583 428.207 297.799 426.529C296.635 424.975 296.249 425.374 294.404 425.345L292.519 425.163Z"/><defs><linearGradient id="gradient_3" gradientUnits="userSpaceOnUse" x1="341.72205" y1="417.11813" x2="340.73734" y2="413.82236"><stop offset="0" stop-color="black" stop-opacity="0.16470589"/><stop offset="1" stop-color="black" stop-opacity="0.22745098"/></linearGradient></defs><path fill="url(#gradient_3)" d="M374.782 398.973C372.591 402.561 350.494 410.029 349.203 411.408L349.184 412.103L349.615 412.445L350.25 412.208C351.221 412.528 350.849 412.255 351.47 412.96L351.409 413.387C350.116 414.081 332.443 420.179 332.015 420.176C330.887 420.276 328.777 419.941 327.371 419.941C328.015 419.308 331.864 418.824 333.575 417.579L333.597 417.169C332.826 416.61 332.208 416.771 331.228 416.815C348.332 411.424 358.919 406.902 374.782 398.973Z"/><path d="M366.548 407.658C368.348 406.931 370.14 406.184 371.924 405.419C370.33 406.643 367.832 407.728 365.999 408.6C354.424 414.104 341.993 417.979 329.938 422.288C328.227 422.9 323.826 423.938 322.085 423.934L321.844 424.127C318.57 424.23 317.142 424.871 314.193 425.299L314.99 424.932C315.63 423.691 317.366 422.245 318.82 422.188C320.972 423.888 320.403 421.38 322.724 421.17C324.525 422.643 325.243 422.028 327.391 421.449C328.95 421.029 330.443 420.555 332.015 420.176C332.443 420.179 350.116 414.081 351.409 413.387L351.47 412.96C350.849 412.255 351.221 412.528 350.25 412.208L350.423 411.506C351.471 411.308 351.365 412.074 352.904 411.117C353.165 411.264 353.996 411.725 354.283 411.748C356.829 411.955 364.555 408.749 366.548 407.658Z"/><defs><linearGradient id="gradient_4" gradientUnits="userSpaceOnUse" x1="299.2681" y1="426.88718" x2="292.5166" y2="426.68771"><stop offset="0" stop-color="black" stop-opacity="0.11372549"/><stop offset="1" stop-color="black" stop-opacity="0.14509805"/></linearGradient></defs><path fill="url(#gradient_4)" d="M314.193 425.299C317.142 424.871 318.57 424.23 321.844 424.127C318.63 426.075 289.944 430.358 286.367 429.614L286.244 429.291C288.786 428.431 292.48 429.427 293.178 428.554C292.556 428.406 292.483 428.312 292.045 428.131C290.823 427.623 290.658 428.216 289.339 427.41L289.209 426.751L289.306 426.401C288.67 426.162 285.137 426.205 284.161 426.181C285.954 426.05 287.9 425.783 289.7 425.571C290.376 426.862 289.635 426.514 290.796 427.249C291.777 427.132 291.989 426.787 292.748 426.001C293.256 425.474 293.54 425.568 294.404 425.345C296.249 425.374 296.635 424.975 297.799 426.529C301.583 428.207 309.829 426.048 314.193 425.299Z"/><path d="M373.713 401.497C375.437 400.5 383.625 395.844 384.942 395.479C384.678 395.254 384.428 395.048 384.216 394.771L384.866 394.457L385.131 395.034C384.452 396.493 384.114 396.69 383.359 397.938C383.939 397.702 386.5 395.73 387.019 395.227C387.651 395.364 387.348 395.258 387.891 395.752C389.27 394.86 389.432 393.545 390.539 392.666C390.886 392.391 392.832 392.464 393.482 391.869C395.631 389.902 395.702 390.82 398.05 388.507C397.277 390.386 389.541 394.949 387.605 396.715C385.444 398.687 376.996 402.029 375.087 403.728C374.855 403.013 374.318 401.921 373.713 401.497Z"/><path d="M389.431 390.54C390.719 389.208 399.918 383.443 401.991 382.109C402.968 383.729 402.815 382.194 403.242 383.651C402.511 384.625 390.775 392.296 389.092 393.312L388.801 393.27L388.637 392.843C389.362 392.01 390.029 391.926 390.04 390.83L389.431 390.54Z"/><defs><linearGradient id="gradient_5" gradientUnits="userSpaceOnUse" x1="125.96168" y1="454.12952" x2="125.52008" y2="452.55548"><stop offset="0" stop-color="black" stop-opacity="0.13333334"/><stop offset="1" stop-color="black" stop-opacity="0.19607843"/></linearGradient></defs><path fill="url(#gradient_5)" d="M137.989 451.309C139.248 451.443 139.508 450.536 141.554 450.616C139.039 451.634 137.582 451.958 135.183 452.782C131.674 452.483 123.37 456.576 119.599 454.822C118.737 454.421 119.243 454.555 118.194 454.524L118.265 454.299C119.734 453.808 120.731 453.844 122.211 453.459C125.376 452.638 129.16 451.286 132.382 450.831C132.778 451.937 132.437 451.539 133.367 452.127C135.248 452.369 136.183 451.408 137.989 451.309Z"/><defs><linearGradient id="gradient_6" gradientUnits="userSpaceOnUse" x1="368.96158" y1="405.39029" x2="368.40933" y2="404.32513"><stop offset="0" stop-color="black" stop-opacity="0.15294118"/><stop offset="1" stop-color="black" stop-opacity="0.19215687"/></linearGradient></defs><path fill="url(#gradient_6)" d="M373.713 401.497C374.318 401.921 374.855 403.013 375.087 403.728C373.965 404.445 373.109 404.847 371.924 405.419C370.14 406.184 368.348 406.931 366.548 407.658C364.714 407.733 363.746 407.569 361.985 407.072C362.103 406.974 372.777 401.921 373.713 401.497Z"/><path d="M197.774 420.785C204.655 422.406 211.602 423.735 218.596 424.768C218.822 425.205 218.783 424.981 218.741 425.435L217.335 426.005C211.638 424.333 204.46 424.167 198.82 422.082C197.857 421.727 196.298 421.55 195.74 421.203C196.409 420.738 196.946 420.816 197.774 420.785Z"/><defs><linearGradient id="gradient_7" gradientUnits="userSpaceOnUse" x1="359.18924" y1="410.04736" x2="358.61285" y2="408.81409"><stop offset="0" stop-color="black" stop-opacity="0.14901961"/><stop offset="1" stop-color="black" stop-opacity="0.19607843"/></linearGradient></defs><path fill="url(#gradient_7)" d="M361.985 407.072C363.746 407.569 364.714 407.733 366.548 407.658C364.555 408.749 356.829 411.955 354.283 411.748C353.996 411.725 353.165 411.264 352.904 411.117C353.561 410.603 360.491 407.893 361.985 407.072Z"/><path d="M425.655 361.924C425.691 363.509 425.865 362.886 424.938 364.255C426.401 363.116 427.813 361.793 429.191 360.544L429.5 360.686C427.856 362.476 422.039 368.856 420.177 369.596L419.91 369.467C419.197 369.127 418.912 368.904 418.13 368.981C420.716 366.703 423.17 364.311 425.655 361.924Z"/><defs><linearGradient id="gradient_8" gradientUnits="userSpaceOnUse" x1="164.715" y1="440.13403" x2="163.96458" y2="438.90909"><stop offset="0" stop-color="black" stop-opacity="0.14509805"/><stop offset="1" stop-color="black" stop-opacity="0.19215687"/></linearGradient></defs><path fill="url(#gradient_8)" d="M159.424 440.864C160.29 440.422 168.397 436.821 169.097 436.589C169.858 437.195 169.546 436.821 169.922 437.854C169.741 438.57 169.897 438.561 169.075 438.968C166.609 440.187 163.743 441.107 161.319 442.406C161.54 442.02 162.08 441.462 162.414 441.145L162.722 440.855L162.59 440.565C161.628 440.461 160.513 440.849 159.72 441.442L159.424 440.864Z"/><path d="M271.867 427.247C273.731 426.874 281.774 426.41 284.161 426.181C285.137 426.205 288.67 426.162 289.306 426.401L289.209 426.751C288.798 427.003 288.419 427.27 288.047 427.577C286.113 427.753 285.661 427.325 283.835 427.156C281.798 429.261 279.504 427.439 276.235 427.673C275.047 427.339 273.156 427.316 271.867 427.247Z"/><defs><linearGradient id="gradient_9" gradientUnits="userSpaceOnUse" x1="152.05811" y1="445.39059" x2="151.60789" y2="444.12289"><stop offset="0" stop-color="black" stop-opacity="0.14509805"/><stop offset="1" stop-color="black" stop-opacity="0.19607843"/></linearGradient></defs><path fill="url(#gradient_9)" d="M154.021 443.123C155.462 444.259 156.133 444.168 157.938 444.178L157.524 444.641L155.855 445.326C153.969 445.479 151.872 446.467 149.71 446.524C148.653 445.776 149.454 445.696 148.173 445.508C148.892 444.519 152.58 443.854 154.021 443.123Z"/><path d="M429.103 358.41L433.951 353.095L434.04 353.583C434.143 354.142 434.222 354.416 434.406 354.966C433.17 356.714 431.478 358.837 429.884 360.258L429.734 359.816C430.066 359.372 430.234 359.185 430.619 358.784L430.544 358.502L430.025 358.84C429.656 358.618 429.521 358.521 429.103 358.41Z"/><path d="M141.749 400.432L142.664 400.947C142.93 402.248 142.123 403.28 141.456 404.495C141.224 403.978 141.38 404.223 140.971 403.772C139.744 404.871 139.048 404.439 137.991 403.123C140.282 402.473 138.493 402.179 139.736 401.344L140.253 401.54C140.062 402.064 139.884 402.439 139.655 402.943L139.872 403.151L140.291 402.812C140.745 400.933 139.84 401.904 139.274 400.574L139.604 400.367C140.244 400.842 140.757 401.404 141.547 401.182L141.749 400.432Z"/><defs><linearGradient id="gradient_10" gradientUnits="userSpaceOnUse" x1="135.1487" y1="451.28143" x2="134.88197" y2="449.87976"><stop offset="0" stop-color="black" stop-opacity="0.15294118"/><stop offset="1" stop-color="black" stop-opacity="0.19607843"/></linearGradient></defs><path fill="url(#gradient_10)" d="M132.382 450.831C133.937 449.936 136.05 448.854 137.824 449.648C138.193 450.349 138.04 450.388 137.989 451.309C136.183 451.408 135.248 452.369 133.367 452.127C132.437 451.539 132.778 451.937 132.382 450.831Z"/><defs><linearGradient id="gradient_11" gradientUnits="userSpaceOnUse" x1="156.98402" y1="443.3537" x2="156.59142" y2="442.13123"><stop offset="0" stop-color="black" stop-opacity="0.16078432"/><stop offset="1" stop-color="black" stop-opacity="0.20784314"/></linearGradient></defs><path fill="url(#gradient_11)" d="M154.021 443.123C154.738 442.591 158.4 441.253 159.424 440.864L159.72 441.442C158.981 441.81 158.922 441.798 158.312 442.395L158.516 442.798L158.393 442.799C159.342 442.972 159.627 442.876 160.561 442.73C159.647 443.322 158.846 443.627 157.938 444.178C156.133 444.168 155.462 444.259 154.021 443.123Z"/><path d="M407.037 378.198L407.256 378.848C408.062 379.016 407.88 378.824 408.347 379.27C407.548 380.44 406.195 381.738 404.992 382.488C403.867 381.757 404.541 381.526 403.379 380.973L407.037 378.198Z"/><path d="M276.235 427.673C279.504 427.439 281.798 429.261 283.835 427.156C283.658 427.76 283.585 428.49 282.994 428.649C280.696 429.269 278.724 430.089 276.543 429.072C276.066 428.351 276.264 428.717 276.235 427.673Z"/><path d="M159.72 441.442C160.513 440.849 161.628 440.461 162.59 440.565L162.722 440.855L162.414 441.145C162.08 441.462 161.54 442.02 161.319 442.406C160.839 442.543 160.84 442.453 160.561 442.73C159.627 442.876 159.342 442.972 158.393 442.799L158.516 442.798L158.312 442.395C158.922 441.798 158.981 441.81 159.72 441.442Z"/><path d="M289.7 425.571C290.587 425.404 291.614 425.289 292.519 425.163L294.404 425.345C293.54 425.568 293.256 425.474 292.748 426.001C291.989 426.787 291.777 427.132 290.796 427.249C289.635 426.514 290.376 426.862 289.7 425.571Z"/></svg>