<svg viewBox="0 0 512 512" xmlns="http://www.w3.org/2000/svg" fill-rule="evenodd" clip-rule="evenodd" stroke-linejoin="round" stroke-miterlimit="2"><path d="M506 116v280c0 60.711-49.29 110-110 110H116C55.289 506 6 456.711 6 396V116C6 55.29 55.289 6 116 6h280c60.71 0 110 49.29 110 110z" fill="#0082c9"/><path d="M256.29 131.479c-39.395 0-72.787 26.707-83.135 62.895-8.997-19.196-28.486-32.641-50.938-32.641-30.875 0-56.254 25.379-56.254 56.254 0 30.875 25.379 56.264 56.254 56.264 22.452 0 41.941-13.455 50.938-32.65 10.348 36.188 43.74 62.905 83.135 62.905 39.104 0 72.326-26.313 82.938-62.094 9.16 18.761 28.412 31.84 50.544 31.84 30.872 0 56.264-25.39 56.264-56.265s-25.392-56.254-56.264-56.254c-22.132 0-41.384 13.072-50.544 31.83-10.612-35.781-43.834-62.084-82.938-62.084zm0 33.024c29.74 0 53.497 23.744 53.497 53.484 0 29.737-23.757 53.498-53.497 53.498s-53.485-23.76-53.485-53.498c0-29.74 23.744-53.484 53.485-53.484zm-134.073 30.251c13.028 0 23.243 10.202 23.243 23.233 0 13.028-10.215 23.243-23.243 23.243-13.028 0-23.233-10.215-23.233-23.243 0-13.031 10.205-23.233 23.233-23.233zm267.555 0c13.028 0 23.243 10.202 23.243 23.233 0 13.028-10.215 23.243-23.243 23.243-13.032 0-23.233-10.215-23.233-23.243 0-13.031 10.201-23.233 23.233-23.233zM105.544 330.602c-1.1 0-1.575.628-1.575 1.726v45.528c0 1.098.474 1.719 1.575 1.719h1.259c1.1 0 1.718-.62 1.718-1.719V340.05l24.855 38.57c.107.167.224.28.344.404.033.04.057.084.097.12.107.097.223.147.337.207.063.034.113.084.183.107.05.017.1.007.154.02.173.047.354.094.564.094h1.255c1.097 0 1.571-.621 1.571-1.72v-45.524c0-1.102-.474-1.726-1.571-1.726h-1.255c-1.098 0-1.725.624-1.725 1.726v37.806l-24.852-38.57c-.087-.13-.187-.21-.284-.314-.287-.404-.74-.648-1.391-.648h-1.259zm298.408.624c-1.098 0-.628.628-.628 1.729v15.541c0 1.569.154 2.666.154 2.666h-.154s-2.983-6.904-11.303-6.904c-9.103 0-15.544 7.221-15.23 17.894 0 10.675 5.81 18.057 15.07 18.057 8.947 0 11.93-7.225 11.93-7.225h.16s-.313.941-.313 2.2v2.662c0 1.101.627 1.575 1.725 1.575h1.101c1.098 0 1.565-.627 1.565-1.725v-44.741c0-1.101-1.728-1.729-2.826-1.729h-1.251zm-121.973.164c-1.098 0-.467.627-.467 1.725v38.454c0 7.535 5.019 8.48 7.845 8.48 1.255 0 1.726-.628 1.726-1.729v-1.098c0-1.098-.628-1.565-1.412-1.565-1.572-.157-3.607-.63-3.607-5.026v-37.516c0-1.098-1.726-1.725-2.824-1.725h-1.26zm-56.35 4.078c-1.099 0-1.726.627-1.726 1.725v29.824c0 8.163 4.555 12.718 12.09 12.718 1.412 0 1.88-.467 1.88-1.565v-.948c0-1.255-.468-1.568-1.88-1.725-2.67-.157-7.538-1.101-7.538-9.107v-17.267h7.064c1.098 0 1.726-.467 1.726-1.565v-.474c0-1.1-.628-1.725-1.726-1.725h-7.064v-8.166c0-1.098-.468-1.725-1.565-1.725h-1.262zm-62.522 8.79c-9.418 0-16.96 6.754-17.116 18.054 0 10.675 7.852 18.047 18.057 18.047 5.493 0 9.57-2.353 11.456-3.764.785-.628.945-1.415.474-2.2l-.474-.777c-.47-.944-1.251-1.105-2.192-.474-1.569 1.255-4.716 3.137-9.11 3.137-7.065 0-13.189-5.026-13.346-13.816h24.962a1.74 1.74 0 001.725-1.725c0-9.891-5.172-16.482-14.436-16.482zm97.524 0c-10.201 0-18.05 7.535-18.207 18.207 0 10.676 7.852 18.054 18.054 18.054 6.28 0 10.519-2.983 12.244-4.398.784-.784.938-1.408.467-2.353l-.467-.624c-.628-.944-1.258-1.101-2.2-.474-1.568 1.412-4.865 3.611-9.73 3.611-7.536 0-13.503-5.653-13.503-13.816 0-8.32 5.967-13.969 13.503-13.969 4.08 0 7.06 2.042 8.63 3.14.944.628 1.725.628 2.352-.313l.474-.788c.788-.941.624-1.722-.16-2.353-1.726-1.411-5.49-3.924-11.457-3.924zm53.058 0c-10.045 0-18.208 7.692-18.208 17.894 0 10.361 8.163 18.207 18.208 18.207 10.048 0 18.21-7.846 18.21-18.207 0-10.202-8.162-17.894-18.21-17.894zm-101.55.527c-.383.06-.754.32-1.104.741l-6.357 7.569-4.75 5.666-7.2-8.576-3.905-4.659c-.354-.42-.754-.65-1.168-.687-.414-.034-.848.12-1.268.473l-.961.808c-.841.707-.798 1.488-.094 2.33l6.354 7.568 5.273 6.287-7.716 9.187c-.006.007-.01.017-.013.02l-3.898 4.639c-.704.84-.627 1.729.214 2.436l.964.801c.841.707 1.609.527 2.313-.314l6.347-7.568 4.759-5.667 7.201 8.583c.004.007.014.014.017.017l3.888 4.645c.704.841 1.592.911 2.436.204l.961-.801c.841-.708.798-1.488.093-2.33l-6.357-7.575-5.27-6.28 7.716-9.194c.007-.007.01-.013.014-.02l3.897-4.635c.705-.845.628-1.732-.213-2.436l-.965-.805c-.42-.353-.82-.487-1.204-.427h-.004zm129.024.26c-1.098 0-1.575.628-1.575 1.726v20.246c0 8.947 6.594 13.345 14.757 13.345s14.757-4.398 14.757-13.345v-20.246c.157-1.098-.467-1.726-1.565-1.726h-1.262c-1.098 0-1.725.628-1.725 1.726v18.995c0 5.336-3.454 10.205-10.205 10.205-6.594 0-10.205-4.87-10.205-10.205V346.77c0-1.098-.627-1.726-1.725-1.726h-1.252zm-178.216 3.137c5.022 0 9.417 3.611 9.73 10.833h-21.66c1.1-7.065 6.123-10.833 11.93-10.833zm150.742.314c7.378 0 13.345 5.81 13.345 13.656 0 8.162-5.967 14.13-13.345 14.13-7.376 0-13.346-6.125-13.503-14.13 0-7.69 6.127-13.656 13.503-13.656zm78.646 0c7.378 0 10.99 6.754 10.99 13.82 0 9.887-5.344 13.965-11.15 13.965-6.438 0-10.826-5.49-10.983-13.966 0-8.793 5.02-13.819 11.143-13.819z" fill="#fff" fill-rule="nonzero"/></svg>